<?xml version="1.0" encoding="utf-8"?>
<!DOCTYPE svg PUBLIC "-//W3C//DTD SVG 1.0//EN" "http://www.w3.org/TR/2001/REC-SVG-20010904/DTD/svg10.dtd">
<svg version="1.0" xmlns="http://www.w3.org/2000/svg" width="1024px" height="1024px" viewBox="0 0 1024 1024" preserveAspectRatio="xMidYMid meet">
 <g fill="#007ec1">
  <path d="M495.7 1003.3 c-2 -2.7 -5.1 -6.5 -6.9 -8.6 -5.9 -6.8 -16.3 -19.3 -34.8 -41.7 -7.9 -9.6 -14.7 -17.7 -15 -18 -0.3 -0.3 -7.1 -8.4 -15 -18 -7.8 -9.6 -14.8 -18.1 -15.5 -18.8 -1.3 -1.4 -3.2 -0.8 -17.3 5.9 -4.6 2.1 -8.5 3.9 -8.7 3.9 -0.8 0 -11.9 5 -15.7 7 -2 1.1 -4.1 2 -4.7 2 -0.6 0 -5.2 2 -10.3 4.3 -5.1 2.4 -23.7 10.8 -41.3 18.7 -17.6 7.8 -33.1 15.1 -34.4 16.2 -2.5 1.9 -2.5 1.9 -4.7 -0.9 -1.3 -1.5 -2.3 -3.1 -2.4 -3.5 0 -0.4 -1.4 -2.8 -3.2 -5.4 -3 -4.4 -3.1 -4.8 -1.4 -5.8 10 -5.9 31.5 -27 42.9 -42.1 0.4 -0.5 2.1 -2.8 3.9 -5 4.2 -5.4 18.8 -27.7 22.4 -34.2 1.6 -2.9 4.1 -7.4 5.6 -10 4.7 -8.2 21.3 -42.2 26.8 -54.8 2.9 -6.6 6 -13.8 7 -16 1.7 -3.9 2.7 -6.4 10.8 -27.5 7.5 -19.4 11.4 -30.4 18.8 -53 9.3 -28.6 11.1 -34.1 18.9 -61 1.5 -5.2 3.6 -12.2 4.5 -15.5 1.7 -5.7 4.5 -16.1 9.2 -34 8.2 -31.6 10.9 -42.6 17.3 -70.5 5.2 -22.2 6.4 -27.6 8.6 -38 1.2 -5.8 3.2 -15.2 4.4 -21 1.3 -5.8 3.3 -15.4 4.5 -21.5 1.2 -6 3.2 -16.4 4.5 -23 1.3 -6.6 3.3 -16.9 4.4 -23 1.1 -6 2.9 -15.9 4 -22 1.2 -6 2.3 -12.8 2.7 -15 0.3 -2.2 1.4 -8.7 2.4 -14.5 1.1 -5.8 2.8 -16.3 4 -23.5 1.1 -7.1 3.1 -19.5 4.4 -27.5 l2.3 -14.5 -4 -4 c-17.6 -17.6 -6.4 -46.5 18.1 -46.5 9.5 0 17.8 4.9 23.2 13.5 2.2 3.5 2.5 5.1 2.5 13.5 0 9.1 -0.1 9.7 -3.3 14.3 -1.8 2.6 -4.5 5.5 -5.9 6.4 -2.2 1.5 -2.4 2.1 -1.8 5.7 0.3 2.3 1 7.5 1.5 11.6 0.5 4.1 1.9 12.9 3 19.5 1.1 6.6 3 17.6 4.1 24.5 2.7 16.6 6.5 38.2 8.8 50.5 1.1 5.5 2.9 15.2 4.1 21.5 1.2 6.3 3.2 16.7 4.4 23 1.3 6.3 3.4 16.5 4.6 22.5 4.8 24 13 61.1 17.3 78 1.1 4.4 2.3 9.8 2.7 12 0.4 2.2 1.4 6.9 2.4 10.5 0.9 3.6 2.8 11 4.2 16.5 1.4 5.5 3.4 13.2 4.4 17 1.1 3.9 4 14.9 6.5 24.5 2.6 9.6 5.5 20.2 6.5 23.5 1 3.3 3 10.3 4.5 15.5 1.5 5.2 3.5 12 4.5 15 1 3 3.9 12.3 6.5 20.5 8.3 26.3 19 57 24.7 70.4 1 2.4 1.8 4.7 1.8 5.2 0 0.5 1.1 3.3 2.5 6.3 1.4 3 2.5 5.7 2.5 6 0 0.5 6.1 15.3 11.7 28.1 6.9 16.1 20.6 42.9 33 64.5 4.5 7.8 15.3 23.9 24.5 36.5 3.9 5.3 20.2 23.2 25.2 27.5 10.4 9.2 14 12.1 16.7 13.7 l2.6 1.6 -4.1 6.3 c-2.3 3.4 -4.6 7.1 -5.2 8 -1 1.7 -1.2 1.7 -4.6 -0.3 -2.9 -1.7 -22 -10.4 -53.8 -24.5 -2.5 -1.1 -6.3 -2.8 -8.5 -3.8 -4.2 -1.9 -9.6 -4.3 -17.7 -7.9 -2.7 -1.2 -6.7 -3 -9 -4 -19.7 -8.9 -43 -19.1 -43.8 -19.1 -0.5 0 -1.5 0.8 -2.2 1.8 -1.3 1.9 -9.6 11.4 -17.4 20.1 -2.3 2.5 -9.7 10.9 -16.4 18.6 -6.7 7.7 -13.9 15.8 -15.9 18.1 -14.1 15.9 -36.5 41.5 -41.6 47.5 l-4 4.8 -9.5 0 -9.6 0.1 -3.7 -4.7z m54.4 -61.5 c41 -42.1 49.1 -50.7 48.7 -52 -0.3 -0.7 -6.5 -3.8 -13.9 -7.1 -7.4 -3.3 -17.6 -8 -22.7 -10.4 -5.1 -2.3 -9.7 -4.3 -10.3 -4.3 -0.6 0 -2.7 -0.9 -4.7 -2 -5.3 -2.8 -26.8 -12 -28.1 -12 -0.8 0 -1.1 16.8 -1.1 59.5 0 32.7 0.4 59.5 0.8 59.5 0.5 0 14.5 -14.1 31.3 -31.2z m-50.7 14 c1.4 -36.4 1.7 -99.8 0.6 -99.8 -0.7 0 -2.6 0.6 -4.3 1.4 -1.8 0.8 -5.7 2.5 -8.7 3.8 -40.1 17.8 -61 27.3 -61 27.9 0 0.4 2.2 3.1 4.9 6 2.6 3 10.2 11.5 16.7 18.9 11.8 13.5 23 26.2 29.1 32.9 1.8 2 7.2 8.2 12 13.8 4.9 5.6 9.1 10.2 9.4 10.2 0.4 0.1 1 -6.8 1.3 -15.1z m202.6 -46.2 c0 -0.8 -0.5 -1.8 -1 -2.1 -0.6 -0.4 -2.2 -2.3 -3.5 -4.3 -1.3 -2.1 -4.7 -7.1 -7.5 -11.2 -5.8 -8.4 -14 -22.3 -21.6 -36.8 -2.9 -5.3 -5.6 -9.8 -6.1 -9.9 -1 -0.4 -30.6 33.1 -31.1 35.1 -0.3 1.2 2.1 2.4 15.3 7.9 3.3 1.4 13.2 5.5 22 9.2 8.8 3.7 18.7 7.8 22 9.1 3.3 1.4 6.7 2.9 7.5 3.4 2.3 1.3 4 1.2 4 -0.4z m-364.1 -4.8 c5.3 -2.2 12.8 -5.4 16.6 -7 3.9 -1.7 9 -3.8 11.5 -4.9 5.6 -2.2 18.2 -7.5 23.3 -9.7 2.1 -0.9 3.6 -2.1 3.5 -2.7 -0.5 -2 -28.3 -35.4 -29.4 -35.5 -0.7 0 -2.7 2.8 -4.4 6.3 -8.7 16.7 -21 36.9 -30.2 49.8 -3.2 4.3 -5.8 8.2 -5.8 8.5 0 1 4.8 -0.5 14.9 -4.8z m290.2 -47.5 c17.6 -20.3 21.9 -25.4 21.9 -25.9 0 -0.3 -13.8 -10.8 -19 -14.4 -2 -1.4 -32.2 -23.9 -34.5 -25.7 -6.6 -5.3 -20.6 -15.3 -21.3 -15.3 -0.5 0 -3.1 3.2 -5.8 7.1 -2.7 3.9 -6 8.5 -7.4 10.4 -1.4 1.8 -5.2 7.2 -8.5 12 -3.3 4.8 -8 11.6 -10.5 15.1 -7.5 10.5 -12.5 17.8 -12.8 18.5 -0.1 0.3 1.2 1.2 3 1.9 1.8 0.7 4.7 1.8 6.3 2.5 6.5 2.8 18.2 7.7 22.5 9.4 6.3 2.7 17 7.1 20.5 8.6 1.7 0.7 5.9 2.5 9.5 4 3.6 1.5 9.4 4 13 5.6 3.6 1.6 7 2.9 7.6 2.9 0.6 0 7.6 -7.5 15.5 -16.7z m-206.8 12.6 c4 -1.7 8.6 -3.7 10.2 -4.4 1.7 -0.7 4.4 -1.8 6 -2.5 1.7 -0.7 5.5 -2.3 8.5 -3.5 19.1 -7.9 23 -9.5 27 -11.2 6.4 -2.8 13.9 -6 18.3 -7.7 2 -0.8 3.7 -1.9 3.7 -2.4 0 -0.5 -1.2 -2.5 -2.7 -4.5 -1.6 -2 -4.8 -6.5 -7.3 -10.1 -6.2 -9.1 -22.8 -32.7 -24.3 -34.7 -0.6 -0.8 -1.6 -2.2 -2.2 -3.1 -4.8 -7.3 -6.6 -9.7 -7.4 -10.3 -1.2 -0.7 -3.4 0.8 -18.6 12.3 -6.1 4.6 -18.2 13.6 -27 20.2 -8.8 6.5 -16.4 12.3 -17 12.7 -0.5 0.5 -3.5 2.6 -6.5 4.7 -3 2.2 -5.9 4.3 -6.3 4.6 -0.7 0.7 9.8 13.3 28.1 33.9 3.1 3.5 6.1 7 6.5 7.7 1.2 2 3.1 1.7 11 -1.7z m103.4 -51.4 c2.6 -3.5 8.6 -11.7 13.3 -18.1 4.7 -6.4 12 -16.4 16.3 -22.1 4.2 -5.8 7.7 -11 7.7 -11.6 0 -0.7 -7.9 -7 -17.6 -14.2 -9.7 -7.1 -19.1 -14.3 -21 -15.8 -1.8 -1.6 -3.8 -2.6 -4.4 -2.2 -1.3 0.8 -1.4 90.5 -0.1 90.5 0.6 0 3.1 -2.9 5.8 -6.5z m-22.7 -33.7 c0 -17.2 0.3 -35 0.7 -39.5 0.7 -9.7 0.2 -10.1 -6.4 -5 -2.3 1.7 -10.7 8.1 -18.7 14 -8 6 -14.6 11.2 -14.6 11.6 0 0.6 4.2 6.3 15.8 21.9 0.9 1.2 6 8.1 11.2 15.2 5.2 7.2 10 13 10.7 13 1 0 1.3 -6.7 1.3 -31.2z m-112.1 14.5 c3.6 -2.6 6.8 -4.9 7.1 -5.2 0.3 -0.3 2.5 -2 5 -3.7 2.5 -1.7 6.4 -4.4 8.6 -6 2.3 -1.6 7 -4.9 10.5 -7.3 3.5 -2.5 6.9 -4.9 7.6 -5.5 0.6 -0.6 3.6 -2.8 6.7 -4.9 3.1 -2.1 5.6 -4.4 5.6 -5 0 -0.7 -2.1 -4.3 -4.7 -7.9 -2.7 -3.7 -7.2 -10.2 -10.2 -14.5 -8.2 -11.7 -12.4 -17.3 -13.1 -17.3 -0.4 0 -1.3 1.9 -2 4.3 -0.7 2.3 -2.3 7 -3.6 10.4 -1.3 3.4 -2.4 6.5 -2.4 7 0 0.4 -0.9 3.1 -2 6 -1.2 2.9 -3 7.6 -4 10.5 -1.1 2.9 -5.4 13.7 -9.5 24.1 -4.1 10.3 -7.5 18.9 -7.5 19.2 0 1.1 1.6 0.3 7.9 -4.2z m253.1 3.8 c0 -0.5 -1.1 -3.3 -2.3 -6.2 -2.9 -6.5 -3.5 -8.1 -5.7 -13.9 -1 -2.5 -2.8 -7 -4 -10 -2.7 -6.8 -9 -24 -14 -38.5 -2.2 -6 -4.3 -11.1 -4.8 -11.3 -0.6 -0.2 -2.3 1.6 -3.9 4 -1.7 2.4 -5.6 8.1 -8.9 12.7 -10.3 14.6 -15.4 22.2 -15.4 22.9 0.1 0.4 2.2 2.2 4.8 4 13 9.1 18.8 13.2 19.7 14 0.6 0.4 3.7 2.7 7 5 3.3 2.3 9.2 6.4 13 9.2 3.9 2.8 8 5.5 9.3 6.2 1.2 0.6 2.2 1.5 2.2 2 0 0.4 0.7 0.8 1.5 0.8 0.8 0 1.5 -0.4 1.5 -0.9z m-69.7 -50.5 c0.3 -0.8 2.6 -4.1 5 -7.3 7.2 -9.4 21.2 -28.6 23 -31.3 l1.7 -2.6 -13.7 -10.4 c-22.1 -17 -27.6 -21 -28.4 -21 -0.5 0 -3.6 3.5 -6.9 7.8 -11.6 14.8 -21.5 27.4 -22.5 28.5 -0.6 0.7 -1.8 2.4 -2.8 3.9 l-1.7 2.8 3.7 2.5 c2.1 1.3 7.9 5.4 12.8 8.9 5 3.6 11.9 8.5 15.5 11 3.6 2.5 7.6 5.4 9 6.6 3 2.3 4.6 2.5 5.3 0.6z m-115.3 -1.6 c4.4 -3.6 16.1 -12 16.5 -12 0.2 0 3.9 -2.6 8.2 -5.8 4.3 -3.1 9.5 -6.9 11.5 -8.2 2.1 -1.4 3.8 -2.9 3.8 -3.3 0 -0.5 -1.9 -3.2 -4.2 -6.1 -2.4 -3 -5.2 -6.6 -6.3 -8.2 -1.1 -1.5 -4.9 -6.4 -8.5 -10.8 -3.6 -4.5 -8.1 -10.2 -9.9 -12.8 -1.9 -2.7 -3.9 -4.8 -4.5 -4.8 -0.6 0 -6 3.9 -12.1 8.6 -6 4.7 -15.2 11.7 -20.2 15.6 -5.1 3.8 -9.3 7.4 -9.3 7.9 0 0.6 4.1 6.5 9 13.2 5 6.7 11.8 15.9 15.1 20.5 3.3 4.5 6.5 8.2 7.2 8.2 0.6 0 2.3 -0.9 3.7 -2z m77.9 -60.2 c8.5 -10.5 14.9 -19.3 14.4 -19.7 -1.3 -0.8 -14.8 -11.2 -21.9 -16.8 -2.9 -2.4 -5.7 -4.3 -6.3 -4.3 -0.6 0 -1.1 -0.4 -1.1 -1 0 -0.5 -0.7 -1 -1.5 -1 -1.3 0 -1.5 4.1 -1.5 31 0 24.2 0.3 31 1.3 30.9 0.6 0 8.1 -8.6 16.6 -19.1z m-32.9 -13.8 c0 -14.8 -0.3 -27 -0.6 -27 -0.3 0 -2 1.1 -3.8 2.5 -1.7 1.4 -3.6 2.9 -4.1 3.3 -0.6 0.4 -3.7 2.7 -7 5.2 -3.3 2.5 -6.4 4.8 -7 5.3 -6.1 4.5 -5.9 4.1 -4.1 7.4 0.8 1.7 1.9 3.3 2.4 3.5 0.5 0.1 4.4 4.8 8.7 10.3 4.3 5.5 8.3 10.5 9 11 0.6 0.6 1.7 2 2.4 3.3 0.6 1.2 1.8 2.2 2.6 2.2 1.3 0 1.5 -4 1.5 -27z m-70.4 10.2 c5.1 -3.7 12.6 -9.2 16.8 -12.2 4.2 -3 7.6 -5.7 7.6 -6 0 -0.3 -3 -4.3 -6.6 -9 -3.6 -4.7 -7.7 -10.2 -9.2 -12.2 -1.5 -2.1 -3.1 -3.7 -3.7 -3.8 -0.5 0 -2.1 3.7 -3.4 8.3 -1.3 4.5 -4.6 15.3 -7.2 24 -5.1 16.5 -5.4 17.7 -4.1 17.7 0.4 0 4.8 -3.1 9.8 -6.8z m170.4 6.1 c0 -0.5 -1.4 -5.3 -3 -10.8 -1.7 -5.5 -3.9 -13.1 -5 -17 -1 -3.8 -2.7 -9.9 -3.7 -13.4 -1 -3.5 -2.3 -6.6 -2.9 -6.8 -0.7 -0.2 -4.8 4.3 -9.3 10.1 -4.4 5.7 -8.5 10.7 -9.1 11.1 -0.5 0.3 -1 1.4 -1 2.3 0 1.6 2.4 3.8 11.2 10 1.8 1.3 7.1 5.2 11.8 8.7 7.9 6 11 7.6 11 5.8z m-31.6 -46.1 c6.4 -7.8 11.6 -14.7 11.6 -15.2 0 -0.5 -3.3 -3.4 -7.2 -6.4 -4 -3 -11.8 -8.8 -17.3 -13 -8.1 -6.2 -10.2 -7.4 -11 -6.2 -0.5 0.8 -1.6 2.2 -2.3 3.3 -3 4.4 -11.5 16.3 -15.7 22.1 -2.5 3.4 -4.4 6.6 -4.1 7 0.2 0.4 3.1 2.5 6.3 4.7 3.2 2.2 10.5 7.5 16.2 11.8 5.8 4.3 10.8 7.4 11.2 7 0.4 -0.5 5.9 -7.2 12.3 -15.1z m-98.4 10.6 c7.6 -5.5 9.8 -7 19.3 -14.1 l7.7 -5.7 -1.5 -2.8 c-0.8 -1.5 -3.8 -5.8 -6.6 -9.7 -2.7 -3.8 -7.1 -10 -9.6 -13.7 -2.5 -3.8 -5.1 -6.8 -5.7 -6.8 -0.6 0 -2.2 0.9 -3.6 2 -1.4 1.1 -8.8 6.8 -16.5 12.7 -7.7 5.8 -14.2 10.7 -14.4 10.9 -0.4 0.4 9.5 13.5 14.4 19 2 2.1 5 5.8 6.8 8.1 1.8 2.3 3.3 4.3 3.4 4.3 0.1 0 2.9 -1.9 6.3 -4.2z m53.7 -39 c3.8 -5.1 8.6 -11.6 10.6 -14.5 l3.7 -5.1 -3.2 -2.3 c-1.8 -1.3 -3.7 -2.7 -4.3 -3.1 -11.3 -8.9 -13.9 -10.7 -14.6 -10.2 -0.5 0.3 -0.9 10.1 -0.9 21.8 0 18.3 0.3 22.6 1.6 22.6 0.1 0 3.3 -4.2 7.1 -9.2z m-22.7 -14.8 c0 -10.4 -0.4 -19 -0.9 -19 -1.2 0 -18.1 13 -18.1 14 0 0.9 7.1 10.4 8.2 10.8 0.4 0.2 0.8 0.8 0.8 1.3 0 1.2 8.3 11.9 9.3 11.9 0.4 0 0.7 -8.5 0.7 -19z m77 11.3 c0 -0.4 -0.7 -3.4 -1.6 -6.7 -2.9 -11.4 -5.3 -21.1 -6.6 -27 -0.8 -3.3 -1.8 -6.1 -2.3 -6.3 -0.6 -0.2 -2.5 1.8 -4.2 4.4 -1.8 2.7 -4.6 6.6 -6.3 8.8 -1.6 2.2 -3.5 5.1 -4.1 6.5 -0.9 2.2 -0.7 2.8 2.3 5.3 1.8 1.5 6.2 4.8 9.8 7.2 3.6 2.4 7.6 5.3 9 6.5 2.6 2 4 2.5 4 1.3z m-124.4 -7.8 c5.3 -3.8 10.8 -7.9 12.2 -9.1 l2.5 -2.1 -3.1 -4.4 c-1.8 -2.4 -5.3 -7.5 -7.8 -11.2 -2.5 -3.8 -4.9 -6.5 -5.4 -6 -0.4 0.4 -1.7 4.4 -2.8 8.8 -1.2 4.4 -3.3 12.3 -4.7 17.5 -2.6 10.1 -3.1 14.4 -1.6 13.8 0.6 -0.1 5.3 -3.4 10.7 -7.3z m96.6 -24.7 c0.9 -1.2 4.5 -6.1 7.9 -10.7 5.5 -7.3 6 -8.5 4.5 -9.3 -0.9 -0.5 -3.2 -2.2 -4.9 -3.7 -1.8 -1.5 -5.8 -4.7 -9 -7.1 -4.9 -3.7 -6 -4.1 -7.1 -2.9 -4.1 4.4 -20.6 25.2 -20.6 25.9 0 0.5 1.2 1.8 2.7 2.7 1.6 1 6.6 4.6 11.2 8 l8.4 6.2 2.6 -3.3 c1.4 -1.9 3.4 -4.5 4.3 -5.8z m-65.4 2 c4.9 -3.5 10.1 -7.3 11.7 -8.5 l2.7 -2.3 -4.3 -5.2 c-2.3 -2.9 -5.1 -6.2 -6.1 -7.3 -2.4 -2.7 -8.2 -9.5 -10.5 -12.3 l-1.8 -2.3 -10.2 7.7 c-5.7 4.3 -10.3 8.2 -10.3 8.8 0 0.6 3.9 6.3 8.6 12.6 4.7 6.3 9 12.3 9.5 13.3 0.5 0.9 1.2 1.7 1.4 1.7 0.2 0 4.4 -2.8 9.3 -6.2z m41.4 -29.4 c5.1 -5.8 9.4 -11.1 9.6 -11.9 0.3 -1.3 -17.7 -15.5 -19.7 -15.5 -0.8 0 -1.1 5.9 -1.1 19 0 10.9 0.4 19 0.9 19 0.5 0 5.1 -4.8 10.3 -10.6z m-24.3 -9.9 c0.2 -10.5 -0.1 -16.5 -0.7 -16.5 -0.9 0 -2.8 1.3 -14 9.5 -2.3 1.7 -3.9 3.5 -3.7 4.2 0.7 2 15.9 19.3 17 19.3 0.6 0 1.1 -6 1.4 -16.5z m-31.1 -4.6 c0.2 -0.5 -0.4 -1.6 -1.2 -2.5 -0.9 -0.9 -2.8 -3.1 -4.2 -5 -1.5 -1.9 -3 -3.4 -3.4 -3.4 -0.4 0 -1.3 2.8 -1.9 6.3 -0.6 3.4 -1.5 7.7 -2.1 9.6 -0.5 1.9 -0.7 3.8 -0.4 4.2 0.5 0.9 12.6 -7.6 13.2 -9.2z m91.2 8.6 c0 -2.9 -4.2 -18.5 -5 -18.5 -0.4 0 -1.5 1 -2.3 2.3 -0.9 1.2 -2.7 3.5 -4.1 5.1 -1.4 1.6 -2.6 3 -2.6 3.2 0 0.6 12.3 9.4 13.1 9.4 0.5 0 0.9 -0.7 0.9 -1.5z m-13.6 -19.7 c3.1 -3.6 5.6 -7.1 5.6 -7.7 0 -0.5 -2.8 -3.1 -6.2 -5.7 -3.5 -2.6 -7.8 -6 -9.6 -7.6 -1.8 -1.5 -3.8 -2.8 -4.5 -2.8 -0.7 0 -4.1 3.4 -7.6 7.6 -5.9 7.1 -6.2 7.7 -4.5 8.9 6.3 4.4 17.1 12.5 17.9 13.4 1.7 1.7 3 0.8 8.9 -6.1z m-64.2 2 c3.3 -2.4 7.5 -5.3 9.2 -6.4 6.4 -4.4 6.4 -4.7 0 -12.5 -3.2 -3.9 -6.4 -7.3 -7.1 -7.6 -1.4 -0.5 -21.2 14.6 -21.3 16.2 0 1 11.8 14.5 12.7 14.5 0.2 0 3.1 -1.9 6.5 -4.2z m38.2 -23.7 c2.7 -3.1 5.1 -6.1 5.2 -6.6 0.3 -0.9 -10.6 -9.5 -12 -9.5 -0.3 0 -0.6 5 -0.6 11 0 8.2 0.3 11 1.3 10.9 0.6 0 3.4 -2.6 6.1 -5.8z m-47.2 -3.4 c7.6 -5.6 7.6 -4 0.3 -13 -3.8 -4.7 -5.3 -4.7 -6 0.1 -0.3 2 -1.2 6.9 -2 10.7 -0.9 3.9 -1.5 7.4 -1.5 7.8 0 1.1 1.1 0.4 9.2 -5.6z m26.8 -2.7 c0 -4.9 -0.4 -9 -0.9 -9 -1.3 0 -8.7 6.3 -8.8 7.5 -0.2 1.3 7.5 10.5 8.8 10.5 0.5 0 0.9 -4 0.9 -9z m51 6.5 c0 -2.4 -3.9 -19.5 -4.6 -20.4 -0.4 -0.5 -3.9 3.3 -8.2 8.8 l-2.6 3.3 3.7 3 c5.2 4.2 10.1 7.6 11 7.7 0.4 0.1 0.7 -1 0.7 -2.4z m-12.5 -20.8 l6.9 -8 -6.3 -5.9 c-6.8 -6.2 -8.6 -6.9 -9.6 -3.8 -0.3 1.1 -1 2 -1.4 2 -1 0 -11.1 12.6 -11.1 13.9 0 1.1 12.1 10 13.5 10 0.6 -0.1 4.1 -3.7 8 -8.2z m-46.5 3.2 c3 -2.3 5.6 -4.7 5.8 -5.5 0.4 -1.5 -12.7 -18.3 -14.3 -18.3 -1.5 0 -12.5 10.6 -12.5 12.1 0 1.7 12.8 15.8 14.4 15.8 0.6 0 3.6 -1.8 6.6 -4.1z m26.5 -16.1 c2.1 -2.4 5.1 -5.7 6.8 -7.4 l2.9 -3.2 -3 -2.8 c-6.9 -6.7 -10.2 -9.4 -11.2 -9.4 -0.6 0 -1 4.9 -1 13.5 0 7.4 0.4 13.5 0.8 13.5 0.5 0 2.6 -1.9 4.7 -4.2z m-17.5 -10.9 c0 -6.5 -0.4 -11.9 -0.8 -11.9 -0.4 0 -3.4 2.4 -6.6 5.3 -4.5 4.1 -5.7 5.7 -5 6.9 2.1 3.5 10.7 12.7 11.5 12.2 0.5 -0.3 0.9 -5.9 0.9 -12.5z m42 3.9 c0 -0.7 -0.6 -3.5 -1.3 -6.1 l-1.2 -4.8 -3 3.1 -3 3.1 3.5 2.9 c3.9 3.2 5 3.6 5 1.8z m-65.5 -2.8 l2.9 -3 -2.7 -2.7 c-1.4 -1.5 -2.8 -2.5 -3.1 -2.2 -1 1 -1.8 10.9 -0.9 10.9 0.5 0 2.2 -1.4 3.8 -3z m12 -10.2 c2.7 -2.4 6.2 -5.4 7.8 -6.8 l2.8 -2.5 -3.9 -4.3 c-4.4 -4.7 -5.1 -5 -7.4 -2.3 -0.9 1 -4.1 3.8 -7.2 6.1 -3.1 2.3 -5.6 4.4 -5.6 4.7 0 0.7 7.4 9.3 8 9.3 0.3 0 2.8 -1.9 5.5 -4.2z m46.3 0.1 c2.8 -3.3 3.2 -4.2 2.1 -5.5 -1.9 -2.3 -13.6 -11.4 -14.5 -11.3 -0.5 0 -2.5 1.9 -4.4 4.1 l-3.5 4.1 7 6.3 c3.9 3.5 7.7 6.4 8.5 6.4 0.8 0 3 -1.8 4.8 -4.1z m2.2 -13.7 c0 -2.4 -2.4 -12.8 -3.1 -13.6 -1 -1.1 -7.9 5.1 -7.9 6.8 0.1 0.6 2 2.5 4.3 4.3 4.1 3.1 6.7 4.1 6.7 2.5z m-54 -3.4 c2.2 -1.8 4 -3.6 4 -3.9 0 -1.2 -5.4 -6.9 -6.5 -6.9 -0.5 0 -1.7 3.2 -2.6 7 -1.9 8.3 -1 8.9 5.1 3.8z m34.1 -0.4 l2.4 -2.6 -2.9 -2.3 c-1.7 -1.3 -3.3 -2.2 -3.8 -1.9 -0.4 0.3 -0.8 2.5 -0.8 5 0 5.2 1.4 5.7 5.1 1.8z m-17.1 -3 c0 -2.8 -0.4 -3.5 -1.6 -3.2 -2.7 0.5 -3.9 3.3 -2.3 5.1 2.4 2.7 3.9 2 3.9 -1.9z m28 -8 c5.1 -5.2 5.4 -5.7 3.6 -6.7 -1 -0.7 -3.2 -2.3 -4.8 -3.6 -1.6 -1.3 -3 -2.2 -3.1 -2 -0.2 0.2 -2.2 2.7 -4.5 5.5 -2.3 2.9 -4.2 5.5 -4.2 6 0 0.8 6.1 6.3 7 6.4 0.3 0 3 -2.5 6 -5.6z m-33 2 c2.2 -1.5 4 -2.9 4 -3.1 0 -1.1 -8.6 -11.3 -9.5 -11.3 -0.6 0 -3 1.4 -5.4 3.1 l-4.3 3.2 5.3 5.3 c3 3 5.5 5.4 5.6 5.4 0.2 0 2.1 -1.2 4.3 -2.6z m22 -11.6 c1.6 -1.8 3 -3.8 3 -4.4 0 -1.5 -6.5 -6.5 -7.4 -5.7 -1 1.1 -0.7 13.3 0.4 13.3 0.6 0 2.4 -1.5 4 -3.2z m-16 -4.3 c0 -3 -0.5 -5.7 -1 -6 -1.1 -0.7 -6.9 3.4 -6.9 5 -0.1 1.6 5.9 7.6 7 7 0.5 -0.4 0.9 -3 0.9 -6z m-15.7 0.1 c1.6 -1.2 1.6 -1.7 0.5 -3.5 -0.7 -1.2 -1.6 -2.1 -1.9 -2.1 -0.9 0 -1.9 2.7 -1.9 5.1 0 2.2 0.8 2.4 3.3 0.5z m46.3 -0.8 c-0.3 -1.3 -0.6 -2.6 -0.6 -3 0 -0.5 -0.6 -0.8 -1.4 -0.8 -2 0 -3.2 4 -1.5 5.1 2.6 1.6 4.2 1 3.5 -1.3z m-33.4 -8.7 c1.6 -1.3 1.6 -1.5 -0.2 -4 -5.2 -7 -4.4 -6.7 -9.4 -2.6 -2.5 2.1 -4.6 4.2 -4.6 4.8 0 0.5 1.4 2.5 3.2 4.2 l3.2 3.3 3 -2.1 c1.7 -1.2 3.9 -2.8 4.8 -3.6z m28.9 2.3 l3.4 -3.5 -4.5 -3.9 c-5.1 -4.5 -5.7 -4.7 -7.7 -2.2 -5 6.3 -5 6.1 -0.7 9.8 2.1 1.8 4.4 3.3 5 3.4 0.5 0 2.6 -1.6 4.5 -3.6z m-10.8 -11 c1.8 -2.4 1.8 -2.5 -0.5 -4.3 -3 -2.5 -3.8 -1.8 -3.8 3 0 4.6 1.6 5.1 4.3 1.3z m-15.3 -2.4 c0 -4.3 -1.7 -5.3 -4 -2.5 -1.6 1.9 0.2 6.5 2.5 6.5 1.1 0 1.5 -1.1 1.5 -4z m26.8 -0.2 c-0.4 -4.9 -2.3 -6 -3.9 -2.4 -1 2.2 -0.9 2.9 0.6 4.6 2.7 3 3.6 2.4 3.3 -2.2z m-39 1.2 c2 -1.6 2.1 -2.2 1 -3.9 -2.3 -3.8 -4.7 -1.6 -4.8 4.2 0 2.2 0.9 2.1 3.8 -0.3z m34.5 -6.6 c3.3 -4 3.1 -5.3 -1.1 -8.3 l-3 -2.1 -3.3 4.1 -3.3 4.2 3.4 2.8 c1.9 1.6 3.7 2.9 4 2.9 0.3 0 1.8 -1.6 3.3 -3.6z m-26.2 0.5 c1.6 -1.1 2.9 -2.5 2.9 -3 0 -1.6 -5.1 -7.9 -6.4 -7.9 -1.2 0 -6.6 4.7 -6.6 5.7 0 0.8 6.1 7.3 6.8 7.3 0.2 0 1.7 -0.9 3.3 -2.1z m18.9 -10 c0.9 -1.6 0.8 -2.5 -0.6 -4 -2.2 -2.5 -3.4 -1.6 -3.4 2.7 0 3.9 2.2 4.7 4 1.3z m-15 -2.4 c0 -3.7 -1.8 -4.7 -3.9 -2.1 -0.9 1.1 -1 2 -0.1 3.5 1.8 3.4 4 2.6 4 -1.4z m24 -0.5 c0 -3.3 -1.1 -3.8 -3 -1.5 -1 1.2 -1 1.8 0 3 1.9 2.3 3 1.8 3 -1.5z m-34.1 1.1 c1.6 -1 0.5 -5.4 -1.2 -4.8 -1.4 0.4 -2.3 5.7 -1 5.7 0.4 0 1.4 -0.4 2.2 -0.9z m30.6 -4.8 c3.1 -3.6 3 -4.3 -0.7 -7.2 l-3.1 -2.5 -2.3 3 c-1.3 1.6 -2.4 3.3 -2.4 3.9 0 0.8 4.8 5.3 5.8 5.5 0.2 0 1.4 -1.2 2.7 -2.7z m-23.1 -0.7 l2.9 -2.4 -2.4 -3.1 c-2.9 -3.6 -3.6 -3.7 -7.3 -0.7 l-2.9 2.4 2.4 3.1 c2.9 3.6 3.6 3.7 7.3 0.7z m16.6 -8.1 c1.4 -1.6 0.6 -3.5 -1.6 -3.5 -0.8 0 -1.4 1 -1.4 2.5 0 2.8 1.2 3.2 3 1z m-14 -2 c0 -2.7 -1.2 -3.2 -2.9 -1.2 -0.8 1 -0.7 1.7 0.1 2.5 1.9 1.9 2.8 1.4 2.8 -1.3z m-7.6 -1.6 c-1 -1.6 -2.4 -0.9 -2.4 1.2 0 1.8 0.2 1.9 1.5 0.9 0.8 -0.7 1.2 -1.6 0.9 -2.1z m29.6 1.1 c0 -2.3 -2.5 -2.7 -3.3 -0.6 -0.7 1.6 0.1 2.6 2 2.6 0.7 0 1.3 -0.9 1.3 -2z m-3 -2.7 c1.1 -1 2 -2.2 2 -2.8 0 -1.4 -3.7 -4.5 -5.3 -4.5 -0.8 0 -2 1.1 -2.7 2.5 -1.2 2.2 -1.1 2.7 0.5 4.5 2.2 2.4 2.9 2.5 5.5 0.3z m-20.9 -1.2 l2.4 -2 -2.7 -2.8 -2.8 -2.7 -2.2 2.1 c-1.9 1.9 -2 2.6 -1 4.8 1.4 3 3.2 3.2 6.3 0.6z m15.9 -7.7 c0 -0.8 -0.7 -1.4 -1.5 -1.4 -1.5 0 -2.1 2.1 -0.9 3.3 1 0.9 2.4 -0.2 2.4 -1.9z m-14 -0.4 c0 -1.1 -0.7 -2 -1.5 -2 -1.5 0 -2.1 2.1 -0.8 3.3 1.2 1.3 2.3 0.7 2.3 -1.3z m20 0.5 c0 -0.8 -0.7 -1.5 -1.5 -1.5 -1.6 0 -2 1.2 -0.8 2.3 1.1 1.2 2.3 0.8 2.3 -0.8z m-26 -1 c0 -0.8 -0.4 -1.5 -0.9 -1.5 -1.3 0 -2.2 1.6 -1.4 2.4 1.1 1.1 2.3 0.6 2.3 -0.9z m24 -2.5 c0.7 -1.3 0.7 -2.6 0.2 -3.7 -0.5 -0.9 -0.7 -2.4 -0.5 -3.4 0.3 -1.1 0 -1.9 -0.7 -1.9 -1 0 -1 -0.3 0 -1.5 1 -1.2 1 -1.8 0 -3 -1.7 -2.1 -3.7 -1.9 -5 0.4 -0.8 1.6 -0.5 2.3 1.6 4 l2.6 2.1 -2.3 1.9 c-2.2 1.7 -2.2 2.1 -1 4.5 1.7 3.1 3.6 3.3 5.1 0.6z m-19.7 -0.4 c2.3 -1.8 2.1 -2.5 -1.3 -6.5 -2.5 -2.9 -3 -3.2 -3.6 -1.7 -0.4 0.9 -0.4 2 0 2.3 0.3 0.3 0.1 1.2 -0.5 2 -0.9 1 -0.8 1.8 0.6 3.3 2.1 2.3 2.4 2.4 4.8 0.6z m15.7 -6.7 c0 -0.5 -0.7 -0.9 -1.5 -0.9 -1.5 0 -2 1.2 -0.9 2.3 0.8 0.8 2.4 -0.1 2.4 -1.4z m-13.8 -0.4 c0 -0.5 -0.5 -1.1 -1.1 -1.3 -0.6 -0.2 -1.1 0.4 -1.1 1.3 0 0.9 0.5 1.5 1.1 1.3 0.6 -0.2 1.1 -0.8 1.1 -1.3z m-1.8 -2.1 c2 -0.8 2.1 -3.8 0.1 -5.4 -2.9 -2.4 -6 2.1 -3.3 4.8 1.4 1.4 1.2 1.4 3.2 0.6z m17.4 -9.8 c0.4 -1.7 -1.4 -4.6 -2.9 -4.6 -1.4 0 -2.1 4.1 -0.8 5.6 1.5 1.8 3.3 1.3 3.7 -1z m-15.9 0 c1.3 -1.6 0.4 -4.6 -1.4 -4.6 -1.9 0 -3.6 2.5 -2.9 4.4 0.8 2 2.8 2.1 4.3 0.2z m14.8 -7.2 c0.1 -0.5 -0.2 -1.6 -0.7 -2.4 -1.2 -2 -3.5 0.2 -2.6 2.5 0.6 1.7 2.7 1.6 3.3 -0.1z m-14.2 -0.4 c0.4 -0.6 0.1 -1.8 -0.6 -2.6 -1.1 -1.3 -1.4 -1.3 -2.7 0 -0.8 0.8 -1.1 1.9 -0.8 2.5 0.9 1.4 3.3 1.4 4.1 0.1z m0.1 -9.8 c0.1 -2.9 -0.2 -4.2 -1.1 -4.2 -1.4 0 -2.7 5.2 -1.8 7.5 1 2.8 2.7 1 2.9 -3.3z m13.4 2.7 c0 -2.4 -2.3 -2.1 -2.8 0.4 -0.2 1 0.3 1.7 1.2 1.7 1 0 1.6 -0.9 1.6 -2.1z m-0.2 -4.6 c-0.4 -2.2 -2.2 -2 -2.6 0.1 -0.2 1 0.3 1.6 1.3 1.6 1 0 1.5 -0.7 1.3 -1.7z m-13.7 -4.6 c-0.1 -1.2 -1.5 -0.9 -1.9 0.4 -0.3 0.6 0.1 1 0.8 0.8 0.6 -0.3 1.1 -0.8 1.1 -1.2z"/>
  <path d="M410 460.7 c-25.1 -12.5 -51.4 -31.9 -67.4 -49.6 -1.7 -1.9 -4.6 -5 -6.5 -7 -5.6 -6 -23.1 -30.1 -23.1 -31.8 0 -0.4 -0.6 -1.4 -1.4 -2.2 -2.4 -2.7 -13.3 -24.9 -17 -34.5 -12 -31.8 -16 -53 -16 -85.6 0 -27.4 2.9 -47 10.5 -71 6.3 -19.6 17.8 -43.4 29.4 -60.6 29.1 -43.2 74.5 -77.2 123.5 -92.6 21.6 -6.8 39.5 -9.6 65 -10.4 15.2 -0.5 21.4 -0.2 34.6 1.5 24.3 3 41.9 7.8 63.9 17.4 10.8 4.6 17.3 7.9 27.5 13.9 4.8 2.7 22.7 15.3 27.5 19.2 31.2 25.7 57.3 61.7 71 98.1 5.2 13.7 7.9 23.4 11.7 41 3.1 14.8 3.1 15.4 3.1 43 0 27.5 0 28.3 -3.1 43 -4.9 23.3 -8.5 35 -16.5 53 -3.3 7.3 -10.3 20.9 -12.7 24.5 -0.5 0.8 -1.7 2.8 -2.6 4.4 -3 5.4 -16.3 23.1 -22.5 30.1 -23.4 26.1 -50.6 46.1 -82.3 60.4 -5.1 2.3 -6.5 1.9 -6.6 -2 0 -0.9 -0.8 -4 -1.8 -7 -1.1 -3 -2.1 -7 -2.5 -9 l-0.5 -3.7 11.3 -5.7 c29.3 -14.5 54.5 -35.7 75.3 -63 11.3 -14.9 23.8 -39.1 30.1 -58.5 3.7 -11.3 7.6 -28.2 9.2 -40.5 1.8 -13.4 1.6 -40.2 -0.4 -54.7 -7.5 -53.2 -35.2 -101.8 -77.2 -135.3 -8.1 -6.5 -25.7 -18.5 -27 -18.5 -0.3 0 -2.2 -1 -4.3 -2.3 -12.6 -7.7 -38.5 -17 -59.7 -21.5 -12.2 -2.5 -14.5 -2.7 -39 -2.7 -21 0 -27.9 0.4 -36 1.8 -10.6 2 -24.7 5.7 -33 8.7 -2.7 0.9 -7.1 2.5 -9.7 3.5 -14.7 5.2 -39.7 20.1 -55.8 33.1 -2 1.6 -26.9 26.5 -28.4 28.4 -22.7 28.3 -36.7 58.3 -44.2 94.6 -2.5 12 -2.7 14.7 -2.7 38.9 -0.1 24.5 0.1 26.7 2.6 39 5.1 24.3 10.5 39.6 20.9 59.5 16 30.5 41 58 70.8 77.7 8.5 5.7 9.9 6.4 23.1 12.9 l9.6 4.8 -1.4 5 c-3.7 13.4 -5.4 18.6 -6.1 18.6 -0.4 -0.1 -6.3 -2.9 -13.2 -6.3z"/>
  <path d="M449 350.3 c-34.7 -22.6 -55 -59.6 -55 -100.1 0 -58.4 40.5 -107 98 -117.7 40.4 -7.6 85.4 8.7 111 40 13.7 16.7 20.2 29.5 25.5 49.9 2.2 8.7 2.5 11.8 2.5 27.1 0 15.7 -0.3 18.3 -2.8 28.1 -3.6 13.9 -9.1 26.7 -16.1 37.4 -6.8 10.6 -22.9 26.8 -33.6 33.9 l-7.9 5.3 -2.4 -7.7 c-2.6 -8.7 -3 -7.8 5.3 -13.2 10.2 -6.6 24.8 -24 31.8 -37.9 6.4 -12.7 10.7 -31.1 10.7 -45.9 0 -20.4 -7.7 -44.3 -19.5 -60 -15.5 -20.8 -34.3 -33.6 -59 -40 -8.3 -2.1 -11.9 -2.5 -24.9 -2.5 -10.8 0 -16.9 0.5 -21.1 1.6 -3.3 0.9 -7.7 2 -9.7 2.5 -5.4 1.3 -20.3 8.5 -27.3 13.2 -20.1 13.5 -35.9 36.5 -41.9 60.9 -2.2 8.7 -2.6 12.6 -2.6 24.9 0 17.8 2.4 28.5 9.9 44.2 7.2 15.3 18 28.3 32.4 39 3.7 2.7 6.7 5.5 6.7 6.2 0 1.3 -3.9 14.5 -4.3 14.4 -0.1 0 -2.7 -1.6 -5.7 -3.6z"/>
  <path d="M552.6 290.7 c-1 -3.8 -0.7 -7.4 0.9 -8.7 4.8 -4 10.4 -18.5 11.2 -29.1 0.7 -9.6 -0.7 -16 -5.9 -26.7 -8.5 -17.5 -26.1 -28.3 -46.2 -28.3 -23.7 0 -44.8 16.4 -50.2 39.1 -3.7 15.2 -0.1 32.8 8.9 44.2 2.7 3.4 2.8 3.9 1.7 7.4 l-1.3 3.8 -3.9 -4.4 c-4.8 -5.5 -7.6 -10.6 -10.8 -19 -2.2 -5.7 -2.5 -8 -2.4 -19.5 0 -11.6 0.3 -13.7 2.6 -19.7 5.2 -13 13.4 -23.3 24.5 -30.4 2.9 -1.9 5.7 -3.4 6.2 -3.4 0.5 0 3 -1 5.7 -2.2 4.4 -2 6.5 -2.3 18.9 -2.2 12.3 0 14.7 0.3 20 2.4 20.1 7.9 33.7 23.7 37.9 44.2 2 9.7 2 12.7 0 23 -1.9 9.6 -6.6 19.3 -12.9 26.6 -3.9 4.7 -4.3 4.9 -4.9 2.9z"/>
 </g>
</svg>