<?xml version="1.0" encoding="utf-8"?>
<!DOCTYPE svg PUBLIC "-//W3C//DTD SVG 1.0//EN" "http://www.w3.org/TR/2001/REC-SVG-20010904/DTD/svg10.dtd">
<svg version="1.0" xmlns="http://www.w3.org/2000/svg" width="900px" height="440px" viewBox="0 0 900 440" preserveAspectRatio="xMidYMid meet">
 <g fill="#c30505">
  <path d="M268 389.50 c0 -0.25 -1.10 -0.50 -2.50 -0.50 -1.35 0 -2.50 -0.20 -2.50 -0.50 0 -0.25 -0.90 -0.50 -2 -0.50 -1.10 0 -2 -0.20 -2 -0.50 0 -0.25 -0.90 -0.50 -2 -0.50 -1.10 0 -2 -0.20 -2 -0.50 0 -0.25 -0.90 -0.50 -2 -0.50 -1.10 0 -2 -0.20 -2 -0.50 0 -0.25 -0.65 -0.50 -1.50 -0.50 -0.80 0 -1.50 -0.20 -1.50 -0.50 0 -0.25 -0.90 -0.50 -2 -0.50 -1.10 0 -2 -0.20 -2 -0.50 0 -0.25 -0.65 -0.50 -1.50 -0.50 -0.80 0 -1.50 -0.20 -1.50 -0.50 0 -0.25 -0.90 -0.50 -2 -0.50 -1.10 0 -2 -0.20 -2 -0.50 0 -0.25 -0.65 -0.50 -1.50 -0.50 -0.80 0 -1.50 -0.20 -1.50 -0.50 0 -0.25 -0.45 -0.50 -1 -0.50 -0.55 0 -1 -0.20 -1 -0.50 0 -0.25 -0.65 -0.50 -1.50 -0.50 -0.80 0 -1.50 -0.20 -1.50 -0.50 0 -0.25 -0.45 -0.50 -1 -0.50 -0.55 0 -1 -0.20 -1 -0.50 0 -0.25 -0.45 -0.50 -1 -0.50 -0.55 0 -1 -0.20 -1 -0.50 0 -0.25 -0.45 -0.50 -1 -0.50 -0.55 0 -1 -0.20 -1 -0.50 0 -0.25 -0.45 -0.50 -1 -0.50 -0.55 0 -1 -0.20 -1 -0.50 0 -0.25 -0.40 -0.50 -0.90 -0.50 -0.50 0 -1.20 -0.45 -1.60 -1 -0.40 -0.55 -1.05 -1 -1.50 -1 -0.45 0 -1.10 -0.45 -1.50 -1 -0.40 -0.55 -1 -1 -1.35 -1 -0.80 0 -11.15 -10.25 -11.15 -11.05 0 -0.30 -0.65 -1.20 -1.50 -1.95 -0.80 -0.75 -1.50 -1.70 -1.50 -2.10 0 -0.35 -0.45 -1 -1 -1.40 -0.55 -0.40 -1 -1.10 -1 -1.60 0 -0.50 -0.20 -0.90 -0.50 -0.90 -0.25 0 -0.50 -0.45 -0.50 -1 0 -0.55 -0.20 -1 -0.50 -1 -0.25 0 -0.50 -0.45 -0.50 -1 0 -0.55 -0.20 -1 -0.50 -1 -0.25 0 -0.50 -0.45 -0.50 -1 0 -0.55 -0.20 -1 -0.50 -1 -0.25 0 -0.50 -0.65 -0.50 -1.50 0 -0.80 -0.20 -1.50 -0.50 -1.50 -0.25 0 -0.50 -0.45 -0.50 -1 0 -0.55 -0.20 -1 -0.50 -1 -0.25 0 -0.50 -0.90 -0.50 -2 0 -1.10 -0.20 -2 -0.50 -2 -0.25 0 -0.50 -0.65 -0.50 -1.50 0 -0.80 -0.20 -1.50 -0.50 -1.50 -0.25 0 -0.50 -0.90 -0.50 -2 0 -1.10 -0.20 -2 -0.50 -2 -0.25 0 -0.50 -1.10 -0.50 -2.50 0 -1.35 -0.20 -2.50 -0.50 -2.50 -0.25 0 -0.50 -0.90 -0.50 -2 0 -1.10 -0.20 -2 -0.50 -2 -0.30 0 -0.50 -1.35 -0.50 -3 0 -1.65 -0.20 -3 -0.50 -3 -0.30 0 -0.50 -1.35 -0.50 -3 0 -1.65 -0.20 -3 -0.50 -3 -0.35 0 -0.50 -31 -0.50 -92 0 -61 0.15 -92 0.50 -92 0.30 0 0.50 -1.65 0.50 -4 0 -2.35 0.20 -4 0.50 -4 0.30 0 0.50 -1.10 0.50 -2.50 0 -1.35 0.25 -2.50 0.50 -2.50 0.30 0 0.50 -1.10 0.50 -2.50 0 -1.35 0.25 -2.50 0.50 -2.50 0.30 0 0.50 -0.90 0.50 -2 0 -1.10 0.25 -2 0.50 -2 0.30 0 0.50 -0.45 0.50 -1 0 -0.55 0.25 -1 0.50 -1 0.30 0 0.50 -0.65 0.50 -1.50 0 -0.80 0.25 -1.50 0.50 -1.50 0.30 0 0.50 -0.65 0.50 -1.50 0 -0.80 0.25 -1.50 0.50 -1.50 0.30 0 0.50 -0.90 0.50 -2 0 -1.10 0.25 -2 0.50 -2 0.30 0 0.50 -0.45 0.50 -1 0 -0.55 0.25 -1 0.50 -1 0.30 0 0.50 -0.65 0.50 -1.50 0 -0.80 0.25 -1.50 0.50 -1.50 0.30 0 0.50 -0.45 0.50 -1 0 -0.55 0.25 -1 0.50 -1 0.30 0 0.50 -0.45 0.50 -1 0 -0.55 0.25 -1 0.50 -1 0.30 0 0.50 -0.45 0.50 -1 0 -0.55 0.25 -1 0.50 -1 0.30 0 0.50 -0.45 0.50 -1 0 -0.55 0.25 -1 0.50 -1 0.30 0 0.50 -0.45 0.50 -1 0 -0.55 0.25 -1 0.50 -1 0.30 0 0.50 -0.40 0.50 -0.90 0 -0.50 0.45 -1.20 1 -1.60 0.55 -0.40 1 -1.05 1 -1.50 0 -0.45 0.45 -1.10 1 -1.50 0.55 -0.40 1 -1.05 1 -1.40 0 -0.35 0.90 -1.55 2 -2.60 1.10 -1.05 2 -2.15 2 -2.45 0 -0.75 5.30 -6.05 6 -6.05 0.30 0 1.65 -1.10 3 -2.50 1.35 -1.35 2.80 -2.50 3.20 -2.50 0.45 0 0.80 -0.20 0.80 -0.50 0 -0.25 0.40 -0.50 0.90 -0.50 0.50 0 1.20 -0.45 1.60 -1 0.40 -0.55 1.05 -1 1.50 -1 0.45 0 1.10 -0.45 1.50 -1 0.40 -0.55 1.10 -1 1.60 -1 0.50 0 0.90 -0.20 0.90 -0.50 0 -0.25 0.70 -0.50 1.50 -0.50 0.85 0 1.50 -0.20 1.50 -0.50 0 -0.25 0.45 -0.50 1 -0.50 0.55 0 1 -0.20 1 -0.50 0 -0.25 0.45 -0.50 1 -0.50 0.55 0 1 -0.20 1 -0.50 0 -0.25 0.70 -0.50 1.50 -0.50 0.85 0 1.50 -0.20 1.50 -0.50 0 -0.25 0.45 -0.50 1 -0.50 0.55 0 1 -0.20 1 -0.50 0 -0.25 0.70 -0.50 1.50 -0.50 0.85 0 1.50 -0.20 1.50 -0.50 0 -0.25 0.70 -0.50 1.50 -0.50 0.85 0 1.50 -0.20 1.50 -0.50 0 -0.25 0.90 -0.50 2 -0.50 1.10 0 2 -0.20 2 -0.50 0 -0.25 0.70 -0.50 1.50 -0.50 0.85 0 1.50 -0.20 1.50 -0.50 0 -0.25 1.15 -0.50 2.50 -0.50 1.40 0 2.50 -0.20 2.50 -0.50 0 -0.25 1.15 -0.50 2.50 -0.50 1.40 0 2.50 -0.20 2.50 -0.50 0 -0.30 1.65 -0.50 4 -0.50 2.35 0 4 -0.20 4 -0.50 0 -0.35 57.35 -0.50 171 -0.50 113.65 0 171 0.15 171 0.50 0 0.30 1.65 0.50 4 0.50 2.35 0 4 0.20 4 0.50 0 0.30 1.15 0.50 2.50 0.50 1.40 0 2.50 0.25 2.50 0.50 0 0.30 1.15 0.50 2.50 0.50 1.40 0 2.50 0.25 2.50 0.50 0 0.30 0.90 0.50 2 0.50 1.10 0 2 0.25 2 0.50 0 0.30 0.90 0.50 2 0.50 1.10 0 2 0.25 2 0.50 0 0.30 0.90 0.50 2 0.50 1.10 0 2 0.25 2 0.50 0 0.30 0.70 0.50 1.50 0.50 0.85 0 1.50 0.25 1.50 0.50 0 0.30 0.45 0.50 1 0.50 0.55 0 1 0.25 1 0.50 0 0.30 0.70 0.50 1.50 0.50 0.85 0 1.50 0.25 1.50 0.50 0 0.30 0.45 0.50 1 0.50 0.55 0 1 0.25 1 0.50 0 0.30 0.45 0.50 1 0.50 0.55 0 1 0.25 1 0.50 0 0.30 0.45 0.50 1 0.50 0.55 0 1 0.25 1 0.50 0 0.30 0.45 0.50 1 0.50 0.55 0 1 0.25 1 0.50 0 0.30 0.45 0.50 1 0.50 0.55 0 1 0.25 1 0.50 0 0.30 0.40 0.50 0.90 0.50 0.50 0 1.20 0.45 1.60 1 0.40 0.55 1.05 1 1.40 1 0.40 0 1.35 0.70 2.10 1.50 0.75 0.85 1.65 1.50 1.95 1.50 0.75 0 9.05 8.30 9.05 9.05 0 0.30 0.70 1.20 1.50 1.95 0.85 0.75 1.50 1.70 1.50 2.10 0 0.35 0.45 1 1 1.40 0.55 0.40 1 1.10 1 1.60 0 0.50 0.25 0.90 0.50 0.90 0.30 0 0.50 0.40 0.50 0.90 0 0.50 0.45 1.20 1 1.60 0.55 0.40 1 1.10 1 1.60 0 0.50 0.25 0.90 0.50 0.90 0.30 0 0.50 0.70 0.50 1.50 0 0.85 0.25 1.50 0.50 1.50 0.30 0 0.50 0.45 0.50 1 0 0.55 0.25 1 0.50 1 0.30 0 0.50 0.70 0.50 1.50 0 0.85 0.25 1.50 0.50 1.50 0.30 0 0.50 0.70 0.50 1.50 0 0.85 0.25 1.50 0.50 1.50 0.30 0 0.50 0.70 0.50 1.50 0 0.85 0.25 1.50 0.50 1.50 0.30 0 0.50 0.70 0.50 1.50 0 0.85 0.25 1.50 0.50 1.50 0.30 0 0.50 0.90 0.50 2 0 1.10 0.25 2 0.50 2 0.30 0 0.50 0.90 0.50 2 0 1.10 0.25 2 0.50 2 0.30 0 0.50 1.15 0.50 2.50 0 1.40 0.25 2.50 0.50 2.50 0.30 0 0.50 1.15 0.50 2.50 0 1.40 0.25 2.50 0.50 2.50 0.35 0 0.50 36 0.50 107 0 71 -0.15 107 -0.50 107 -0.30 0 -0.50 1.35 -0.50 3 0 1.65 -0.20 3 -0.50 3 -0.25 0 -0.50 0.90 -0.50 2 0 1.10 -0.20 2 -0.50 2 -0.25 0 -0.50 0.70 -0.50 1.50 0 0.85 -0.20 1.50 -0.50 1.50 -0.25 0 -0.50 0.65 -0.50 1.40 0 0.80 -0.40 1.70 -1 2.10 -0.55 0.40 -1 1.10 -1 1.60 0 0.50 -0.20 0.90 -0.50 0.90 -0.25 0 -0.50 0.45 -0.50 1 0 0.55 -0.20 1 -0.50 1 -0.25 0 -0.50 0.45 -0.50 1 0 0.55 -0.20 1 -0.50 1 -0.25 0 -0.50 0.45 -0.50 1 0 0.55 -0.20 1 -0.50 1 -0.25 0 -0.50 0.45 -0.50 1 0 0.55 -0.20 1 -0.50 1 -0.25 0 -0.50 0.35 -0.50 0.80 0 0.45 -0.70 1.45 -1.50 2.20 -0.85 0.75 -1.50 1.65 -1.50 1.95 0 0.75 -10.30 11.05 -11.05 11.05 -0.30 0 -1.20 0.70 -1.95 1.50 -0.75 0.85 -1.75 1.50 -2.20 1.50 -0.45 0 -0.80 0.25 -0.80 0.50 0 0.30 -0.40 0.50 -0.90 0.50 -0.50 0 -1.20 0.45 -1.60 1 -0.40 0.55 -1.10 1 -1.60 1 -0.50 0 -0.90 0.25 -0.90 0.50 0 0.30 -0.45 0.50 -1 0.50 -0.55 0 -1 0.25 -1 0.50 0 0.30 -0.45 0.50 -1 0.50 -0.55 0 -1 0.25 -1 0.50 0 0.30 -0.45 0.50 -1 0.50 -0.55 0 -1 0.25 -1 0.50 0 0.30 -0.45 0.50 -1 0.50 -0.55 0 -1 0.25 -1 0.50 0 0.30 -0.65 0.50 -1.50 0.50 -0.80 0 -1.50 0.25 -1.50 0.50 0 0.30 -0.45 0.50 -1 0.50 -0.55 0 -1 0.25 -1 0.50 0 0.30 -0.65 0.50 -1.50 0.50 -0.80 0 -1.50 0.25 -1.50 0.50 0 0.30 -0.90 0.50 -2 0.50 -1.10 0 -2 0.25 -2 0.50 0 0.30 -0.65 0.50 -1.50 0.50 -0.80 0 -1.50 0.25 -1.50 0.50 0 0.30 -0.85 0.50 -1.90 0.50 -1.30 0 -2.10 0.30 -2.60 1 -0.50 0.70 -1.30 1 -2.60 1 -1.05 0 -1.90 0.25 -1.90 0.50 0 0.30 -1.10 0.50 -2.50 0.50 -1.35 0 -2.50 0.25 -2.50 0.50 0 0.30 -1.35 0.50 -3 0.50 -1.65 0 -3 0.20 -3 0.50 0 0.30 -1.65 0.50 -4 0.50 -2.35 0 -4 0.20 -4 0.50 0 0.35 -57.85 0.50 -172.50 0.50 -114.65 0 -172.50 -0.15 -172.50 -0.50z m123 -106 c0 -0.25 0.45 -0.50 1 -0.50 0.55 0 1 -0.20 1 -0.50 0 -0.25 0.70 -0.50 1.50 -0.50 0.85 0 1.50 -0.20 1.50 -0.50 0 -0.25 0.45 -0.50 1 -0.50 0.55 0 1 -0.20 1 -0.50 0 -0.25 0.45 -0.50 1 -0.50 0.55 0 1 -0.20 1 -0.50 0 -0.25 0.45 -0.50 1 -0.50 0.55 0 1 -0.20 1 -0.50 0 -0.25 0.45 -0.50 1 -0.50 0.55 0 1 -0.20 1 -0.50 0 -0.25 0.45 -0.50 1 -0.50 0.55 0 1 -0.20 1 -0.50 0 -0.25 0.70 -0.50 1.50 -0.50 0.85 0 1.50 -0.20 1.50 -0.50 0 -0.25 0.45 -0.50 1 -0.50 0.55 0 1 -0.20 1 -0.50 0 -0.25 0.45 -0.50 1 -0.50 0.55 0 1 -0.20 1 -0.50 0 -0.25 0.45 -0.50 1 -0.50 0.55 0 1 -0.20 1 -0.50 0 -0.25 0.45 -0.50 1 -0.50 0.55 0 1 -0.20 1 -0.50 0 -0.25 0.45 -0.50 1 -0.50 0.55 0 1 -0.20 1 -0.50 0 -0.25 0.70 -0.50 1.50 -0.50 0.85 0 1.50 -0.20 1.50 -0.50 0 -0.25 0.45 -0.50 1 -0.50 0.55 0 1 -0.20 1 -0.50 0 -0.25 0.45 -0.50 1 -0.50 0.55 0 1 -0.20 1 -0.50 0 -0.25 0.45 -0.50 1 -0.50 0.55 0 1 -0.20 1 -0.50 0 -0.25 0.45 -0.50 1 -0.50 0.55 0 1 -0.20 1 -0.50 0 -0.25 0.45 -0.50 1 -0.50 0.55 0 1 -0.20 1 -0.50 0 -0.25 0.70 -0.50 1.50 -0.50 0.85 0 1.50 -0.20 1.50 -0.50 0 -0.25 0.45 -0.50 1 -0.50 0.55 0 1 -0.20 1 -0.50 0 -0.25 0.45 -0.50 1 -0.50 0.55 0 1 -0.20 1 -0.50 0 -0.25 0.45 -0.50 1 -0.50 0.55 0 1 -0.20 1 -0.50 0 -0.25 0.45 -0.50 1 -0.50 0.55 0 1 -0.20 1 -0.50 0 -0.25 0.45 -0.50 1 -0.50 0.55 0 1 -0.20 1 -0.50 0 -0.25 0.70 -0.50 1.50 -0.50 0.85 0 1.50 -0.20 1.50 -0.50 0 -0.25 0.45 -0.50 1 -0.50 0.55 0 1 -0.20 1 -0.50 0 -0.25 0.45 -0.50 1 -0.50 0.55 0 1 -0.20 1 -0.50 0 -0.25 0.45 -0.50 1 -0.50 0.55 0 1 -0.20 1 -0.50 0 -0.25 0.45 -0.50 1 -0.50 0.55 0 1 -0.20 1 -0.50 0 -0.25 0.45 -0.50 1 -0.50 0.55 0 1 -0.20 1 -0.50 0 -0.25 0.70 -0.50 1.50 -0.50 0.85 0 1.50 -0.20 1.50 -0.50 0 -0.25 0.45 -0.50 1 -0.50 0.55 0 1 -0.20 1 -0.50 0 -0.25 0.45 -0.50 1 -0.50 0.55 0 1 -0.20 1 -0.50 0 -0.25 0.45 -0.50 1 -0.50 0.55 0 1 -0.20 1 -0.50 0 -0.25 0.45 -0.50 1 -0.50 0.55 0 1 -0.20 1 -0.50 0 -0.25 0.45 -0.50 1 -0.50 0.55 0 1 -0.20 1 -0.50 0 -0.25 0.70 -0.50 1.50 -0.50 0.85 0 1.50 -0.20 1.50 -0.50 0 -0.25 0.45 -0.50 1 -0.50 0.55 0 1 -0.20 1 -0.50 0 -0.25 0.45 -0.50 1 -0.50 0.55 0 1 -0.20 1 -0.50 0 -0.25 0.45 -0.50 1 -0.50 0.55 0 1 -0.20 1 -0.50 0 -0.25 0.45 -0.50 1 -0.50 0.55 0 1 -0.20 1 -0.50 0 -0.25 0.70 -0.50 1.50 -0.50 0.85 0 1.50 -0.20 1.50 -0.50 0 -0.25 0.45 -0.50 1 -0.50 0.55 0 1 -0.20 1 -0.50 0 -0.25 0.45 -0.50 1 -0.50 0.55 0 1 -0.20 1 -0.50 0 -0.25 0.45 -0.50 1 -0.50 0.55 0 1 -0.20 1 -0.50 0 -0.25 0.45 -0.50 1 -0.50 0.55 0 1 -0.20 1 -0.50 0 -0.25 0.45 -0.50 1 -0.50 0.55 0 1 -0.20 1 -0.50 0 -0.25 0.70 -0.50 1.50 -0.50 0.85 0 1.50 -0.20 1.50 -0.50 0 -0.25 0.45 -0.50 1 -0.50 0.55 0 1 -0.20 1 -0.50 0 -0.25 0.45 -0.50 1 -0.50 0.55 0 1 -0.20 1 -0.50 0 -0.25 0.45 -0.50 1 -0.50 0.55 0 1 -0.20 1 -0.50 0 -0.25 0.45 -0.50 1 -0.50 0.55 0 1 -0.20 1 -0.50 0 -0.25 0.45 -0.50 1 -0.50 0.55 0 1 -0.20 1 -0.50 0 -0.25 0.70 -0.50 1.50 -0.50 0.85 0 1.50 -0.20 1.50 -0.50 0 -0.25 0.45 -0.50 1 -0.50 0.55 0 1 -0.20 1 -0.50 0 -0.25 0.45 -0.50 1 -0.50 0.55 0 1 -0.20 1 -0.50 0 -0.25 0.45 -0.50 1 -0.50 0.55 0 1 -0.20 1 -0.50 0 -0.25 0.45 -0.50 1 -0.50 0.55 0 1 -0.20 1 -0.50 0 -0.25 0.45 -0.50 1 -0.50 0.55 0 1 -0.20 1 -0.50 0 -0.25 0.70 -0.50 1.50 -0.50 0.85 0 1.50 -0.20 1.50 -0.50 0 -0.25 0.45 -0.50 1 -0.50 0.55 0 1 -0.20 1 -0.50 0 -0.25 0.45 -0.50 1 -0.50 0.55 0 1 -0.20 1 -0.50 0 -0.25 0.45 -0.50 1 -0.50 0.55 0 1 -0.20 1 -0.50 0 -0.25 0.45 -0.50 1 -0.50 0.55 0 1 -0.20 1 -0.50 0 -0.25 0.45 -0.50 1 -0.50 0.55 0 1 -0.20 1 -0.50 0 -0.25 0.70 -0.50 1.50 -0.50 0.85 0 1.50 -0.20 1.50 -0.50 0 -0.25 0.45 -0.50 1 -0.50 0.55 0 1 -0.20 1 -0.50 0 -0.25 0.45 -0.50 1 -0.50 0.55 0 1 -0.20 1 -0.50 0 -0.25 0.45 -0.50 1 -0.50 0.55 0 1 -0.20 1 -0.50 0 -0.25 0.35 -0.50 0.80 -0.50 1.35 0 2.20 -1.35 2.20 -3.50 0 -2.15 -0.85 -3.50 -2.20 -3.50 -0.45 0 -0.80 -0.20 -0.80 -0.50 0 -0.25 -0.65 -0.50 -1.50 -0.50 -0.80 0 -1.50 -0.20 -1.50 -0.50 0 -0.25 -0.45 -0.50 -1 -0.50 -0.55 0 -1 -0.20 -1 -0.50 0 -0.25 -0.45 -0.50 -1 -0.50 -0.55 0 -1 -0.20 -1 -0.50 0 -0.25 -0.65 -0.50 -1.50 -0.50 -0.80 0 -1.50 -0.20 -1.50 -0.50 0 -0.25 -0.45 -0.50 -1 -0.50 -0.55 0 -1 -0.20 -1 -0.50 0 -0.25 -0.45 -0.50 -1 -0.50 -0.55 0 -1 -0.20 -1 -0.50 0 -0.25 -0.65 -0.50 -1.50 -0.50 -0.80 0 -1.50 -0.20 -1.50 -0.50 0 -0.25 -0.45 -0.50 -1 -0.50 -0.55 0 -1 -0.20 -1 -0.50 0 -0.25 -0.45 -0.50 -1 -0.50 -0.55 0 -1 -0.20 -1 -0.50 0 -0.25 -0.65 -0.50 -1.50 -0.50 -0.80 0 -1.50 -0.20 -1.50 -0.50 0 -0.25 -0.45 -0.50 -1 -0.50 -0.55 0 -1 -0.20 -1 -0.50 0 -0.25 -0.65 -0.50 -1.50 -0.50 -0.80 0 -1.50 -0.20 -1.50 -0.50 0 -0.25 -0.45 -0.50 -1 -0.50 -0.55 0 -1 -0.20 -1 -0.50 0 -0.25 -0.45 -0.50 -1 -0.50 -0.55 0 -1 -0.20 -1 -0.50 0 -0.25 -0.65 -0.50 -1.50 -0.50 -0.80 0 -1.50 -0.20 -1.50 -0.50 0 -0.25 -0.45 -0.50 -1 -0.50 -0.55 0 -1 -0.20 -1 -0.50 0 -0.25 -0.45 -0.50 -1 -0.50 -0.55 0 -1 -0.20 -1 -0.50 0 -0.25 -0.65 -0.50 -1.50 -0.50 -0.80 0 -1.50 -0.20 -1.50 -0.50 0 -0.25 -0.45 -0.50 -1 -0.50 -0.55 0 -1 -0.20 -1 -0.50 0 -0.25 -0.45 -0.50 -1 -0.50 -0.55 0 -1 -0.20 -1 -0.50 0 -0.25 -0.65 -0.50 -1.50 -0.50 -0.80 0 -1.50 -0.20 -1.50 -0.50 0 -0.25 -0.45 -0.50 -1 -0.50 -0.55 0 -1 -0.20 -1 -0.50 0 -0.25 -0.45 -0.50 -1 -0.50 -0.55 0 -1 -0.20 -1 -0.50 0 -0.25 -0.65 -0.50 -1.50 -0.50 -0.80 0 -1.50 -0.20 -1.50 -0.50 0 -0.25 -0.45 -0.50 -1 -0.50 -0.55 0 -1 -0.20 -1 -0.50 0 -0.25 -0.45 -0.50 -1 -0.50 -0.55 0 -1 -0.20 -1 -0.50 0 -0.25 -0.65 -0.50 -1.50 -0.50 -0.80 0 -1.50 -0.20 -1.50 -0.50 0 -0.25 -0.45 -0.50 -1 -0.50 -0.55 0 -1 -0.20 -1 -0.50 0 -0.25 -0.65 -0.50 -1.50 -0.50 -0.80 0 -1.50 -0.20 -1.50 -0.50 0 -0.25 -0.45 -0.50 -1 -0.50 -0.55 0 -1 -0.20 -1 -0.50 0 -0.25 -0.45 -0.50 -1 -0.50 -0.55 0 -1 -0.20 -1 -0.50 0 -0.25 -0.65 -0.50 -1.50 -0.50 -0.80 0 -1.50 -0.20 -1.50 -0.50 0 -0.25 -0.45 -0.50 -1 -0.50 -0.55 0 -1 -0.20 -1 -0.50 0 -0.25 -0.45 -0.50 -1 -0.50 -0.55 0 -1 -0.20 -1 -0.50 0 -0.25 -0.65 -0.50 -1.50 -0.50 -0.80 0 -1.50 -0.20 -1.50 -0.50 0 -0.25 -0.45 -0.50 -1 -0.50 -0.55 0 -1 -0.20 -1 -0.50 0 -0.25 -0.45 -0.50 -1 -0.50 -0.55 0 -1 -0.20 -1 -0.50 0 -0.25 -0.65 -0.50 -1.50 -0.50 -0.80 0 -1.50 -0.20 -1.50 -0.50 0 -0.25 -0.45 -0.50 -1 -0.50 -0.55 0 -1 -0.20 -1 -0.50 0 -0.25 -0.45 -0.50 -1 -0.50 -0.55 0 -1 -0.20 -1 -0.50 0 -0.25 -0.65 -0.50 -1.50 -0.50 -0.80 0 -1.50 -0.20 -1.50 -0.50 0 -0.25 -0.45 -0.50 -1 -0.50 -0.55 0 -1 -0.20 -1 -0.50 0 -0.25 -0.45 -0.50 -1 -0.50 -0.55 0 -1 -0.20 -1 -0.50 0 -0.25 -0.65 -0.50 -1.50 -0.50 -0.80 0 -1.50 -0.20 -1.50 -0.50 0 -0.25 -0.45 -0.50 -1 -0.50 -0.55 0 -1 -0.20 -1 -0.50 0 -0.25 -0.65 -0.50 -1.50 -0.50 -0.80 0 -1.50 -0.20 -1.50 -0.50 0 -0.25 -0.45 -0.50 -1 -0.50 -0.55 0 -1 -0.20 -1 -0.50 0 -0.25 -0.45 -0.50 -1 -0.50 -0.55 0 -1 -0.20 -1 -0.50 0 -0.25 -0.65 -0.50 -1.50 -0.50 -0.80 0 -1.50 -0.20 -1.50 -0.50 0 -0.25 -0.45 -0.50 -1 -0.50 -0.55 0 -1 -0.20 -1 -0.50 0 -0.25 -0.45 -0.50 -1 -0.50 -0.55 0 -1 -0.20 -1 -0.50 0 -0.25 -0.65 -0.50 -1.50 -0.50 -0.80 0 -1.50 -0.20 -1.50 -0.50 0 -0.25 -0.45 -0.50 -1 -0.50 -0.55 0 -1 -0.20 -1 -0.50 0 -0.25 -0.45 -0.50 -1 -0.50 -0.55 0 -1 -0.20 -1 -0.50 0 -0.25 -0.65 -0.50 -1.50 -0.50 -0.80 0 -1.50 -0.20 -1.50 -0.50 0 -0.25 -0.45 -0.50 -1 -0.50 -0.55 0 -1 -0.20 -1 -0.50 0 -0.25 -0.45 -0.50 -1 -0.50 -0.55 0 -1 -0.20 -1 -0.50 0 -0.25 -0.65 -0.50 -1.50 -0.50 -0.80 0 -1.50 -0.20 -1.50 -0.50 0 -0.25 -0.45 -0.50 -1 -0.50 -0.55 0 -1 -0.20 -1 -0.50 0 -0.25 -0.45 -0.50 -1 -0.50 -0.55 0 -1 -0.20 -1 -0.50 0 -0.25 -0.65 -0.50 -1.50 -0.50 -0.80 0 -1.50 -0.20 -1.50 -0.50 0 -0.25 -0.45 -0.50 -1 -0.50 -0.55 0 -1 -0.20 -1 -0.50 0 -0.25 -0.65 -0.50 -1.50 -0.50 -0.80 0 -1.50 -0.20 -1.50 -0.50 0 -0.25 -0.45 -0.50 -1 -0.50 -0.55 0 -1 -0.20 -1 -0.50 0 -1 -2.55 -0.50 -3.75 0.75 l-1.25 1.20 0 69.55 c0 54.90 0.15 69.70 0.65 70.25 0.70 0.80 3.35 1 3.35 0.25z"/>
 </g>
</svg>