<?xml version="1.0" encoding="utf-8"?>
<!DOCTYPE svg PUBLIC "-//W3C//DTD SVG 1.0//EN" "http://www.w3.org/TR/2001/REC-SVG-20010904/DTD/svg10.dtd">
<svg version="1.0" xmlns="http://www.w3.org/2000/svg" width="1920px" height="1920px" viewBox="0 0 1920 1920" preserveAspectRatio="xMidYMid meet">
 <g fill="#ff0000">
  <path d="M939.8 1366.5 c-0.4 -0.4 -23.1 -0.9 -50.5 -1.1 -87.9 -0.6 -151.3 -2.1 -232.3 -5.7 -80.7 -3.5 -170.2 -13.1 -184.5 -19.6 -1.1 -0.5 -4.5 -1.7 -7.5 -2.7 -21.5 -6.7 -44.1 -20.6 -60.9 -37.4 -7.5 -7.5 -17.1 -19.2 -17.1 -20.9 0 -0.6 -0.4 -1.1 -1 -1.1 -0.5 0 -1 -0.7 -1 -1.5 0 -0.8 -0.4 -1.5 -1 -1.5 -0.5 0 -1 -0.7 -1 -1.5 0 -0.8 -0.4 -1.5 -0.9 -1.5 -0.5 0 -1.5 -1.6 -2.1 -3.5 -0.6 -1.9 -1.5 -3.5 -1.9 -3.5 -0.4 0 -2 -2.8 -3.5 -6.2 -1.6 -3.5 -3.4 -7.4 -4.1 -8.8 -0.7 -1.4 -2 -5.4 -2.9 -8.9 -0.9 -3.6 -2 -6.9 -2.5 -7.5 -1.2 -1.5 -5.6 -20.4 -8.6 -37.1 -10.7 -59.7 -14.1 -126 -13.2 -258.8 0.5 -75 0.9 -89.8 3.7 -136.2 5.4 -88.8 15.1 -154.5 27.5 -185.3 13.9 -34.5 40.6 -63.2 74.5 -80.2 17.2 -8.6 36 -13.7 66 -17.9 175.7 -24.5 714.3 -24.5 890 0 30 4.2 48.8 9.3 66 17.9 33.9 17 60.6 45.7 74.5 80.2 12 30 21.5 92.4 27 177.3 3.6 57.2 4 73.5 4 167 0 113.4 -1 138.8 -8.1 195.5 -6.2 50.5 -13 79.9 -23.4 101.6 -5.2 10.7 -16.3 28.2 -18.6 29.1 -0.8 0.3 -1.4 1.1 -1.4 1.8 0 0.7 -1.5 2.5 -3.2 4 -1.8 1.5 -4 3.9 -4.9 5.3 -0.8 1.5 -2.7 3.3 -4.1 3.9 -1.4 0.7 -3.8 2.9 -5.2 4.8 -1.5 1.9 -3.3 3.5 -4.1 3.5 -0.8 0 -1.9 0.9 -2.5 2 -0.6 1.1 -1.5 2 -2.1 2 -0.5 0 -2 1.1 -3.3 2.5 -1.3 1.4 -2.8 2.5 -3.5 2.5 -0.6 0 -1.1 0.5 -1.1 1 0 0.6 -0.9 1 -2 1 -1.1 0 -2.3 0.7 -2.6 1.5 -0.4 0.8 -1.4 1.5 -2.5 1.5 -1 0 -2.2 0.6 -2.6 1.3 -0.9 1.5 -9.2 5.7 -11.2 5.7 -0.7 0 -2.5 0.6 -3.9 1.4 -4.7 2.4 -7.5 3.5 -15.2 5.7 -4.1 1.2 -7.7 2.6 -8 3 -2 2.9 -95.4 15 -106.9 13.7 -1.4 -0.1 -3.1 0.1 -3.6 0.4 -1 0.6 -9.4 1.2 -38.5 2.6 -4.7 0.3 -12.5 0.7 -17.5 1 -4.9 0.3 -13.3 0.6 -18.5 0.6 -5.2 0.1 -10.1 0.5 -10.8 1 -0.7 0.4 -6.1 0.8 -12 0.8 -5.9 0 -17 0.2 -24.7 0.5 -60.2 2.2 -113.7 3.4 -169.5 3.7 -20.6 0.1 -51.7 0.6 -69 1 -17.3 0.5 -31.8 0.5 -32.2 0.1z m-45.1 -289.9 c31.8 -18.3 81 -46.7 109.3 -63.1 28.3 -16.3 74.3 -42.8 102.2 -58.9 27.9 -16 50.7 -29.3 50.8 -29.6 0 -0.3 -50.3 -29.5 -111.7 -65 -61.5 -35.5 -133.4 -77 -159.8 -92.2 -26.4 -15.3 -48.3 -27.8 -48.7 -27.8 -0.5 0 -0.8 83.3 -0.8 185 0 101.8 0.2 185 0.5 185 0.2 0 26.4 -15 58.2 -33.4z"/>
 </g>
 <g fill="#ba0000">
  <path d="M880 1419.9 c-191.3 -2.2 -333.8 -10.4 -391.4 -22.5 -15.3 -3.3 -27.7 -7.4 -39.6 -13.4 -33.9 -17 -60.6 -45.7 -74.5 -80.2 -14.1 -35.2 -24.2 -111.4 -29.5 -223.3 -1.2 -24.4 -1.3 -35.1 -0.3 -34.2 0.3 0.4 0.7 4.6 0.9 9.4 0.4 11.2 1.7 29.9 3 44.3 0.3 3 0.7 8.1 1 11.2 1.2 14 1.4 16.6 1.9 21.3 0.7 6.4 1.3 11.9 2 17.2 0.3 2.4 0.8 6 1 8 0.5 4 1.1 8.3 2.1 14.8 0.3 2.2 0.8 5.4 1 7 0.2 1.7 0.7 4.6 1 6.5 0.3 1.9 0.7 4.4 0.8 5.5 0.2 1.1 0.6 2.7 0.9 3.5 0.3 0.8 0.6 2.2 0.6 3 0 0.8 0.3 2.6 0.6 4 0.6 3.1 1.6 8 1.9 10 0.1 0.9 0.5 2.1 1 2.8 0.4 0.6 0.5 1.6 0.1 2.1 -0.3 0.5 -0.1 1.2 0.4 1.6 0.5 0.3 1 1.3 1 2.3 0 1.6 0.6 5 1.2 6.2 0.1 0.3 0.3 1 0.4 1.5 0.1 0.6 0.5 1.7 0.8 2.5 1.8 4.1 3.5 10 3 10 -0.3 0 0 0.7 0.7 1.5 0.7 0.8 0.9 1.5 0.5 1.5 -0.3 0 0.3 1.5 1.4 3.3 1.1 1.9 1.8 3.7 1.4 4 -0.3 0.4 -0.1 0.7 0.5 0.7 0.7 0 1.1 0.3 0.9 0.8 -0.3 1.1 3.5 9.2 4.4 9.2 0.4 0 1.3 1.6 1.9 3.5 0.6 1.9 1.6 3.5 2.1 3.5 0.5 0 0.9 0.7 0.9 1.5 0 0.8 0.5 1.5 1 1.5 0.6 0 1 0.7 1 1.5 0 0.8 0.5 1.5 1 1.5 0.6 0 1 0.5 1 1.1 0 1.7 9.6 13.4 17.1 20.9 16.8 16.8 39.4 30.7 60.9 37.4 3 1 6.2 2 7 2.3 4.5 1.8 10.8 3.1 27 5.8 10.8 1.8 13 2.1 19.8 3 2.3 0.3 6.1 0.7 8.5 1 2.3 0.3 6.5 0.8 9.2 1.1 2.8 0.2 6.8 0.7 9 0.9 4.3 0.5 12.4 1.3 22 2 3.3 0.3 8.7 0.7 12 1 12.5 1.1 36.9 2.6 61.5 4 47.8 2.6 112.6 4.9 172 6 102.1 1.8 141.1 2 210.5 1.1 94.4 -1.3 125.1 -2 181 -4.1 7.7 -0.3 18.9 -0.5 24.8 -0.5 6.5 0.1 11.4 -0.3 12.2 -1 0.7 -0.6 5.3 -1 10.6 -1 5.2 0 13.5 -0.2 18.4 -0.5 5 -0.3 12.8 -0.7 17.5 -1 4.7 -0.3 12.1 -0.8 16.5 -1 4.4 -0.3 10.9 -0.5 14.4 -0.5 3.5 0 7 -0.5 7.7 -1.1 0.9 -0.7 3.3 -0.9 6.8 -0.5 3.7 0.5 5.6 0.4 6.1 -0.4 0.5 -0.8 2.4 -1 6 -0.5 3.6 0.4 5.5 0.2 6 -0.5 0.5 -0.8 2.3 -0.9 5.5 -0.5 3.2 0.4 5 0.3 5.5 -0.5 0.5 -0.8 2.2 -1 5.1 -0.5 3.1 0.4 4.4 0.3 4.4 -0.6 0 -0.8 1.3 -0.9 4.4 -0.5 2.9 0.5 4.7 0.3 5.1 -0.4 0.5 -0.7 2 -0.9 4 -0.6 2 0.4 3.6 0.2 4 -0.5 0.5 -0.6 2 -0.8 4 -0.5 2 0.4 3.6 0.2 4 -0.5 0.5 -0.6 2 -0.8 4.1 -0.4 2.3 0.4 3.4 0.2 3.4 -0.6 0 -0.7 1 -0.9 3 -0.6 1.9 0.4 3 0.2 3 -0.5 0 -0.6 1.1 -0.8 3 -0.4 1.9 0.3 3 0.1 3 -0.5 0 -0.7 1.1 -0.9 3 -0.5 1.9 0.3 3 0.1 3 -0.5 0 -0.7 1.1 -0.9 2.5 -0.7 1.4 0.3 2.5 0.1 2.5 -0.4 0 -0.6 1.1 -0.7 2.5 -0.4 1.6 0.4 2.5 0.2 2.5 -0.5 0 -0.6 0.9 -0.9 2 -0.6 1.1 0.3 2 0.2 2 -0.2 0 -0.4 3.7 -1.8 8.3 -3.1 8.6 -2.5 9.3 -2.7 14.4 -5.4 1.7 -0.9 3.7 -1.6 4.5 -1.6 2.1 0 10.9 -4.6 10.2 -5.3 -0.4 -0.4 0.7 -1 2.4 -1.3 1.8 -0.4 2.9 -1 2.6 -1.5 -0.3 -0.5 0.8 -1.2 2.5 -1.5 1.7 -0.4 2.8 -1 2.5 -1.5 -0.3 -0.5 0.4 -0.9 1.6 -0.9 1.2 0 1.8 -0.4 1.5 -1 -0.3 -0.5 0.1 -1 1 -1 0.8 0 1.8 -0.7 2.1 -1.5 0.4 -0.8 1.2 -1.5 2 -1.5 0.7 0 1.8 -0.9 2.4 -2 0.6 -1.1 1.7 -2 2.5 -2 0.7 0 2.8 -1.8 4.5 -4 1.7 -2.2 3.7 -4 4.4 -4 1.5 0 4.8 -3.4 4.1 -4.2 -0.3 -0.3 1.5 -2.2 4 -4.2 2.5 -2.1 4.3 -4.1 4 -4.6 -0.3 -0.4 0.7 -1.5 2.1 -2.5 1.4 -0.9 2.3 -1.9 2 -2.2 -0.3 -0.4 0.3 -1.3 1.4 -2 1.1 -0.8 1.8 -1.8 1.5 -2.3 -0.3 -0.4 0.2 -1.1 1.1 -1.4 0.8 -0.3 1.3 -1 1 -1.5 -0.3 -0.5 0.1 -1.2 1 -1.5 0.9 -0.4 1.4 -0.9 1.1 -1.2 -0.3 -0.3 0.3 -1.4 1.4 -2.5 1.1 -1.1 1.7 -2.4 1.4 -2.9 -0.4 -0.6 -0.1 -1 0.5 -1 0.6 0 0.8 -0.4 0.5 -1 -0.3 -0.5 -0.1 -1 0.4 -1 1.4 0 7.3 -11.8 6.6 -13 -0.4 -0.6 -0.1 -1 0.6 -1 0.7 0 1 -0.3 0.6 -0.6 -0.3 -0.4 0.1 -1.3 0.9 -2.1 0.8 -0.9 1.3 -2.2 1 -2.9 -0.3 -0.8 -0.1 -1.4 0.5 -1.4 0.6 0 0.9 -0.7 0.5 -1.5 -0.3 -0.8 -0.1 -1.5 0.5 -1.5 0.6 0 0.9 -0.7 0.5 -1.5 -0.3 -0.8 -0.1 -1.5 0.5 -1.5 0.6 0 0.9 -0.7 0.5 -1.5 -0.3 -0.8 -0.1 -1.5 0.5 -1.5 0.6 0 0.9 -0.7 0.5 -1.5 -0.3 -0.8 0 -1.5 0.5 -1.5 0.6 0 0.9 -0.9 0.6 -2 -0.3 -1.1 -0.1 -2 0.5 -2 0.6 0 0.8 -0.9 0.5 -2 -0.3 -1.1 -0.1 -2 0.5 -2 0.6 0 0.8 -0.9 0.5 -2 -0.3 -1.1 -0.1 -2 0.5 -2 0.6 0 0.8 -0.9 0.5 -2 -0.3 -1.1 -0.1 -2 0.5 -2 0.6 0 0.8 -1.1 0.6 -2.5 -0.3 -1.4 -0.1 -2.5 0.4 -2.5 0.6 0 0.7 -1.1 0.4 -2.5 -0.4 -1.6 -0.2 -2.5 0.5 -2.5 0.7 0 0.9 -0.9 0.5 -2.5 -0.4 -1.6 -0.2 -2.5 0.5 -2.5 0.7 0 0.9 -1 0.7 -2.5 -0.3 -1.4 -0.1 -2.5 0.5 -2.5 0.5 0 0.7 -1.3 0.4 -3 -0.4 -1.9 -0.2 -3 0.5 -3 0.6 0 0.8 -1.1 0.5 -3 -0.4 -1.9 -0.2 -3 0.5 -3 0.7 0 0.9 -1.3 0.5 -3.5 -0.4 -2.2 -0.2 -3.5 0.5 -3.5 0.7 0 0.8 -1.3 0.5 -3.5 -0.4 -2.2 -0.2 -3.5 0.5 -3.5 0.7 0 0.8 -1.3 0.5 -3.5 -0.4 -2.2 -0.2 -3.5 0.5 -3.5 0.7 0 0.8 -1.4 0.4 -4 -0.4 -2.7 -0.3 -4 0.5 -4 0.8 0 1 -1.4 0.6 -4 -0.3 -2.4 -0.1 -4 0.5 -4 0.7 0 0.8 -1.7 0.5 -4.5 -0.5 -3 -0.3 -4.5 0.4 -4.5 0.8 0 1 -1.6 0.7 -4.5 -0.3 -2.5 -0.1 -4.8 0.4 -5.2 0.6 -0.3 0.8 -2.6 0.5 -5.4 -0.4 -3.2 -0.2 -4.9 0.5 -4.9 0.7 0 0.9 -1.8 0.5 -5.5 -0.3 -3.1 -0.1 -5.7 0.4 -6.1 0.6 -0.3 1 -3.1 1 -6.2 0 -10.9 0.5 -18.7 1.3 -20.5 0.5 -1 0.6 -4.3 0.2 -7.4 -0.4 -3.7 -0.2 -6 0.5 -6.9 0.8 -1 1 -4 0.6 -9.4 -0.5 -6.7 -0.4 -8 0.8 -8 1.8 0 1.9 4.9 0.5 34.5 -5.3 111.9 -15.4 188.1 -29.5 223.3 -16.5 40.8 -51.7 74.2 -93.1 88 -39 13.1 -139.9 21.7 -307.4 26.2 -33.7 0.9 -192.8 3.2 -199 2.8 -1.4 -0.1 -31.1 -0.5 -66 -0.9z"/>
  <path d="M343.8 1039 c-0.4 -1.4 -0.7 -5 -0.7 -8 l0.1 -5.5 1 5.5 c0.5 3 0.7 6.6 0.6 8 l-0.3 2.5 -0.7 -2.5z"/>
  <path d="M1575.1 1038.4 c-0.1 -1.7 -0.4 -5.2 -0.7 -7.8 -0.6 -3.8 -0.4 -4.6 1 -4.6 1.3 0 1.6 1.1 1.5 5.8 0 6.3 -1.7 12.2 -1.8 6.6z"/>
  <path d="M1576.3 1015.5 c0 -2.7 0.2 -3.8 0.4 -2.2 0.2 1.5 0.2 3.7 0 5 -0.2 1.2 -0.4 0 -0.4 -2.8z"/>
  <path d="M343.3 1014.5 c0 -2.2 0.2 -3 0.4 -1.7 0.2 1.2 0.2 3 0 4 -0.3 0.9 -0.5 -0.1 -0.4 -2.3z"/>
 </g>
</svg>