<?xml version="1.0" encoding="utf-8"?>
<!DOCTYPE svg PUBLIC "-//W3C//DTD SVG 1.0//EN" "http://www.w3.org/TR/2001/REC-SVG-20010904/DTD/svg10.dtd">
<svg version="1.0" xmlns="http://www.w3.org/2000/svg" width="1200px" height="1200px" viewBox="0 0 1200 1200" preserveAspectRatio="xMidYMid meet">
 <g fill="#ff4a45">
  <path d="M361.5 1176.3 c-97.3 -6.2 -184.2 -48.4 -247.9 -120.3 -50.4 -56.9 -80.2 -124.5 -88.8 -201.5 -1.9 -17.7 -1.9 -491.3 0 -509 10.3 -91.6 51.5 -171.9 119.2 -231.9 56.9 -50.4 124.5 -80.2 201.5 -88.8 17.7 -1.9 491.3 -1.9 509 0 91.6 10.3 171.9 51.5 231.9 119.2 44.6 50.4 73.5 110.1 85 175.6 5.3 30.3 5.1 20.2 5.1 280.4 0 260.2 0.2 250.1 -5.1 280.4 -25.7 147 -142 264.1 -288.4 290.6 -31.8 5.7 -14.4 5.4 -276 5.5 -132.3 0.1 -242.7 0 -245.5 -0.2z m467.5 -79.6 c72.1 -10.9 129.9 -39.6 179 -88.7 47.8 -47.8 76.9 -105.4 88.2 -174.5 l2.2 -14 0.4 -211 c0.3 -219 0.3 -223.3 -3.9 -248.7 -13.5 -83.3 -62.7 -159.2 -133.9 -206.6 -45.1 -30.1 -92.3 -46.6 -145.8 -51.2 -8.8 -0.8 -77.2 -1 -223.7 -0.8 l-211 0.4 -14 2.2 c-69.4 11.3 -126.5 40.2 -174.5 88.2 -44 43.9 -73.1 98 -85 158 -5.7 28.8 -5.5 19.8 -5.5 251.5 0 200 0.1 214.8 1.8 226.5 5.2 36.3 13.4 64 28.2 94.8 15.9 32.9 34.4 59 60 84.7 36.7 36.8 79.2 62.6 128.5 77.8 21.3 6.6 48.2 11.7 69 13 3 0.2 100.7 0.3 217 0.2 195.4 -0.1 212.4 -0.2 223 -1.8z"/>
  <path d="M501.5 888.4 c-49.1 -0.6 -146.2 -2.6 -170.5 -3.4 -19.2 -0.6 -28 -1.4 -35.7 -2.9 -27.6 -5.7 -50.3 -18 -70.3 -38 -15.9 -15.9 -26.5 -33.3 -33.5 -54.4 -6.4 -19.7 -7.6 -35.9 -9.7 -133.1 -1.8 -84.7 1.3 -208.3 5.7 -230.1 10.9 -54.3 53.2 -97 107 -108 20.4 -4.2 112.3 -6 307 -6 149.5 0 227 1 277.1 3.5 31.9 1.6 51.8 7.6 74.5 22.5 30.1 19.7 51.6 51.6 58.9 87.3 8 39.6 8 308.9 -0.1 348.5 -9.9 49.1 -45.1 88.5 -92.2 103.6 -19.8 6.3 -29.5 7 -130.2 9.1 -49.6 1 -243.8 2 -288 1.4z m90.5 -205.1 c101.1 -58.3 138 -79.7 138 -80.3 -0.1 -0.3 -45.3 -26.6 -100.6 -58.4 -55.3 -31.9 -102.3 -59.1 -104.4 -60.4 l-4 -2.3 0 121.1 c0 115 0.1 121 1.8 120.1 0.9 -0.5 32.1 -18.4 69.2 -39.8z"/>
 </g>
</svg>