<svg id="svg" fill="#8991ae" stroke="#8991ae" width="391" height="391" version="1.1" viewBox="64 64 672 672" xmlns="http://www.w3.org/2000/svg">
    <g id="IconSvg_bgCarrier" stroke-width="0"></g>
    <g id="IconSvg_tracerCarrier" stroke-linecap="round" stroke-linejoin="round" stroke="#CCCCCC" stroke-width="0">
      <g xmlns="http://www.w3.org/2000/svg">
  <path d="m218.94 177.98v444.03c-0.015625 7.7852 6.2734 14.113 14.055 14.148h334c7.7812-0.035156 14.07-6.3633 14.055-14.148v-383.39l-1.1523-2.7812-70.848-70.848-2.7852-1.1562h-273.27c-7.7812 0.035156-14.07 6.3633-14.055 14.148zm348.68 56.703h-48.84c-4.4297-0.66406-7.9062-4.1406-8.5703-8.5703v-48.844zm-340.8-56.703c-0.019531-3.4375 2.7461-6.2461 6.1836-6.2734h269.34v54.406c0.3125 4.2578 2.1445 8.2578 5.1641 11.277 3.0156 3.0156 7.0195 4.8477 11.277 5.1641h54.406v379.46-0.003906c0.019531 3.4375-2.7461 6.2461-6.1836 6.2773h-334c-3.4375-0.03125-6.2031-2.8398-6.1836-6.2773z"></path>
  <path d="m281.92 478.72c6.5586 0.003906 12.828-2.7188 17.297-7.5234 4.4648-4.8047 6.7344-11.25 6.2578-17.793-0.48047-6.543-3.6602-12.59-8.7773-16.691l41.328-55.105c4.4141 2.293 9.4453 3.125 14.363 2.3789 4.918-0.75 9.4766-3.0391 13.012-6.5391l47.543 27.16c-1.7695 5.5078-1.4531 11.473 0.88672 16.766 2.3398 5.2891 6.5391 9.5391 11.805 11.938 5.2656 2.4023 11.227 2.7852 16.754 1.0781 5.5312-1.707 10.242-5.3828 13.238-10.328 2.9961-4.9492 4.0742-10.828 3.0273-16.516-1.0469-5.6914-4.1484-10.797-8.7148-14.355l43.793-65.684c7.4375 2.9336 15.852 1.9141 22.375-2.707 6.5273-4.6172 10.281-12.219 9.9844-20.207-0.29297-7.9883-4.5977-15.289-11.445-19.418-6.8477-4.125-15.312-4.5195-22.516-1.0508-7.1992 3.4727-12.164 10.34-13.203 18.27-1.0391 7.9258 1.9922 15.84 8.0586 21.047l-44.012 66.012c-4.6992-1.6016-9.7852-1.6758-14.531-0.20312-4.7422 1.4688-8.8945 4.4102-11.859 8.3906l-46.57-26.609v0.003906c2.5547-5.1914 3.1172-11.141 1.5781-16.715-1.5391-5.5781-5.0703-10.398-9.9258-13.543-4.8555-3.1445-10.695-4.3984-16.414-3.5234s-10.918 3.8203-14.609 8.2734c-3.6914 4.4531-5.6172 10.109-5.418 15.891 0.20312 5.7812 2.5156 11.289 6.5078 15.477l-41.977 55.961c-6.5703-2.3359-13.836-1.6484-19.852 1.875-6.0156 3.5234-10.168 9.5273-11.34 16.398-1.1758 6.875 0.74609 13.914 5.2539 19.234 4.5039 5.3242 11.129 8.3828 18.102 8.3594zm220.42-188.93c4.1758 0 8.1797 1.6602 11.133 4.6133s4.6094 6.957 4.6094 11.133c0 4.1758-1.6562 8.1797-4.6094 11.133s-6.957 4.6094-11.133 4.6094c-4.1758 0-8.1797-1.6562-11.133-4.6094s-4.6133-6.957-4.6133-11.133c0-4.1758 1.6602-8.1797 4.6133-11.133s6.957-4.6133 11.133-4.6133zm-66.914 106.27c4.1758 0 8.1797 1.6602 11.133 4.6094 2.9531 2.9531 4.6133 6.9609 4.6133 11.133 0 4.1758-1.6602 8.1836-4.6133 11.133-2.9531 2.9531-6.957 4.6133-11.133 4.6133s-8.1797-1.6602-11.133-4.6133c-2.9531-2.9492-4.6094-6.957-4.6094-11.133 0-4.1719 1.6562-8.1797 4.6094-11.133 2.9531-2.9492 6.957-4.6094 11.133-4.6094zm-86.59-51.168c4.1758 0 8.1797 1.6602 11.133 4.6094 2.9492 2.9531 4.6094 6.957 4.6094 11.133s-1.6602 8.1836-4.6094 11.133c-2.9531 2.9531-6.957 4.6133-11.133 4.6133s-8.1836-1.6602-11.133-4.6133c-2.9531-2.9492-4.6133-6.957-4.6133-11.133s1.6602-8.1797 4.6133-11.133c2.9492-2.9492 6.957-4.6094 11.133-4.6094zm-66.914 94.465c4.1758 0 8.1797 1.6562 11.133 4.6094s4.6133 6.957 4.6133 11.133c0 4.1758-1.6602 8.1797-4.6133 11.133s-6.957 4.6133-11.133 4.6133-8.1797-1.6602-11.133-4.6133-4.6094-6.957-4.6094-11.133c0-4.1758 1.6562-8.1797 4.6094-11.133s6.957-4.6094 11.133-4.6094z"></path>
  <path d="m431.49 502.34h94.465v7.8711h-94.465z"></path>
  <path d="m384.25 565.31h141.7v7.8711h-141.7z"></path>
  <path d="m462.98 533.82h62.977v7.8711h-62.977z"></path>
 </g>

      </g>
     <g id="IconSvg_iconCarrier">
      <g xmlns="http://www.w3.org/2000/svg">
  <path d="m218.94 177.98v444.03c-0.015625 7.7852 6.2734 14.113 14.055 14.148h334c7.7812-0.035156 14.07-6.3633 14.055-14.148v-383.39l-1.1523-2.7812-70.848-70.848-2.7852-1.1562h-273.27c-7.7812 0.035156-14.07 6.3633-14.055 14.148zm348.68 56.703h-48.84c-4.4297-0.66406-7.9062-4.1406-8.5703-8.5703v-48.844zm-340.8-56.703c-0.019531-3.4375 2.7461-6.2461 6.1836-6.2734h269.34v54.406c0.3125 4.2578 2.1445 8.2578 5.1641 11.277 3.0156 3.0156 7.0195 4.8477 11.277 5.1641h54.406v379.46-0.003906c0.019531 3.4375-2.7461 6.2461-6.1836 6.2773h-334c-3.4375-0.03125-6.2031-2.8398-6.1836-6.2773z"></path>
  <path d="m281.92 478.72c6.5586 0.003906 12.828-2.7188 17.297-7.5234 4.4648-4.8047 6.7344-11.25 6.2578-17.793-0.48047-6.543-3.6602-12.59-8.7773-16.691l41.328-55.105c4.4141 2.293 9.4453 3.125 14.363 2.3789 4.918-0.75 9.4766-3.0391 13.012-6.5391l47.543 27.16c-1.7695 5.5078-1.4531 11.473 0.88672 16.766 2.3398 5.2891 6.5391 9.5391 11.805 11.938 5.2656 2.4023 11.227 2.7852 16.754 1.0781 5.5312-1.707 10.242-5.3828 13.238-10.328 2.9961-4.9492 4.0742-10.828 3.0273-16.516-1.0469-5.6914-4.1484-10.797-8.7148-14.355l43.793-65.684c7.4375 2.9336 15.852 1.9141 22.375-2.707 6.5273-4.6172 10.281-12.219 9.9844-20.207-0.29297-7.9883-4.5977-15.289-11.445-19.418-6.8477-4.125-15.312-4.5195-22.516-1.0508-7.1992 3.4727-12.164 10.34-13.203 18.27-1.0391 7.9258 1.9922 15.84 8.0586 21.047l-44.012 66.012c-4.6992-1.6016-9.7852-1.6758-14.531-0.20312-4.7422 1.4688-8.8945 4.4102-11.859 8.3906l-46.57-26.609v0.003906c2.5547-5.1914 3.1172-11.141 1.5781-16.715-1.5391-5.5781-5.0703-10.398-9.9258-13.543-4.8555-3.1445-10.695-4.3984-16.414-3.5234s-10.918 3.8203-14.609 8.2734c-3.6914 4.4531-5.6172 10.109-5.418 15.891 0.20312 5.7812 2.5156 11.289 6.5078 15.477l-41.977 55.961c-6.5703-2.3359-13.836-1.6484-19.852 1.875-6.0156 3.5234-10.168 9.5273-11.34 16.398-1.1758 6.875 0.74609 13.914 5.2539 19.234 4.5039 5.3242 11.129 8.3828 18.102 8.3594zm220.42-188.93c4.1758 0 8.1797 1.6602 11.133 4.6133s4.6094 6.957 4.6094 11.133c0 4.1758-1.6562 8.1797-4.6094 11.133s-6.957 4.6094-11.133 4.6094c-4.1758 0-8.1797-1.6562-11.133-4.6094s-4.6133-6.957-4.6133-11.133c0-4.1758 1.6602-8.1797 4.6133-11.133s6.957-4.6133 11.133-4.6133zm-66.914 106.27c4.1758 0 8.1797 1.6602 11.133 4.6094 2.9531 2.9531 4.6133 6.9609 4.6133 11.133 0 4.1758-1.6602 8.1836-4.6133 11.133-2.9531 2.9531-6.957 4.6133-11.133 4.6133s-8.1797-1.6602-11.133-4.6133c-2.9531-2.9492-4.6094-6.957-4.6094-11.133 0-4.1719 1.6562-8.1797 4.6094-11.133 2.9531-2.9492 6.957-4.6094 11.133-4.6094zm-86.59-51.168c4.1758 0 8.1797 1.6602 11.133 4.6094 2.9492 2.9531 4.6094 6.957 4.6094 11.133s-1.6602 8.1836-4.6094 11.133c-2.9531 2.9531-6.957 4.6133-11.133 4.6133s-8.1836-1.6602-11.133-4.6133c-2.9531-2.9492-4.6133-6.957-4.6133-11.133s1.6602-8.1797 4.6133-11.133c2.9492-2.9492 6.957-4.6094 11.133-4.6094zm-66.914 94.465c4.1758 0 8.1797 1.6562 11.133 4.6094s4.6133 6.957 4.6133 11.133c0 4.1758-1.6602 8.1797-4.6133 11.133s-6.957 4.6133-11.133 4.6133-8.1797-1.6602-11.133-4.6133-4.6094-6.957-4.6094-11.133c0-4.1758 1.6562-8.1797 4.6094-11.133s6.957-4.6094 11.133-4.6094z"></path>
  <path d="m431.49 502.34h94.465v7.8711h-94.465z"></path>
  <path d="m384.25 565.31h141.7v7.8711h-141.7z"></path>
  <path d="m462.98 533.82h62.977v7.8711h-62.977z"></path>
 </g>

      </g>
      </svg>