<svg id="svg" fill="#8991ae" stroke="#8991ae" width="391" height="391" version="1.1" viewBox="64 64 672 672" xmlns="http://www.w3.org/2000/svg">
    <g id="IconSvg_bgCarrier" stroke-width="0"></g>
    <g id="IconSvg_tracerCarrier" stroke-linecap="round" stroke-linejoin="round" stroke="#CCCCCC" stroke-width="0">
      <defs xmlns="http://www.w3.org/2000/svg">
  <clipPath id="c">
   <path d="m447 337h204.9v314.9h-204.9z"></path>
  </clipPath>
  <clipPath id="b">
   <path d="m148.09 337h204.91v314.9h-204.91z"></path>
  </clipPath>
  <clipPath id="a">
   <path d="m297 148.09h206v299.91h-206z"></path>
  </clipPath>
 </defs>
<g xmlns="http://www.w3.org/2000/svg">
  <g clip-path="url(#c)">
   <path d="m620.41 337.02c-17.367 0-31.488 14.121-31.488 31.488v89.387l-43.555 45.375c-4.1328 4.1328-11.32 4.1406-15.477-0.007813-4.1953-4.1875-4.2734-10.871-0.17188-15.207 0.16406-0.17188 0.31641-0.35547 0.46484-0.53516l33.77-33.77c5.9531-5.957 9.2266-13.859 9.2266-22.266s-3.2734-16.312-9.2266-22.262c-5.9531-5.9531-13.855-9.2266-22.262-9.2266-8.4141 0-16.328 3.2812-22.262 9.2266l-62.969 62.969c-5.8633 5.8555-9.2344 13.969-9.2344 22.266v149.57c0 4.3516 3.5195 7.8711 7.8711 7.8711h94.465c4.3516 0 7.8711-3.5195 7.8711-7.8711v-59.859l85.238-91.055c5.8672-5.8633 9.2266-13.98 9.2266-22.27v-102.34c0-17.367-14.121-31.488-31.488-31.488zm15.746 133.82c0 4.1406-1.6836 8.2031-4.793 11.32l-87.555 93.504c-1.3555 1.4648-2.1172 3.3828-2.1172 5.3828v55.105h-78.719v-141.7c0-4.1406 1.6758-8.2031 4.6133-11.133l62.984-62.984c5.9336-5.9336 16.305-5.9453 22.254 0.007812 2.9727 2.9805 4.6094 6.9297 4.6094 11.137 0 4.2031-1.6367 8.1562-4.6133 11.133l-34.426 34.426c-0.31641 0.31641-0.58984 0.64453-0.83594 0.99219-9.2734 10.586-8.8164 26.371 1.2031 36.367 10.066 10.086 27.543 10.203 37.848-0.11719l45.863-47.766c1.4062-1.4688 2.1953-3.4219 2.1953-5.4531v-92.559c0-8.6836 7.0625-15.742 15.742-15.742 8.6758 0 15.742 7.0625 15.742 15.742z"></path>
  </g>
  <g clip-path="url(#b)">
   <path d="m280.56 409.22c-5.9492-5.9492-13.852-9.2227-22.262-9.2227-8.4141 0-16.328 3.2812-22.262 9.2266-5.9492 5.9492-9.2266 13.852-9.2266 22.262 0 8.4062 3.2734 16.312 9.2266 22.262l33.77 33.77c0.14844 0.17969 0.30078 0.36328 0.46484 0.53516 4.1016 4.3359 4.0312 11.012-0.17188 15.215-4.1328 4.1328-11.445 4.0234-15.352 0.11719l-43.68-45.488v-89.387c0-17.367-14.121-31.488-31.488-31.488-17.367 0-31.488 14.121-31.488 31.488v102.34c0 8.2969 3.3711 16.414 9.0352 22.082l85.43 91.242v59.859c0 4.3516 3.5195 7.8711 7.8711 7.8711h94.465c4.3516 0 7.8711-3.5195 7.8711-7.8711v-149.57c0-8.2891-3.3633-16.406-9.2266-22.262zm56.461 226.94h-78.723v-55.105c0-2-0.76172-3.9219-2.125-5.3828l-87.734-93.703c-2.9258-2.918-4.6055-6.9805-4.6055-11.121v-102.34c0-8.6836 7.0625-15.742 15.742-15.742 8.6758 0 15.742 7.0625 15.742 15.742v92.559c0 2.0312 0.78906 3.9844 2.1875 5.4492l45.98 47.887c10.066 10.086 27.664 10.086 37.73 0 10.02-10.004 10.469-25.766 1.2188-36.352-0.25-0.35547-0.53516-0.69141-0.85156-1.0078l-34.426-34.426c-2.9648-2.9805-4.6016-6.9297-4.6016-11.133s1.6367-8.1562 4.6211-11.141c5.9336-5.9336 16.305-5.9453 22.254 0.007813l62.977 62.977c2.9258 2.9297 4.6133 6.9883 4.6133 11.129z"></path>
  </g>
  <g clip-path="url(#a)">
   <path d="m447.23 400v-31.488c0-14.508 9.2188-25.473 20.891-39.359 15.242-18.125 34.215-40.676 34.215-78.723 0-56.426-45.91-102.34-102.34-102.34-56.43 0-102.34 45.91-102.34 102.34 0 38.047 18.973 60.598 34.211 78.719 11.672 13.887 20.891 24.855 20.891 39.363v31.488c0 10.957 7.5352 20.105 17.656 22.766l6.3672 19.09c1.0664 3.2109 4.0742 5.375 7.4648 5.375h31.488c3.3945 0 6.3906-2.1641 7.4609-5.3828l6.3672-19.09c10.125-2.6523 17.66-11.801 17.66-22.758zm-78.719-23.617h62.977v7.8711h-62.977zm21.309-52.797-13.438-13.438v-13.934c6.6758-2.3789 11.918-7.6289 14.289-14.297h18.648c2.3789 6.668 7.6211 11.918 14.289 14.289v13.941l-13.438 13.438c-1.4766 1.4727-2.3008 3.4766-2.3008 5.5625v31.488h-15.742v-31.488c-0.003906-2.0859-0.83594-4.0898-2.3086-5.5625zm-21.309-41.668c-4.3438 0-7.8711-3.5352-7.8711-7.8711s3.5273-7.8711 7.8711-7.8711 7.8711 3.5352 7.8711 7.8711-3.5273 7.8711-7.8711 7.8711zm62.977 0c-4.3438 0-7.8711-3.5352-7.8711-7.8711s3.5273-7.8711 7.8711-7.8711 7.8711 3.5352 7.8711 7.8711-3.5273 7.8711-7.8711 7.8711zm-87.562 37.102c-15.004-17.84-30.52-36.281-30.52-68.59 0-47.742 38.848-86.594 86.594-86.594 47.742 0 86.594 38.848 86.594 86.594 0 32.309-15.516 50.75-30.52 68.59-10.934 13.004-21.309 25.402-23.922 41.621l-8.5391-0.003906v-28.23l13.438-13.438c1.4727-1.4688 2.3086-3.4766 2.3086-5.5625v-17.191c9.1406-3.2656 15.742-11.918 15.742-22.168 0-13.02-10.598-23.617-23.617-23.617-10.25 0-18.902 6.5977-22.16 15.742h-18.648c-3.2578-9.1484-11.918-15.742-22.16-15.742-13.02 0-23.617 10.598-23.617 23.617 0 10.25 6.6055 18.902 15.742 22.16l0.003906 17.199c0 2.0859 0.82812 4.0938 2.3047 5.5664l13.434 13.438v28.227h-8.5352c-2.6133-16.215-12.988-28.605-23.922-41.617zm66.141 112.47h-20.145l-2.6211-7.8711h25.387zm13.547-23.617h-47.23c-4.3438 0-7.8711-3.5352-7.8711-7.8711h62.977c0 4.3359-3.5273 7.8711-7.875 7.8711z"></path>
  </g>
 </g>

      </g>
     <g id="IconSvg_iconCarrier">
      <defs xmlns="http://www.w3.org/2000/svg">
  <clipPath id="c">
   <path d="m447 337h204.9v314.9h-204.9z"></path>
  </clipPath>
  <clipPath id="b">
   <path d="m148.09 337h204.91v314.9h-204.91z"></path>
  </clipPath>
  <clipPath id="a">
   <path d="m297 148.09h206v299.91h-206z"></path>
  </clipPath>
 </defs>
<g xmlns="http://www.w3.org/2000/svg">
  <g clip-path="url(#c)">
   <path d="m620.41 337.02c-17.367 0-31.488 14.121-31.488 31.488v89.387l-43.555 45.375c-4.1328 4.1328-11.32 4.1406-15.477-0.007813-4.1953-4.1875-4.2734-10.871-0.17188-15.207 0.16406-0.17188 0.31641-0.35547 0.46484-0.53516l33.77-33.77c5.9531-5.957 9.2266-13.859 9.2266-22.266s-3.2734-16.312-9.2266-22.262c-5.9531-5.9531-13.855-9.2266-22.262-9.2266-8.4141 0-16.328 3.2812-22.262 9.2266l-62.969 62.969c-5.8633 5.8555-9.2344 13.969-9.2344 22.266v149.57c0 4.3516 3.5195 7.8711 7.8711 7.8711h94.465c4.3516 0 7.8711-3.5195 7.8711-7.8711v-59.859l85.238-91.055c5.8672-5.8633 9.2266-13.98 9.2266-22.27v-102.34c0-17.367-14.121-31.488-31.488-31.488zm15.746 133.82c0 4.1406-1.6836 8.2031-4.793 11.32l-87.555 93.504c-1.3555 1.4648-2.1172 3.3828-2.1172 5.3828v55.105h-78.719v-141.7c0-4.1406 1.6758-8.2031 4.6133-11.133l62.984-62.984c5.9336-5.9336 16.305-5.9453 22.254 0.007812 2.9727 2.9805 4.6094 6.9297 4.6094 11.137 0 4.2031-1.6367 8.1562-4.6133 11.133l-34.426 34.426c-0.31641 0.31641-0.58984 0.64453-0.83594 0.99219-9.2734 10.586-8.8164 26.371 1.2031 36.367 10.066 10.086 27.543 10.203 37.848-0.11719l45.863-47.766c1.4062-1.4688 2.1953-3.4219 2.1953-5.4531v-92.559c0-8.6836 7.0625-15.742 15.742-15.742 8.6758 0 15.742 7.0625 15.742 15.742z"></path>
  </g>
  <g clip-path="url(#b)">
   <path d="m280.56 409.22c-5.9492-5.9492-13.852-9.2227-22.262-9.2227-8.4141 0-16.328 3.2812-22.262 9.2266-5.9492 5.9492-9.2266 13.852-9.2266 22.262 0 8.4062 3.2734 16.312 9.2266 22.262l33.77 33.77c0.14844 0.17969 0.30078 0.36328 0.46484 0.53516 4.1016 4.3359 4.0312 11.012-0.17188 15.215-4.1328 4.1328-11.445 4.0234-15.352 0.11719l-43.68-45.488v-89.387c0-17.367-14.121-31.488-31.488-31.488-17.367 0-31.488 14.121-31.488 31.488v102.34c0 8.2969 3.3711 16.414 9.0352 22.082l85.43 91.242v59.859c0 4.3516 3.5195 7.8711 7.8711 7.8711h94.465c4.3516 0 7.8711-3.5195 7.8711-7.8711v-149.57c0-8.2891-3.3633-16.406-9.2266-22.262zm56.461 226.94h-78.723v-55.105c0-2-0.76172-3.9219-2.125-5.3828l-87.734-93.703c-2.9258-2.918-4.6055-6.9805-4.6055-11.121v-102.34c0-8.6836 7.0625-15.742 15.742-15.742 8.6758 0 15.742 7.0625 15.742 15.742v92.559c0 2.0312 0.78906 3.9844 2.1875 5.4492l45.98 47.887c10.066 10.086 27.664 10.086 37.73 0 10.02-10.004 10.469-25.766 1.2188-36.352-0.25-0.35547-0.53516-0.69141-0.85156-1.0078l-34.426-34.426c-2.9648-2.9805-4.6016-6.9297-4.6016-11.133s1.6367-8.1562 4.6211-11.141c5.9336-5.9336 16.305-5.9453 22.254 0.007813l62.977 62.977c2.9258 2.9297 4.6133 6.9883 4.6133 11.129z"></path>
  </g>
  <g clip-path="url(#a)">
   <path d="m447.23 400v-31.488c0-14.508 9.2188-25.473 20.891-39.359 15.242-18.125 34.215-40.676 34.215-78.723 0-56.426-45.91-102.34-102.34-102.34-56.43 0-102.34 45.91-102.34 102.34 0 38.047 18.973 60.598 34.211 78.719 11.672 13.887 20.891 24.855 20.891 39.363v31.488c0 10.957 7.5352 20.105 17.656 22.766l6.3672 19.09c1.0664 3.2109 4.0742 5.375 7.4648 5.375h31.488c3.3945 0 6.3906-2.1641 7.4609-5.3828l6.3672-19.09c10.125-2.6523 17.66-11.801 17.66-22.758zm-78.719-23.617h62.977v7.8711h-62.977zm21.309-52.797-13.438-13.438v-13.934c6.6758-2.3789 11.918-7.6289 14.289-14.297h18.648c2.3789 6.668 7.6211 11.918 14.289 14.289v13.941l-13.438 13.438c-1.4766 1.4727-2.3008 3.4766-2.3008 5.5625v31.488h-15.742v-31.488c-0.003906-2.0859-0.83594-4.0898-2.3086-5.5625zm-21.309-41.668c-4.3438 0-7.8711-3.5352-7.8711-7.8711s3.5273-7.8711 7.8711-7.8711 7.8711 3.5352 7.8711 7.8711-3.5273 7.8711-7.8711 7.8711zm62.977 0c-4.3438 0-7.8711-3.5352-7.8711-7.8711s3.5273-7.8711 7.8711-7.8711 7.8711 3.5352 7.8711 7.8711-3.5273 7.8711-7.8711 7.8711zm-87.562 37.102c-15.004-17.84-30.52-36.281-30.52-68.59 0-47.742 38.848-86.594 86.594-86.594 47.742 0 86.594 38.848 86.594 86.594 0 32.309-15.516 50.75-30.52 68.59-10.934 13.004-21.309 25.402-23.922 41.621l-8.5391-0.003906v-28.23l13.438-13.438c1.4727-1.4688 2.3086-3.4766 2.3086-5.5625v-17.191c9.1406-3.2656 15.742-11.918 15.742-22.168 0-13.02-10.598-23.617-23.617-23.617-10.25 0-18.902 6.5977-22.16 15.742h-18.648c-3.2578-9.1484-11.918-15.742-22.16-15.742-13.02 0-23.617 10.598-23.617 23.617 0 10.25 6.6055 18.902 15.742 22.16l0.003906 17.199c0 2.0859 0.82812 4.0938 2.3047 5.5664l13.434 13.438v28.227h-8.5352c-2.6133-16.215-12.988-28.605-23.922-41.617zm66.141 112.47h-20.145l-2.6211-7.8711h25.387zm13.547-23.617h-47.23c-4.3438 0-7.8711-3.5352-7.8711-7.8711h62.977c0 4.3359-3.5273 7.8711-7.875 7.8711z"></path>
  </g>
 </g>

      </g>
      </svg>