<svg id="svg" fill="#8991ae" stroke="#8991ae" width="391" height="391" version="1.1" viewBox="64 64 672 672" xmlns="http://www.w3.org/2000/svg">
    <g id="IconSvg_bgCarrier" stroke-width="0"></g>
    <g id="IconSvg_tracerCarrier" stroke-linecap="round" stroke-linejoin="round" stroke="#CCCCCC" stroke-width="0">
      <defs xmlns="http://www.w3.org/2000/svg">
  <clipPath id="a">
   <path d="m163 195h474v456.9h-474z"></path>
  </clipPath>
 </defs>
<g xmlns="http://www.w3.org/2000/svg" clip-path="url(#a)">
  <path d="m596.8 195.32h-330.62c-10.438 0.015625-20.441 4.1641-27.82 11.543-7.3789 7.3789-11.527 17.383-11.543 27.82v307.01h-55.102c-4.3477 0-7.875 3.5234-7.875 7.8711v15.746c0.015624 10.434 4.1641 20.438 11.543 27.816s17.383 11.531 27.82 11.543h244.22v39.359c0 2.9805 1.6875 5.707 4.3516 7.0391 2.668 1.3359 5.8594 1.0469 8.2461-0.74219l26.766-20.074 26.766 20.074h-0.003906c1.3633 1.0273 3.0195 1.5781 4.7266 1.5742 1.2188 0.011718 2.4258-0.25781 3.5234-0.78516 2.6797-1.3438 4.3633-4.0898 4.3477-7.0859v-39.359h7.6836c10.434-0.011719 20.438-4.1641 27.816-11.543s11.531-17.383 11.543-27.816v-307.01h55.105c2.0859 0 4.0898-0.82812 5.5664-2.3047 1.4727-1.4766 2.3047-3.4766 2.3047-5.5664v-15.742c-0.011718-10.438-4.1641-20.441-11.543-27.82-7.3789-7.3789-17.383-11.527-27.816-11.543zm-149.38 393.6h-244.22c-6.2656 0-12.273-2.4883-16.699-6.9141-4.4297-4.4297-6.918-10.438-6.918-16.699v-7.875h267.84zm62.977 39.359-18.895-14.168h0.003906c-2.8008-2.0977-6.6484-2.0977-9.4492 0l-18.895 14.168 0.003906-87.922c1.5195 0.12109 3.0508 0.09375 4.5664-0.085937 4.543 5.8594 11.539 9.2891 18.953 9.2891 7.418 0 14.414-3.4297 18.957-9.2891 1.5664 0.1875 3.1484 0.21875 4.7227 0.085937zm10.125-126.11c-2.1016 0.74609-3.7852 2.3477-4.6367 4.4062-0.85156 2.0586-0.79297 4.3828 0.16406 6.3945 1.4922 3.1211 0.85938 6.8438-1.5781 9.293-2.4375 2.4531-6.1562 3.1094-9.2852 1.6328-2.0117-0.95703-4.3359-1.0195-6.3984-0.16797-2.0586 0.85156-3.6641 2.5391-4.4102 4.6406-1.1484 3.2617-4.2305 5.4414-7.6914 5.4414-3.457 0-6.5391-2.1797-7.6875-5.4414-0.74609-2.1016-2.3516-3.7891-4.4102-4.6406-2.0625-0.85156-4.3867-0.78906-6.3984 0.16797-3.1289 1.4766-6.8477 0.82031-9.2852-1.6328-2.4375-2.4492-3.0703-6.1719-1.5781-9.293 0.95703-2.0078 1.0156-4.332 0.16797-6.3906-0.85156-2.0586-2.5352-3.6602-4.6328-4.4102-3.2656-1.1602-5.4453-4.2461-5.4453-7.7148 0-3.4648 2.1797-6.5547 5.4453-7.7109 2.0977-0.75 3.7773-2.3516 4.6289-4.4062 0.84766-2.0586 0.78906-4.3789-0.16406-6.3867-1.5-3.1211-0.86719-6.8477 1.5703-9.3008 2.4414-2.457 6.1602-3.1094 9.293-1.6367 2.0117 0.96094 4.3359 1.0234 6.3984 0.17188 2.0586-0.85156 3.6641-2.5391 4.4102-4.6406 1.1484-3.2617 4.2305-5.4414 7.6875-5.4414 3.4609 0 6.543 2.1797 7.6914 5.4414 0.74609 2.1016 2.3516 3.7891 4.4102 4.6406 2.0625 0.85156 4.3867 0.78906 6.3984-0.17188 3.1289-1.4727 6.8477-0.81641 9.2852 1.6367 2.4375 2.4492 3.0703 6.1719 1.5781 9.293-0.95703 2.0117-1.0156 4.3359-0.16406 6.3945 0.85156 2.0586 2.5352 3.6562 4.6367 4.4062 3.2578 1.1641 5.4297 4.2539 5.4297 7.7109 0 3.4609-2.1719 6.5508-5.4297 7.7148zm44.184-290.12c-0.44922 0.62891-0.84375 1.3008-1.25 1.9609-0.83984 1.3438-1.5938 2.7344-2.2656 4.1719-0.35547 0.78906-0.68359 1.5117-0.99219 2.2812-0.58594 1.543-1.0742 3.1211-1.4648 4.7227-0.17969 0.73047-0.41016 1.4414-0.55078 2.1875-0.47656 2.4102-0.72266 4.8555-0.74219 7.3086v330.62c0 6.2617-2.4883 12.27-6.9141 16.699-4.4297 4.4258-10.438 6.9141-16.699 6.9141-2.625-0.046875-5.2227-0.53516-7.6836-1.4453v-54.758c4.8945-5.1562 7.207-12.238 6.2969-19.289 5.8516-4.5547 9.2734-11.555 9.2734-18.973 0-7.4141-3.4219-14.414-9.2734-18.969 0.92969-7.3516-1.5859-14.723-6.8164-19.969-5.2344-5.2461-12.594-7.7852-19.949-6.875-4.543-5.8594-11.539-9.2891-18.957-9.2891-7.4141 0-14.41 3.4297-18.953 9.2891-7.3555-0.90625-14.715 1.6328-19.945 6.8789-5.2305 5.2461-7.7461 12.613-6.8203 19.965-5.8516 4.5547-9.2734 11.555-9.2734 18.969 0 7.418 3.4219 14.418 9.2734 18.973-0.92969 7.1523 1.4531 14.336 6.4727 19.516v8.7461h-204.91v-307.01c0-6.2656 2.4883-12.273 6.918-16.699 4.4258-4.4297 10.434-6.918 16.699-6.918h299.14c-0.22266 0.30469-0.38672 0.66016-0.60938 0.98438zm55.711 30.504h-47.23v-7.8711c0-8.4375 4.5-16.234 11.809-20.453 7.3047-4.2188 16.309-4.2188 23.613 0 7.3086 4.2188 11.809 12.016 11.809 20.453z"></path>
 </g>
<path xmlns="http://www.w3.org/2000/svg" d="m423.61 258.3h31.488v15.742h-31.488z"></path>
<path xmlns="http://www.w3.org/2000/svg" d="m344.89 258.3h62.977v15.742h-62.977z"></path>
<path xmlns="http://www.w3.org/2000/svg" d="m321.28 297.66h157.44v15.742h-157.44z"></path>
<path xmlns="http://www.w3.org/2000/svg" d="m281.92 344.89h39.359v15.742h-39.359z"></path>
<path xmlns="http://www.w3.org/2000/svg" d="m281.92 384.25h86.594v15.742h-86.594z"></path>
<path xmlns="http://www.w3.org/2000/svg" d="m337.02 344.89h181.05v15.742h-181.05z"></path>
<path xmlns="http://www.w3.org/2000/svg" d="m384.25 384.25h133.82v15.742h-133.82z"></path>
<path xmlns="http://www.w3.org/2000/svg" d="m281.92 423.61h157.44v15.742h-157.44z"></path>
<path xmlns="http://www.w3.org/2000/svg" d="m281.92 462.98h133.82v15.742h-133.82z"></path>

      </g>
     <g id="IconSvg_iconCarrier">
      <defs xmlns="http://www.w3.org/2000/svg">
  <clipPath id="a">
   <path d="m163 195h474v456.9h-474z"></path>
  </clipPath>
 </defs>
<g xmlns="http://www.w3.org/2000/svg" clip-path="url(#a)">
  <path d="m596.8 195.32h-330.62c-10.438 0.015625-20.441 4.1641-27.82 11.543-7.3789 7.3789-11.527 17.383-11.543 27.82v307.01h-55.102c-4.3477 0-7.875 3.5234-7.875 7.8711v15.746c0.015624 10.434 4.1641 20.438 11.543 27.816s17.383 11.531 27.82 11.543h244.22v39.359c0 2.9805 1.6875 5.707 4.3516 7.0391 2.668 1.3359 5.8594 1.0469 8.2461-0.74219l26.766-20.074 26.766 20.074h-0.003906c1.3633 1.0273 3.0195 1.5781 4.7266 1.5742 1.2188 0.011718 2.4258-0.25781 3.5234-0.78516 2.6797-1.3438 4.3633-4.0898 4.3477-7.0859v-39.359h7.6836c10.434-0.011719 20.438-4.1641 27.816-11.543s11.531-17.383 11.543-27.816v-307.01h55.105c2.0859 0 4.0898-0.82812 5.5664-2.3047 1.4727-1.4766 2.3047-3.4766 2.3047-5.5664v-15.742c-0.011718-10.438-4.1641-20.441-11.543-27.82-7.3789-7.3789-17.383-11.527-27.816-11.543zm-149.38 393.6h-244.22c-6.2656 0-12.273-2.4883-16.699-6.9141-4.4297-4.4297-6.918-10.438-6.918-16.699v-7.875h267.84zm62.977 39.359-18.895-14.168h0.003906c-2.8008-2.0977-6.6484-2.0977-9.4492 0l-18.895 14.168 0.003906-87.922c1.5195 0.12109 3.0508 0.09375 4.5664-0.085937 4.543 5.8594 11.539 9.2891 18.953 9.2891 7.418 0 14.414-3.4297 18.957-9.2891 1.5664 0.1875 3.1484 0.21875 4.7227 0.085937zm10.125-126.11c-2.1016 0.74609-3.7852 2.3477-4.6367 4.4062-0.85156 2.0586-0.79297 4.3828 0.16406 6.3945 1.4922 3.1211 0.85938 6.8438-1.5781 9.293-2.4375 2.4531-6.1562 3.1094-9.2852 1.6328-2.0117-0.95703-4.3359-1.0195-6.3984-0.16797-2.0586 0.85156-3.6641 2.5391-4.4102 4.6406-1.1484 3.2617-4.2305 5.4414-7.6914 5.4414-3.457 0-6.5391-2.1797-7.6875-5.4414-0.74609-2.1016-2.3516-3.7891-4.4102-4.6406-2.0625-0.85156-4.3867-0.78906-6.3984 0.16797-3.1289 1.4766-6.8477 0.82031-9.2852-1.6328-2.4375-2.4492-3.0703-6.1719-1.5781-9.293 0.95703-2.0078 1.0156-4.332 0.16797-6.3906-0.85156-2.0586-2.5352-3.6602-4.6328-4.4102-3.2656-1.1602-5.4453-4.2461-5.4453-7.7148 0-3.4648 2.1797-6.5547 5.4453-7.7109 2.0977-0.75 3.7773-2.3516 4.6289-4.4062 0.84766-2.0586 0.78906-4.3789-0.16406-6.3867-1.5-3.1211-0.86719-6.8477 1.5703-9.3008 2.4414-2.457 6.1602-3.1094 9.293-1.6367 2.0117 0.96094 4.3359 1.0234 6.3984 0.17188 2.0586-0.85156 3.6641-2.5391 4.4102-4.6406 1.1484-3.2617 4.2305-5.4414 7.6875-5.4414 3.4609 0 6.543 2.1797 7.6914 5.4414 0.74609 2.1016 2.3516 3.7891 4.4102 4.6406 2.0625 0.85156 4.3867 0.78906 6.3984-0.17188 3.1289-1.4727 6.8477-0.81641 9.2852 1.6367 2.4375 2.4492 3.0703 6.1719 1.5781 9.293-0.95703 2.0117-1.0156 4.3359-0.16406 6.3945 0.85156 2.0586 2.5352 3.6562 4.6367 4.4062 3.2578 1.1641 5.4297 4.2539 5.4297 7.7109 0 3.4609-2.1719 6.5508-5.4297 7.7148zm44.184-290.12c-0.44922 0.62891-0.84375 1.3008-1.25 1.9609-0.83984 1.3438-1.5938 2.7344-2.2656 4.1719-0.35547 0.78906-0.68359 1.5117-0.99219 2.2812-0.58594 1.543-1.0742 3.1211-1.4648 4.7227-0.17969 0.73047-0.41016 1.4414-0.55078 2.1875-0.47656 2.4102-0.72266 4.8555-0.74219 7.3086v330.62c0 6.2617-2.4883 12.27-6.9141 16.699-4.4297 4.4258-10.438 6.9141-16.699 6.9141-2.625-0.046875-5.2227-0.53516-7.6836-1.4453v-54.758c4.8945-5.1562 7.207-12.238 6.2969-19.289 5.8516-4.5547 9.2734-11.555 9.2734-18.973 0-7.4141-3.4219-14.414-9.2734-18.969 0.92969-7.3516-1.5859-14.723-6.8164-19.969-5.2344-5.2461-12.594-7.7852-19.949-6.875-4.543-5.8594-11.539-9.2891-18.957-9.2891-7.4141 0-14.41 3.4297-18.953 9.2891-7.3555-0.90625-14.715 1.6328-19.945 6.8789-5.2305 5.2461-7.7461 12.613-6.8203 19.965-5.8516 4.5547-9.2734 11.555-9.2734 18.969 0 7.418 3.4219 14.418 9.2734 18.973-0.92969 7.1523 1.4531 14.336 6.4727 19.516v8.7461h-204.91v-307.01c0-6.2656 2.4883-12.273 6.918-16.699 4.4258-4.4297 10.434-6.918 16.699-6.918h299.14c-0.22266 0.30469-0.38672 0.66016-0.60938 0.98438zm55.711 30.504h-47.23v-7.8711c0-8.4375 4.5-16.234 11.809-20.453 7.3047-4.2188 16.309-4.2188 23.613 0 7.3086 4.2188 11.809 12.016 11.809 20.453z"></path>
 </g>
<path xmlns="http://www.w3.org/2000/svg" d="m423.61 258.3h31.488v15.742h-31.488z"></path>
<path xmlns="http://www.w3.org/2000/svg" d="m344.89 258.3h62.977v15.742h-62.977z"></path>
<path xmlns="http://www.w3.org/2000/svg" d="m321.28 297.66h157.44v15.742h-157.44z"></path>
<path xmlns="http://www.w3.org/2000/svg" d="m281.92 344.89h39.359v15.742h-39.359z"></path>
<path xmlns="http://www.w3.org/2000/svg" d="m281.92 384.25h86.594v15.742h-86.594z"></path>
<path xmlns="http://www.w3.org/2000/svg" d="m337.02 344.89h181.05v15.742h-181.05z"></path>
<path xmlns="http://www.w3.org/2000/svg" d="m384.25 384.25h133.82v15.742h-133.82z"></path>
<path xmlns="http://www.w3.org/2000/svg" d="m281.92 423.61h157.44v15.742h-157.44z"></path>
<path xmlns="http://www.w3.org/2000/svg" d="m281.92 462.98h133.82v15.742h-133.82z"></path>

      </g>
      </svg>