<svg id="svg" fill="#8991ae" stroke="#8991ae" width="391" height="391" version="1.1" viewBox="64 64 672 672" xmlns="http://www.w3.org/2000/svg">
    <g id="IconSvg_bgCarrier" stroke-width="0"></g>
    <g id="IconSvg_tracerCarrier" stroke-linecap="round" stroke-linejoin="round" stroke="#CCCCCC" stroke-width="0">
      <defs xmlns="http://www.w3.org/2000/svg">
  <clipPath id="a">
   <path d="m148.09 148.09h503.81v503.81h-503.81z"></path>
  </clipPath>
 </defs>
<path xmlns="http://www.w3.org/2000/svg" d="m265.65 551.14c-8.9062 0-17.449 3.5391-23.75 9.8398-6.2969 6.2969-9.8359 14.84-9.8359 23.75 0 8.9062 3.5391 17.449 9.8359 23.746 6.3008 6.3008 14.844 9.8398 23.75 9.8398 8.9102 0 17.453-3.5391 23.75-9.8398 6.3008-6.2969 9.8398-14.84 9.8398-23.746 0-8.9102-3.5391-17.453-9.8398-23.75-6.2969-6.3008-14.84-9.8398-23.75-9.8398zm0 50.383c-4.4531 0-8.7266-1.7695-11.875-4.918-3.1484-3.1523-4.918-7.4219-4.918-11.875 0-4.457 1.7695-8.7266 4.918-11.875 3.1484-3.1523 7.4219-4.9219 11.875-4.9219 4.4531 0 8.7266 1.7695 11.875 4.9219 3.1484 3.1484 4.918 7.418 4.918 11.875 0 4.4531-1.7695 8.7227-4.918 11.875-3.1484 3.1484-7.4219 4.918-11.875 4.918z"></path>
<path xmlns="http://www.w3.org/2000/svg" d="m534.35 551.14c-8.9062 0-17.449 3.5391-23.75 9.8398-6.2969 6.2969-9.8359 14.84-9.8359 23.75 0 8.9062 3.5391 17.449 9.8359 23.746 6.3008 6.3008 14.844 9.8398 23.75 9.8398s17.449-3.5391 23.75-9.8398c6.2969-6.2969 9.8359-14.84 9.8359-23.746 0-8.9102-3.5391-17.453-9.8359-23.75-6.3008-6.3008-14.844-9.8398-23.75-9.8398zm0 50.383c-4.4531 0-8.7266-1.7695-11.875-4.918-3.1484-3.1523-4.918-7.4219-4.918-11.875 0-4.457 1.7695-8.7266 4.918-11.875 3.1484-3.1523 7.4219-4.9219 11.875-4.9219s8.7266 1.7695 11.875 4.9219c3.1484 3.1484 4.918 7.418 4.918 11.875 0 4.4531-1.7695 8.7227-4.918 11.875-3.1484 3.1484-7.4219 4.918-11.875 4.918z"></path>
<g xmlns="http://www.w3.org/2000/svg" clip-path="url(#a)">
  <path d="m635.11 475.57h-8.3984v-73.539c-0.023438-8.9023-3.5586-17.438-9.8398-23.746l-52.414-52.414c-6.3086-6.2812-14.84-9.8164-23.746-9.8398h-81.934v-41.984c0-6.6836-2.6562-13.09-7.3789-17.812-4.7227-4.7266-11.133-7.3789-17.812-7.3789h-8.8906c-2.793-36.875-24.09-69.816-56.57-87.492-32.48-17.68-71.707-17.68-104.19 0-32.48 17.676-53.781 50.617-56.57 87.492h-17.289c-6.6797 0-13.09 2.6523-17.812 7.3789-4.7227 4.7227-7.3789 11.129-7.3789 17.812v201.52c-4.4531 0-8.7266 1.7695-11.875 4.918-3.1484 3.1484-4.918 7.4219-4.918 11.875v83.969c0 4.4531 1.7695 8.7266 4.918 11.875 3.1484 3.1484 7.4219 4.918 11.875 4.918h34.168c2.7344 21.828 15.988 40.926 35.48 51.125 19.488 10.199 42.738 10.199 62.23 0 19.488-10.199 32.746-29.297 35.48-51.125h135.51c2.7344 21.828 15.988 40.926 35.48 51.125 19.488 10.199 42.738 10.199 62.227 0 19.492-10.199 32.746-29.297 35.48-51.125h34.168c4.4531 0 8.7266-1.7695 11.875-4.918 3.1484-3.1484 4.918-7.4219 4.918-11.875v-83.969c0-4.4531-1.7695-8.7266-4.918-11.875-3.1484-3.1484-7.4219-4.918-11.875-4.918zm-94.398-142.75c4.4531 0.015625 8.7188 1.7812 11.875 4.9219l52.414 52.414v-0.003906c3.1367 3.1562 4.9062 7.4219 4.918 11.875v73.539h-151.14v-142.75zm-98.727-58.777v142.75h-86.289c28.625-40.766 65.723-102.38 69.047-151.14h8.8438c2.2266 0 4.3633 0.88672 5.9375 2.4609 1.5742 1.5742 2.4609 3.7109 2.4609 5.9375zm-125.95-109.16c24.418 0.22266 47.773 10.031 65.035 27.305 17.262 17.277 27.051 40.641 27.254 65.062v0.058594c0 0.46875 0.066407 0.93359 0.066407 1.4102 0.007812 62.344-70.727 156.02-92.305 183.26-21.684-27.242-92.418-120.92-92.418-183.26 0-0.48047 0.066407-0.94141 0.066407-1.4102v-0.058594c0.20703-24.422 9.9922-47.789 27.258-65.066 17.262-17.273 40.621-27.078 65.043-27.301zm-125.95 100.76h17.238c3.3594 48.762 40.422 110.38 69.047 151.14h-94.684v-142.75c0-4.6367 3.7617-8.3984 8.3984-8.3984zm-8.3984 167.94h106.81c5.7695 7.7578 10.816 14.273 14.449 18.852h0.003906c3.1641 4.0039 7.9844 6.3398 13.09 6.3398 5.1016 0 9.9258-2.3359 13.09-6.3398 3.6367-4.5664 8.6836-11.094 14.449-18.852h98.414v41.984h-260.3zm83.969 201.52c-13.359 0-26.176-5.3086-35.625-14.758-9.4453-9.4453-14.754-22.262-14.754-35.621 0-13.363 5.3086-26.18 14.754-35.625 9.4492-9.4492 22.266-14.758 35.625-14.758 13.363 0 26.176 5.3086 35.625 14.758 9.4492 9.4453 14.758 22.262 14.758 35.625-0.015625 13.355-5.3281 26.164-14.773 35.609-9.4453 9.4453-22.25 14.758-35.609 14.77zm268.7 0c-13.363 0-26.176-5.3086-35.625-14.758-9.4492-9.4453-14.758-22.262-14.758-35.621 0-13.363 5.3086-26.18 14.758-35.625 9.4492-9.4492 22.262-14.758 35.625-14.758 13.363 0 26.176 5.3086 35.625 14.758 9.4492 9.4453 14.758 22.262 14.758 35.625-0.015625 13.355-5.3281 26.164-14.773 35.609-9.4453 9.4453-22.25 14.758-35.609 14.77zm66.594-58.777c-2.7344-21.824-15.988-40.926-35.48-51.125-19.488-10.195-42.738-10.195-62.227 0-19.492 10.199-32.746 29.301-35.48 51.125h-135.51c-2.7344-21.824-15.992-40.926-35.48-51.125-19.492-10.195-42.742-10.195-62.23 0-19.492 10.199-32.746 29.301-35.48 51.125h-34.168v-16.793h16.793c4.6406 0 8.3984-3.7617 8.3984-8.3984s-3.7578-8.3945-8.3984-8.3945h-16.793v-50.383h470.22v50.383h-16.793c-4.6367 0-8.3984 3.7578-8.3984 8.3945s3.7617 8.3984 8.3984 8.3984h16.793v16.793z"></path>
 </g>
<path xmlns="http://www.w3.org/2000/svg" d="m492.36 441.98h83.969c4.4531 0 8.7266-1.7695 11.875-4.9219 3.1484-3.1484 4.918-7.418 4.918-11.875v-16.195c0.011719-4.457-1.7578-8.7344-4.9219-11.875l-42.582-42.582 0.003906 0.003906c-3.1562-3.1406-7.4219-4.9062-11.875-4.9219h-41.387c-4.4531 0-8.7266 1.7695-11.875 4.918-3.1484 3.1523-4.918 7.4219-4.918 11.875v58.777c0 4.457 1.7695 8.7266 4.918 11.875 3.1484 3.1523 7.4219 4.9219 11.875 4.9219zm0-75.57h41.387l42.582 42.578v16.195h-83.969z"></path>
<path xmlns="http://www.w3.org/2000/svg" d="m316.03 332.82c20.043 0 39.266-7.9609 53.438-22.133 14.172-14.176 22.133-33.395 22.133-53.438 0-20.043-7.9609-39.266-22.133-53.438s-33.395-22.137-53.438-22.137-39.266 7.9648-53.438 22.137-22.137 33.395-22.137 53.438c0.023438 20.035 7.9922 39.242 22.16 53.41 14.168 14.168 33.379 22.137 53.414 22.16zm0-134.35c15.586 0 30.539 6.1914 41.562 17.215 11.023 11.023 17.215 25.973 17.215 41.562 0 15.586-6.1914 30.539-17.215 41.562-11.023 11.02-25.977 17.215-41.562 17.215-15.59 0-30.539-6.1953-41.562-17.215-11.023-11.023-17.215-25.977-17.215-41.562 0.019532-15.586 6.2188-30.523 17.234-41.543 11.02-11.016 25.961-17.215 41.543-17.234z"></path>
<path xmlns="http://www.w3.org/2000/svg" d="m441.98 542.75h-83.969c-4.6406 0-8.3984 3.7578-8.3984 8.3945s3.7578 8.3984 8.3984 8.3984h83.969c4.6367 0 8.3945-3.7617 8.3945-8.3984s-3.7578-8.3945-8.3945-8.3945z"></path>

      </g>
     <g id="IconSvg_iconCarrier">
      <defs xmlns="http://www.w3.org/2000/svg">
  <clipPath id="a">
   <path d="m148.09 148.09h503.81v503.81h-503.81z"></path>
  </clipPath>
 </defs>
<path xmlns="http://www.w3.org/2000/svg" d="m265.65 551.14c-8.9062 0-17.449 3.5391-23.75 9.8398-6.2969 6.2969-9.8359 14.84-9.8359 23.75 0 8.9062 3.5391 17.449 9.8359 23.746 6.3008 6.3008 14.844 9.8398 23.75 9.8398 8.9102 0 17.453-3.5391 23.75-9.8398 6.3008-6.2969 9.8398-14.84 9.8398-23.746 0-8.9102-3.5391-17.453-9.8398-23.75-6.2969-6.3008-14.84-9.8398-23.75-9.8398zm0 50.383c-4.4531 0-8.7266-1.7695-11.875-4.918-3.1484-3.1523-4.918-7.4219-4.918-11.875 0-4.457 1.7695-8.7266 4.918-11.875 3.1484-3.1523 7.4219-4.9219 11.875-4.9219 4.4531 0 8.7266 1.7695 11.875 4.9219 3.1484 3.1484 4.918 7.418 4.918 11.875 0 4.4531-1.7695 8.7227-4.918 11.875-3.1484 3.1484-7.4219 4.918-11.875 4.918z"></path>
<path xmlns="http://www.w3.org/2000/svg" d="m534.35 551.14c-8.9062 0-17.449 3.5391-23.75 9.8398-6.2969 6.2969-9.8359 14.84-9.8359 23.75 0 8.9062 3.5391 17.449 9.8359 23.746 6.3008 6.3008 14.844 9.8398 23.75 9.8398s17.449-3.5391 23.75-9.8398c6.2969-6.2969 9.8359-14.84 9.8359-23.746 0-8.9102-3.5391-17.453-9.8359-23.75-6.3008-6.3008-14.844-9.8398-23.75-9.8398zm0 50.383c-4.4531 0-8.7266-1.7695-11.875-4.918-3.1484-3.1523-4.918-7.4219-4.918-11.875 0-4.457 1.7695-8.7266 4.918-11.875 3.1484-3.1523 7.4219-4.9219 11.875-4.9219s8.7266 1.7695 11.875 4.9219c3.1484 3.1484 4.918 7.418 4.918 11.875 0 4.4531-1.7695 8.7227-4.918 11.875-3.1484 3.1484-7.4219 4.918-11.875 4.918z"></path>
<g xmlns="http://www.w3.org/2000/svg" clip-path="url(#a)">
  <path d="m635.11 475.57h-8.3984v-73.539c-0.023438-8.9023-3.5586-17.438-9.8398-23.746l-52.414-52.414c-6.3086-6.2812-14.84-9.8164-23.746-9.8398h-81.934v-41.984c0-6.6836-2.6562-13.09-7.3789-17.812-4.7227-4.7266-11.133-7.3789-17.812-7.3789h-8.8906c-2.793-36.875-24.09-69.816-56.57-87.492-32.48-17.68-71.707-17.68-104.19 0-32.48 17.676-53.781 50.617-56.57 87.492h-17.289c-6.6797 0-13.09 2.6523-17.812 7.3789-4.7227 4.7227-7.3789 11.129-7.3789 17.812v201.52c-4.4531 0-8.7266 1.7695-11.875 4.918-3.1484 3.1484-4.918 7.4219-4.918 11.875v83.969c0 4.4531 1.7695 8.7266 4.918 11.875 3.1484 3.1484 7.4219 4.918 11.875 4.918h34.168c2.7344 21.828 15.988 40.926 35.48 51.125 19.488 10.199 42.738 10.199 62.23 0 19.488-10.199 32.746-29.297 35.48-51.125h135.51c2.7344 21.828 15.988 40.926 35.48 51.125 19.488 10.199 42.738 10.199 62.227 0 19.492-10.199 32.746-29.297 35.48-51.125h34.168c4.4531 0 8.7266-1.7695 11.875-4.918 3.1484-3.1484 4.918-7.4219 4.918-11.875v-83.969c0-4.4531-1.7695-8.7266-4.918-11.875-3.1484-3.1484-7.4219-4.918-11.875-4.918zm-94.398-142.75c4.4531 0.015625 8.7188 1.7812 11.875 4.9219l52.414 52.414v-0.003906c3.1367 3.1562 4.9062 7.4219 4.918 11.875v73.539h-151.14v-142.75zm-98.727-58.777v142.75h-86.289c28.625-40.766 65.723-102.38 69.047-151.14h8.8438c2.2266 0 4.3633 0.88672 5.9375 2.4609 1.5742 1.5742 2.4609 3.7109 2.4609 5.9375zm-125.95-109.16c24.418 0.22266 47.773 10.031 65.035 27.305 17.262 17.277 27.051 40.641 27.254 65.062v0.058594c0 0.46875 0.066407 0.93359 0.066407 1.4102 0.007812 62.344-70.727 156.02-92.305 183.26-21.684-27.242-92.418-120.92-92.418-183.26 0-0.48047 0.066407-0.94141 0.066407-1.4102v-0.058594c0.20703-24.422 9.9922-47.789 27.258-65.066 17.262-17.273 40.621-27.078 65.043-27.301zm-125.95 100.76h17.238c3.3594 48.762 40.422 110.38 69.047 151.14h-94.684v-142.75c0-4.6367 3.7617-8.3984 8.3984-8.3984zm-8.3984 167.94h106.81c5.7695 7.7578 10.816 14.273 14.449 18.852h0.003906c3.1641 4.0039 7.9844 6.3398 13.09 6.3398 5.1016 0 9.9258-2.3359 13.09-6.3398 3.6367-4.5664 8.6836-11.094 14.449-18.852h98.414v41.984h-260.3zm83.969 201.52c-13.359 0-26.176-5.3086-35.625-14.758-9.4453-9.4453-14.754-22.262-14.754-35.621 0-13.363 5.3086-26.18 14.754-35.625 9.4492-9.4492 22.266-14.758 35.625-14.758 13.363 0 26.176 5.3086 35.625 14.758 9.4492 9.4453 14.758 22.262 14.758 35.625-0.015625 13.355-5.3281 26.164-14.773 35.609-9.4453 9.4453-22.25 14.758-35.609 14.77zm268.7 0c-13.363 0-26.176-5.3086-35.625-14.758-9.4492-9.4453-14.758-22.262-14.758-35.621 0-13.363 5.3086-26.18 14.758-35.625 9.4492-9.4492 22.262-14.758 35.625-14.758 13.363 0 26.176 5.3086 35.625 14.758 9.4492 9.4453 14.758 22.262 14.758 35.625-0.015625 13.355-5.3281 26.164-14.773 35.609-9.4453 9.4453-22.25 14.758-35.609 14.77zm66.594-58.777c-2.7344-21.824-15.988-40.926-35.48-51.125-19.488-10.195-42.738-10.195-62.227 0-19.492 10.199-32.746 29.301-35.48 51.125h-135.51c-2.7344-21.824-15.992-40.926-35.48-51.125-19.492-10.195-42.742-10.195-62.23 0-19.492 10.199-32.746 29.301-35.48 51.125h-34.168v-16.793h16.793c4.6406 0 8.3984-3.7617 8.3984-8.3984s-3.7578-8.3945-8.3984-8.3945h-16.793v-50.383h470.22v50.383h-16.793c-4.6367 0-8.3984 3.7578-8.3984 8.3945s3.7617 8.3984 8.3984 8.3984h16.793v16.793z"></path>
 </g>
<path xmlns="http://www.w3.org/2000/svg" d="m492.36 441.98h83.969c4.4531 0 8.7266-1.7695 11.875-4.9219 3.1484-3.1484 4.918-7.418 4.918-11.875v-16.195c0.011719-4.457-1.7578-8.7344-4.9219-11.875l-42.582-42.582 0.003906 0.003906c-3.1562-3.1406-7.4219-4.9062-11.875-4.9219h-41.387c-4.4531 0-8.7266 1.7695-11.875 4.918-3.1484 3.1523-4.918 7.4219-4.918 11.875v58.777c0 4.457 1.7695 8.7266 4.918 11.875 3.1484 3.1523 7.4219 4.9219 11.875 4.9219zm0-75.57h41.387l42.582 42.578v16.195h-83.969z"></path>
<path xmlns="http://www.w3.org/2000/svg" d="m316.03 332.82c20.043 0 39.266-7.9609 53.438-22.133 14.172-14.176 22.133-33.395 22.133-53.438 0-20.043-7.9609-39.266-22.133-53.438s-33.395-22.137-53.438-22.137-39.266 7.9648-53.438 22.137-22.137 33.395-22.137 53.438c0.023438 20.035 7.9922 39.242 22.16 53.41 14.168 14.168 33.379 22.137 53.414 22.16zm0-134.35c15.586 0 30.539 6.1914 41.562 17.215 11.023 11.023 17.215 25.973 17.215 41.562 0 15.586-6.1914 30.539-17.215 41.562-11.023 11.02-25.977 17.215-41.562 17.215-15.59 0-30.539-6.1953-41.562-17.215-11.023-11.023-17.215-25.977-17.215-41.562 0.019532-15.586 6.2188-30.523 17.234-41.543 11.02-11.016 25.961-17.215 41.543-17.234z"></path>
<path xmlns="http://www.w3.org/2000/svg" d="m441.98 542.75h-83.969c-4.6406 0-8.3984 3.7578-8.3984 8.3945s3.7578 8.3984 8.3984 8.3984h83.969c4.6367 0 8.3945-3.7617 8.3945-8.3984s-3.7578-8.3945-8.3945-8.3945z"></path>

      </g>
      </svg>