<svg id="svg" fill="#8991ae" stroke="#8991ae" width="391" height="391" version="1.1" viewBox="64 64 672 672" xmlns="http://www.w3.org/2000/svg">
    <g id="IconSvg_bgCarrier" stroke-width="0"></g>
    <g id="IconSvg_tracerCarrier" stroke-linecap="round" stroke-linejoin="round" stroke="#CCCCCC" stroke-width="0">
      <defs xmlns="http://www.w3.org/2000/svg">
  <clipPath id="c">
   <path d="m394 148.09h12v38.906h-12z"></path>
  </clipPath>
  <clipPath id="b">
   <path d="m283 549h136v102.9h-136z"></path>
  </clipPath>
  <clipPath id="a">
   <path d="m306 570h88v81.902h-88z"></path>
  </clipPath>
 </defs>
<path xmlns="http://www.w3.org/2000/svg" d="m421.16 250.37c-2.5195 0-5.0391-2.0156-5.0391-5.0391v-14.609c0-9.0703-7.5586-16.625-16.625-16.625-9.0703 0-16.625 7.5586-16.625 16.625v14.609c0 2.5195-2.0156 5.0391-5.0391 5.0391-3.0234 0-5.0391-2.0156-5.0391-5.0391v-14.609c0-14.609 11.586-26.199 26.199-26.199 14.609 0 26.199 11.586 26.199 26.199v14.609c1.0039 3.0234-1.0117 5.0391-4.0312 5.0391z"></path>
<path xmlns="http://www.w3.org/2000/svg" d="m432.24 308.81h-64.488c-2.5195 0-5.0391-2.0156-5.0391-5.0391v-57.938c0-2.5195 2.0156-5.0391 5.0391-5.0391h64.992c2.5195 0 5.0391 2.0156 5.0391 5.0391v57.938c-0.50391 2.5195-2.5195 5.0391-5.543 5.0391zm-59.953-10.074h54.914v-48.367h-54.914z"></path>
<path xmlns="http://www.w3.org/2000/svg" d="m579.86 366.75c-2.5195 0-5.0391-2.0156-5.0391-5.0391 0-96.227-78.09-174.82-174.82-174.82s-174.82 78.594-174.82 174.82c0 2.5195-2.0156 5.0391-5.0391 5.0391-2.5195 0-5.0391-2.0156-5.0391-5.0391 0-101.77 83.129-184.39 184.9-184.39s184.9 83.129 184.9 184.9c0 2.5156-2.5195 4.5312-5.0391 4.5312z"></path>
<path xmlns="http://www.w3.org/2000/svg" d="m400 366.75c-2.0156 0-4.0312-1.0078-4.5352-3.0234-0.50391-1.0078-9.5742-23.176-40.305-23.176-30.73 0-40.305 22.168-40.305 23.176-1.0078 2.5195-4.0312 3.5273-6.5508 2.5195-2.5195-1.0078-3.5273-4.0312-2.5195-6.5508 0.50391-1.0078 11.586-29.223 49.375-29.223 37.785 0 48.871 28.215 49.375 29.223 1.0078 2.5195-0.50391 5.543-3.0234 6.5508-0.50391 0.50391-1.0078 0.50391-1.5117 0.50391z"></path>
<path xmlns="http://www.w3.org/2000/svg" d="m309.82 366.75c-2.0156 0-4.0312-1.0078-4.5352-3.0234-0.50391-1.0078-9.5742-23.176-40.305-23.176-30.73 0-40.305 22.168-40.305 23.176-1.0078 2.5195-4.0312 3.5273-6.5508 2.5195-2.5195-1.0078-3.5273-4.0312-2.5195-6.5508 0.50391-1.0078 11.586-29.223 49.375-29.223 37.785 0 48.871 28.215 49.375 29.223 1.0078 2.5195-0.50391 5.543-3.0234 6.5508 0 0.50391-0.50391 0.50391-1.5117 0.50391z"></path>
<path xmlns="http://www.w3.org/2000/svg" d="m579.86 366.75c-2.0156 0-4.0312-1.0078-4.5352-3.0234-0.50391-1.0078-9.5742-23.176-40.305-23.176s-40.305 22.168-40.305 23.176c-1.0078 2.5195-4.0312 3.5273-6.5508 2.5195-2.5195-1.0078-3.5273-4.0312-2.5195-6.5508 0.50391-1.0078 11.586-29.223 49.375-29.223 37.785 0 48.871 28.215 49.375 29.223 1.0078 2.5195-0.50391 5.543-3.0234 6.5508 0 0.50391-1.0078 0.50391-1.5117 0.50391z"></path>
<path xmlns="http://www.w3.org/2000/svg" d="m490.18 366.75c-2.0156 0-4.0312-1.0078-4.5352-3.0234-0.50391-1.0078-9.5742-23.176-40.305-23.176-30.73 0-40.305 22.168-40.305 23.176-1.0078 2.5195-4.0312 3.5273-6.5508 2.5195-2.5195-1.0078-3.5273-4.0312-2.5195-6.5508 0.50391-1.0078 11.586-29.223 49.375-29.223 37.785 0 48.871 28.215 49.375 29.223 1.0078 2.5195-0.50391 5.543-3.0234 6.5508-0.50391 0.50391-1.0078 0.50391-1.5117 0.50391z"></path>
<g xmlns="http://www.w3.org/2000/svg" clip-path="url(#c)">
  <path d="m400 186.89c-2.5195 0-5.0391-2.0156-5.0391-5.0391v-28.715c0-2.5195 2.0156-5.0391 5.0391-5.0391s5.0391 2.0156 5.0391 5.0391v29.223c-0.003906 2.5156-2.5234 4.5312-5.0391 4.5312z"></path>
 </g>
<path xmlns="http://www.w3.org/2000/svg" d="m400 456.93c-2.5195 0-5.0391-2.0156-5.0391-5.0391v-69.527c0-2.5195 2.0156-5.0391 5.0391-5.0391s5.0391 2.0156 5.0391 5.0391v69.527c-0.003906 2.5195-2.5234 5.0391-5.0391 5.0391z"></path>
<path xmlns="http://www.w3.org/2000/svg" d="m470.53 556.68c-34.258 0-57.434-33.25-57.434-33.754-3.0234-4.0312-7.0547-8.5664-11.586-8.0625-4.5352 0.50391-8.5664 6.0469-9.5742 8.0625-4.5352 10.578-10.078 17.129-17.633 20.152-6.0469 2.0156-12.594 1.5117-19.145-1.5117-6.0469-3.0234-9.0703-9.5742-7.0547-16.121l6.0469-20.152c3.0234-10.078 10.078-18.641 20.152-22.672l22.168-9.5742c9.5742-4.0312 18.137-3.0234 27.711-1.0078l59.449 13.602 24.184 56.93-3.5273 2.0156c-11.59 8.5664-23.176 12.094-33.758 12.094zm-68.516-51.895c6.5508 0 13.098 4.0312 19.145 12.09 1.5117 2.0156 32.746 47.359 75.066 22.168l-19.145-44.84-54.914-13.098c-9.5742-2.0156-15.113-2.5195-21.664 0.50391l-22.168 9.5742c-7.0547 3.0234-12.09 9.0703-14.609 16.625l-6.0469 20.152c-0.50391 2.0156 0.50391 4.0312 2.0156 5.0391 4.0312 2.0156 8.0625 2.5195 11.082 1.0078 4.5352-1.5117 8.5664-6.5508 12.09-14.609v-0.50391c0.50391-1.5117 6.5508-12.594 17.633-13.602 0.50781-0.50781 1.0117-0.50781 1.5156-0.50781z"></path>
<path xmlns="http://www.w3.org/2000/svg" d="m474.56 586.91-35.77-49.879 15.617 6.5508c1.0078 0.50391 25.191 10.078 44.336-6.5508l5.0391-4.5352 16.625 39.297zm-10.078-30.73 14.105 19.145 29.223-9.0703-7.5586-17.633c-12.594 8.5664-26.195 9.0703-35.77 7.5586z"></path>
<path xmlns="http://www.w3.org/2000/svg" d="m224.67 604.04-37.785-15.113c-2.5195-1.0078-3.5273-4.0312-2.5195-6.5508 1.0078-2.5195 4.0312-3.5273 6.5508-2.5195l29.223 11.586 56.426-137.54-90.184-36.273c-2.5195-1.0078-3.5273-4.0312-2.5195-6.5508 1.0078-2.5195 4.0312-3.5273 6.5508-2.5195l98.242 39.801z"></path>
<path xmlns="http://www.w3.org/2000/svg" d="m284.62 575.83-46.352-18.137c-2.5195-1.0078-3.5273-4.0312-3.0234-6.5508 1.0078-2.5195 4.0312-3.5273 6.5508-3.0234l37.281 14.609 34.258-79.602-38.289-16.121c-2.5195-1.0078-3.5273-4.0312-2.5195-6.5508s4.0312-3.5273 6.5508-2.5195l47.359 20.152z"></path>
<path xmlns="http://www.w3.org/2000/svg" d="m575.32 613.11-63.48-155.68 98.242-39.801c2.5195-1.0078 5.543 0 6.5508 2.5195 1.0078 2.5195 0 5.543-2.5195 6.5508l-89.176 36.273 56.426 137.54 29.223-11.586c2.5195-1.0078 5.543 0 6.5508 2.5195s0 5.543-2.5195 6.5508z"></path>
<path xmlns="http://www.w3.org/2000/svg" d="m515.37 584.9-41.816-97.738 47.359-20.152c2.5195-1.0078 5.543 0 6.5508 2.5195 1.0078 2.5195 0 5.543-2.5195 6.5508l-38.289 16.121 34.258 80.102 37.281-14.609c2.5195-1.0078 5.543 0.50391 6.5508 3.0234 1.0078 2.5195-0.50391 5.543-3.0234 6.5508z"></path>
<path xmlns="http://www.w3.org/2000/svg" d="m472.04 613.61c-5.0391 0-9.5742-2.0156-13.098-5.543l-44.84-47.359c-2.0156-2.0156-1.5117-5.0391 0-7.0547 2.0156-2.0156 5.0391-1.5117 7.0547 0l44.84 47.359c2.0156 2.0156 5.0391 3.0234 7.5586 2.5195 3.0234-0.50391 5.0391-2.5195 6.0469-5.543 1.0078-2.0156 0.50391-4.5352-1.0078-6.5508l-32.25-40.301c-1.5117-2.0156-1.5117-5.0391 1.0078-7.0547 2.0156-1.5117 5.0391-1.5117 7.0547 1.0078l32.746 40.809c3.5273 4.5352 4.5352 10.578 2.5195 15.617-2.0156 6.0469-7.0547 10.578-13.098 11.586-2.0156 0.50781-3.5273 0.50781-4.5352 0.50781z"></path>
<path xmlns="http://www.w3.org/2000/svg" d="m449.88 629.73c-6.5508 0-13.098-2.5195-17.633-7.5586l-37.785-39.297c-2.0156-2.0156-2.0156-5.0391 0-7.0547s5.0391-2.0156 7.0547 0l37.785 39.297c3.5273 4.0312 9.0703 5.543 14.105 4.0312 5.0391-1.0078 9.0703-4.5352 10.578-9.5742v-0.50391c1.0078-2.5195 3.5273-4.0312 6.0469-3.0234 2.5195 1.0078 4.0312 3.5273 3.0234 6.0469v0.50391c-2.5195 8.0625-9.0703 14.105-17.633 16.121-2.0156 1.0117-4.0312 1.0117-5.543 1.0117z"></path>
<path xmlns="http://www.w3.org/2000/svg" d="m425.69 644.35h-1.5117c-6.0469-0.50391-12.09-3.5273-16.625-8.5664l-31.234-34.258c-2.0156-2.0156-1.5117-5.0391 0.50391-7.0547s5.0391-1.5117 7.0547 0.50391l31.234 34.762c2.5195 3.0234 6.5508 5.0391 10.078 5.0391 6.0469 0.50391 11.082-3.0234 15.113-9.5742 1.5117-2.5195 4.5352-3.0234 6.5508-1.5117 2.5195 1.5117 3.0234 4.5352 1.5117 6.5508-7.5586 11.59-16.125 14.109-22.676 14.109z"></path>
<path xmlns="http://www.w3.org/2000/svg" d="m381.86 489.17h-1.0078c-26.703-6.0469-60.457-3.5273-60.457-3.5273-2.5195 0-5.0391-2.0156-5.0391-4.5352s2.0156-5.0391 4.5352-5.0391c1.5117 0 35.266-3.0234 63.48 3.5273 2.5195 0.50391 4.0312 3.0234 3.5273 6.0469-1.0117 2.0156-3.0273 3.5273-5.0391 3.5273z"></path>
<g xmlns="http://www.w3.org/2000/svg" clip-path="url(#b)">
  <path d="m401.51 651.9c-4.5352 0-9.0703-1.5117-12.09-5.0391l-14.613-14.105c-45.848-44.84-88.672-74.562-89.176-75.066-2.0156-1.5117-3.0234-4.5352-1.0078-6.5508 1.5117-2.0156 4.5352-3.0234 6.5508-1.0078 0.50391 0.50391 43.832 30.73 90.184 76.074l14.609 14.105c2.0156 2.0156 5.0391 3.0234 8.0625 2.0156 1.5117-0.50391 4.5352-2.0156 5.0391-6.0469 0.50391-2.5195 3.0234-4.5352 5.543-4.0312s4.5352 2.5195 4.0312 5.0391v0.50391c-1.0078 6.5508-5.543 11.586-11.586 13.602-1.5195 0.003907-3.5352 0.50781-5.5469 0.50781z"></path>
 </g>
<g xmlns="http://www.w3.org/2000/svg" clip-path="url(#a)">
  <path d="m369.27 651.4c-5.543 0-10.578-2.0156-15.113-5.543l-39.801-35.266c-6.0469-5.543-9.0703-14.105-7.0547-22.168l3.5273-14.609c0.50391-2.5195 3.5273-4.0312 6.0469-3.5273 2.5195 0.50391 4.0312 3.5273 3.5273 6.0469l-3.5273 14.609c-1.0078 4.5352 0.50391 9.5742 4.0312 12.594l39.801 35.266c4.0273 3.0273 9.0664 3.5312 14.105 1.5156l12.09-5.543c2.5195-1.0078 5.543 0 6.5508 2.5195 1.0078 2.5195 0 5.543-2.5195 6.5508l-12.09 5.543c-3.0234 1.5078-6.5508 2.0117-9.5742 2.0117z"></path>
 </g>

      </g>
     <g id="IconSvg_iconCarrier">
      <defs xmlns="http://www.w3.org/2000/svg">
  <clipPath id="c">
   <path d="m394 148.09h12v38.906h-12z"></path>
  </clipPath>
  <clipPath id="b">
   <path d="m283 549h136v102.9h-136z"></path>
  </clipPath>
  <clipPath id="a">
   <path d="m306 570h88v81.902h-88z"></path>
  </clipPath>
 </defs>
<path xmlns="http://www.w3.org/2000/svg" d="m421.16 250.37c-2.5195 0-5.0391-2.0156-5.0391-5.0391v-14.609c0-9.0703-7.5586-16.625-16.625-16.625-9.0703 0-16.625 7.5586-16.625 16.625v14.609c0 2.5195-2.0156 5.0391-5.0391 5.0391-3.0234 0-5.0391-2.0156-5.0391-5.0391v-14.609c0-14.609 11.586-26.199 26.199-26.199 14.609 0 26.199 11.586 26.199 26.199v14.609c1.0039 3.0234-1.0117 5.0391-4.0312 5.0391z"></path>
<path xmlns="http://www.w3.org/2000/svg" d="m432.24 308.81h-64.488c-2.5195 0-5.0391-2.0156-5.0391-5.0391v-57.938c0-2.5195 2.0156-5.0391 5.0391-5.0391h64.992c2.5195 0 5.0391 2.0156 5.0391 5.0391v57.938c-0.50391 2.5195-2.5195 5.0391-5.543 5.0391zm-59.953-10.074h54.914v-48.367h-54.914z"></path>
<path xmlns="http://www.w3.org/2000/svg" d="m579.86 366.75c-2.5195 0-5.0391-2.0156-5.0391-5.0391 0-96.227-78.09-174.82-174.82-174.82s-174.82 78.594-174.82 174.82c0 2.5195-2.0156 5.0391-5.0391 5.0391-2.5195 0-5.0391-2.0156-5.0391-5.0391 0-101.77 83.129-184.39 184.9-184.39s184.9 83.129 184.9 184.9c0 2.5156-2.5195 4.5312-5.0391 4.5312z"></path>
<path xmlns="http://www.w3.org/2000/svg" d="m400 366.75c-2.0156 0-4.0312-1.0078-4.5352-3.0234-0.50391-1.0078-9.5742-23.176-40.305-23.176-30.73 0-40.305 22.168-40.305 23.176-1.0078 2.5195-4.0312 3.5273-6.5508 2.5195-2.5195-1.0078-3.5273-4.0312-2.5195-6.5508 0.50391-1.0078 11.586-29.223 49.375-29.223 37.785 0 48.871 28.215 49.375 29.223 1.0078 2.5195-0.50391 5.543-3.0234 6.5508-0.50391 0.50391-1.0078 0.50391-1.5117 0.50391z"></path>
<path xmlns="http://www.w3.org/2000/svg" d="m309.82 366.75c-2.0156 0-4.0312-1.0078-4.5352-3.0234-0.50391-1.0078-9.5742-23.176-40.305-23.176-30.73 0-40.305 22.168-40.305 23.176-1.0078 2.5195-4.0312 3.5273-6.5508 2.5195-2.5195-1.0078-3.5273-4.0312-2.5195-6.5508 0.50391-1.0078 11.586-29.223 49.375-29.223 37.785 0 48.871 28.215 49.375 29.223 1.0078 2.5195-0.50391 5.543-3.0234 6.5508 0 0.50391-0.50391 0.50391-1.5117 0.50391z"></path>
<path xmlns="http://www.w3.org/2000/svg" d="m579.86 366.75c-2.0156 0-4.0312-1.0078-4.5352-3.0234-0.50391-1.0078-9.5742-23.176-40.305-23.176s-40.305 22.168-40.305 23.176c-1.0078 2.5195-4.0312 3.5273-6.5508 2.5195-2.5195-1.0078-3.5273-4.0312-2.5195-6.5508 0.50391-1.0078 11.586-29.223 49.375-29.223 37.785 0 48.871 28.215 49.375 29.223 1.0078 2.5195-0.50391 5.543-3.0234 6.5508 0 0.50391-1.0078 0.50391-1.5117 0.50391z"></path>
<path xmlns="http://www.w3.org/2000/svg" d="m490.18 366.75c-2.0156 0-4.0312-1.0078-4.5352-3.0234-0.50391-1.0078-9.5742-23.176-40.305-23.176-30.73 0-40.305 22.168-40.305 23.176-1.0078 2.5195-4.0312 3.5273-6.5508 2.5195-2.5195-1.0078-3.5273-4.0312-2.5195-6.5508 0.50391-1.0078 11.586-29.223 49.375-29.223 37.785 0 48.871 28.215 49.375 29.223 1.0078 2.5195-0.50391 5.543-3.0234 6.5508-0.50391 0.50391-1.0078 0.50391-1.5117 0.50391z"></path>
<g xmlns="http://www.w3.org/2000/svg" clip-path="url(#c)">
  <path d="m400 186.89c-2.5195 0-5.0391-2.0156-5.0391-5.0391v-28.715c0-2.5195 2.0156-5.0391 5.0391-5.0391s5.0391 2.0156 5.0391 5.0391v29.223c-0.003906 2.5156-2.5234 4.5312-5.0391 4.5312z"></path>
 </g>
<path xmlns="http://www.w3.org/2000/svg" d="m400 456.93c-2.5195 0-5.0391-2.0156-5.0391-5.0391v-69.527c0-2.5195 2.0156-5.0391 5.0391-5.0391s5.0391 2.0156 5.0391 5.0391v69.527c-0.003906 2.5195-2.5234 5.0391-5.0391 5.0391z"></path>
<path xmlns="http://www.w3.org/2000/svg" d="m470.53 556.68c-34.258 0-57.434-33.25-57.434-33.754-3.0234-4.0312-7.0547-8.5664-11.586-8.0625-4.5352 0.50391-8.5664 6.0469-9.5742 8.0625-4.5352 10.578-10.078 17.129-17.633 20.152-6.0469 2.0156-12.594 1.5117-19.145-1.5117-6.0469-3.0234-9.0703-9.5742-7.0547-16.121l6.0469-20.152c3.0234-10.078 10.078-18.641 20.152-22.672l22.168-9.5742c9.5742-4.0312 18.137-3.0234 27.711-1.0078l59.449 13.602 24.184 56.93-3.5273 2.0156c-11.59 8.5664-23.176 12.094-33.758 12.094zm-68.516-51.895c6.5508 0 13.098 4.0312 19.145 12.09 1.5117 2.0156 32.746 47.359 75.066 22.168l-19.145-44.84-54.914-13.098c-9.5742-2.0156-15.113-2.5195-21.664 0.50391l-22.168 9.5742c-7.0547 3.0234-12.09 9.0703-14.609 16.625l-6.0469 20.152c-0.50391 2.0156 0.50391 4.0312 2.0156 5.0391 4.0312 2.0156 8.0625 2.5195 11.082 1.0078 4.5352-1.5117 8.5664-6.5508 12.09-14.609v-0.50391c0.50391-1.5117 6.5508-12.594 17.633-13.602 0.50781-0.50781 1.0117-0.50781 1.5156-0.50781z"></path>
<path xmlns="http://www.w3.org/2000/svg" d="m474.56 586.91-35.77-49.879 15.617 6.5508c1.0078 0.50391 25.191 10.078 44.336-6.5508l5.0391-4.5352 16.625 39.297zm-10.078-30.73 14.105 19.145 29.223-9.0703-7.5586-17.633c-12.594 8.5664-26.195 9.0703-35.77 7.5586z"></path>
<path xmlns="http://www.w3.org/2000/svg" d="m224.67 604.04-37.785-15.113c-2.5195-1.0078-3.5273-4.0312-2.5195-6.5508 1.0078-2.5195 4.0312-3.5273 6.5508-2.5195l29.223 11.586 56.426-137.54-90.184-36.273c-2.5195-1.0078-3.5273-4.0312-2.5195-6.5508 1.0078-2.5195 4.0312-3.5273 6.5508-2.5195l98.242 39.801z"></path>
<path xmlns="http://www.w3.org/2000/svg" d="m284.62 575.83-46.352-18.137c-2.5195-1.0078-3.5273-4.0312-3.0234-6.5508 1.0078-2.5195 4.0312-3.5273 6.5508-3.0234l37.281 14.609 34.258-79.602-38.289-16.121c-2.5195-1.0078-3.5273-4.0312-2.5195-6.5508s4.0312-3.5273 6.5508-2.5195l47.359 20.152z"></path>
<path xmlns="http://www.w3.org/2000/svg" d="m575.32 613.11-63.48-155.68 98.242-39.801c2.5195-1.0078 5.543 0 6.5508 2.5195 1.0078 2.5195 0 5.543-2.5195 6.5508l-89.176 36.273 56.426 137.54 29.223-11.586c2.5195-1.0078 5.543 0 6.5508 2.5195s0 5.543-2.5195 6.5508z"></path>
<path xmlns="http://www.w3.org/2000/svg" d="m515.37 584.9-41.816-97.738 47.359-20.152c2.5195-1.0078 5.543 0 6.5508 2.5195 1.0078 2.5195 0 5.543-2.5195 6.5508l-38.289 16.121 34.258 80.102 37.281-14.609c2.5195-1.0078 5.543 0.50391 6.5508 3.0234 1.0078 2.5195-0.50391 5.543-3.0234 6.5508z"></path>
<path xmlns="http://www.w3.org/2000/svg" d="m472.04 613.61c-5.0391 0-9.5742-2.0156-13.098-5.543l-44.84-47.359c-2.0156-2.0156-1.5117-5.0391 0-7.0547 2.0156-2.0156 5.0391-1.5117 7.0547 0l44.84 47.359c2.0156 2.0156 5.0391 3.0234 7.5586 2.5195 3.0234-0.50391 5.0391-2.5195 6.0469-5.543 1.0078-2.0156 0.50391-4.5352-1.0078-6.5508l-32.25-40.301c-1.5117-2.0156-1.5117-5.0391 1.0078-7.0547 2.0156-1.5117 5.0391-1.5117 7.0547 1.0078l32.746 40.809c3.5273 4.5352 4.5352 10.578 2.5195 15.617-2.0156 6.0469-7.0547 10.578-13.098 11.586-2.0156 0.50781-3.5273 0.50781-4.5352 0.50781z"></path>
<path xmlns="http://www.w3.org/2000/svg" d="m449.88 629.73c-6.5508 0-13.098-2.5195-17.633-7.5586l-37.785-39.297c-2.0156-2.0156-2.0156-5.0391 0-7.0547s5.0391-2.0156 7.0547 0l37.785 39.297c3.5273 4.0312 9.0703 5.543 14.105 4.0312 5.0391-1.0078 9.0703-4.5352 10.578-9.5742v-0.50391c1.0078-2.5195 3.5273-4.0312 6.0469-3.0234 2.5195 1.0078 4.0312 3.5273 3.0234 6.0469v0.50391c-2.5195 8.0625-9.0703 14.105-17.633 16.121-2.0156 1.0117-4.0312 1.0117-5.543 1.0117z"></path>
<path xmlns="http://www.w3.org/2000/svg" d="m425.69 644.35h-1.5117c-6.0469-0.50391-12.09-3.5273-16.625-8.5664l-31.234-34.258c-2.0156-2.0156-1.5117-5.0391 0.50391-7.0547s5.0391-1.5117 7.0547 0.50391l31.234 34.762c2.5195 3.0234 6.5508 5.0391 10.078 5.0391 6.0469 0.50391 11.082-3.0234 15.113-9.5742 1.5117-2.5195 4.5352-3.0234 6.5508-1.5117 2.5195 1.5117 3.0234 4.5352 1.5117 6.5508-7.5586 11.59-16.125 14.109-22.676 14.109z"></path>
<path xmlns="http://www.w3.org/2000/svg" d="m381.86 489.17h-1.0078c-26.703-6.0469-60.457-3.5273-60.457-3.5273-2.5195 0-5.0391-2.0156-5.0391-4.5352s2.0156-5.0391 4.5352-5.0391c1.5117 0 35.266-3.0234 63.48 3.5273 2.5195 0.50391 4.0312 3.0234 3.5273 6.0469-1.0117 2.0156-3.0273 3.5273-5.0391 3.5273z"></path>
<g xmlns="http://www.w3.org/2000/svg" clip-path="url(#b)">
  <path d="m401.51 651.9c-4.5352 0-9.0703-1.5117-12.09-5.0391l-14.613-14.105c-45.848-44.84-88.672-74.562-89.176-75.066-2.0156-1.5117-3.0234-4.5352-1.0078-6.5508 1.5117-2.0156 4.5352-3.0234 6.5508-1.0078 0.50391 0.50391 43.832 30.73 90.184 76.074l14.609 14.105c2.0156 2.0156 5.0391 3.0234 8.0625 2.0156 1.5117-0.50391 4.5352-2.0156 5.0391-6.0469 0.50391-2.5195 3.0234-4.5352 5.543-4.0312s4.5352 2.5195 4.0312 5.0391v0.50391c-1.0078 6.5508-5.543 11.586-11.586 13.602-1.5195 0.003907-3.5352 0.50781-5.5469 0.50781z"></path>
 </g>
<g xmlns="http://www.w3.org/2000/svg" clip-path="url(#a)">
  <path d="m369.27 651.4c-5.543 0-10.578-2.0156-15.113-5.543l-39.801-35.266c-6.0469-5.543-9.0703-14.105-7.0547-22.168l3.5273-14.609c0.50391-2.5195 3.5273-4.0312 6.0469-3.5273 2.5195 0.50391 4.0312 3.5273 3.5273 6.0469l-3.5273 14.609c-1.0078 4.5352 0.50391 9.5742 4.0312 12.594l39.801 35.266c4.0273 3.0273 9.0664 3.5312 14.105 1.5156l12.09-5.543c2.5195-1.0078 5.543 0 6.5508 2.5195 1.0078 2.5195 0 5.543-2.5195 6.5508l-12.09 5.543c-3.0234 1.5078-6.5508 2.0117-9.5742 2.0117z"></path>
 </g>

      </g>
      </svg>