<svg id="svg" fill="#8991ae" stroke="#8991ae" width="391" height="391" version="1.1" viewBox="64 64 672 672" xmlns="http://www.w3.org/2000/svg">
    <g id="IconSvg_bgCarrier" stroke-width="0"></g>
    <g id="IconSvg_tracerCarrier" stroke-linecap="round" stroke-linejoin="round" stroke="#CCCCCC" stroke-width="0">
      <g xmlns="http://www.w3.org/2000/svg">
  <path d="m528.16 179.57c-56.094 0-92.281 45.285-92.281 92.266 0.003907 39.594 25.613 74.16 62.809 86.824l22.418 44.848c1.2148 2.4336 3.3867 3.7734 5.7031 4.168 18.73 0 36.23 0.18359 54.242 0.18359 13.137 0 23.617 10.48 23.617 23.617 0 13.137-10.48 23.617-23.617 23.617h-133.82c-27.73 0-50.383 20.363-50.383 48.094 0 30.305 26.145 46.34 51.016 46.34 38.621 0.0625 84.02 0.03125 124.94 0.03125 17.375 0 31.266 9.7656 31.609 27.074 0 16.832-17.762 28.027-31.227 28.027h-288.59l16.711-33.441c37.199-12.664 62.809-47.238 62.809-86.84 0-15.48-3.832-30.125-10.594-42.957-2.0234-3.8555-6.7891-5.3359-10.641-3.3047-3.8477 2.0273-5.3203 6.793-3.2891 10.641 5.6055 10.637 8.7812 22.73 8.7773 35.625 0 34.07-22.449 63.969-55.164 73.477-2.1094 0.61328-3.8633 2.0781-4.8438 4.043l-16.512 33.027-16.512-33.039c-0.98047-1.9648-2.7344-3.4297-4.8438-4.043-32.715-9.5078-55.16-39.395-55.164-73.461 0-42.223 33.961-76.336 76.184-76.523h0.32422 0.015624c19.801 0 37.754 7.4727 51.336 19.773 3.2227 2.9141 8.1992 2.668 11.117-0.55469 2.9141-3.2227 2.668-8.1992-0.55469-11.117-16.359-14.809-38.113-23.844-61.883-23.848h-0.38281-0.015625c-50.715 0.21094-91.883 41.551-91.883 92.266 0.003906 39.594 25.613 74.16 62.809 86.824l22.418 44.848c1.543 3.082 4.7617 4.2422 8.3164 4.2422 99.836 0.21875 200.01 0.10938 299.97 0.10938 31.797 0 47.156-24.445 47.156-43.418-0.14062-26.012-21.438-43.172-47.449-43.172h-123.46c-24.93 0-36.684-16.266-36.684-30.965 0.19141-19.055 15.477-32.012 34.578-32.012h133.82c21.645 0 39.359-17.715 39.359-39.359 0-21.645-17.715-39.359-39.359-39.359h-40.16l16.711-33.441c37.199-12.664 62.809-47.238 62.809-86.84 0-15.613-3.8906-30.383-10.762-43.297-2.0469-3.8398-6.8164-5.293-10.656-3.2422-3.832 2.043-5.2812 6.8047-3.2422 10.641 5.6953 10.703 8.918 22.898 8.918 35.902 0 34.07-22.449 63.969-55.164 73.477-2.1094 0.61328-3.8633 2.0781-4.8438 4.043l-16.512 33.027-16.512-33.039c-0.98047-1.9648-2.7344-3.4297-4.8438-4.043-32.715-9.5078-55.16-39.395-55.164-73.461 0-42.223 33.961-76.336 76.184-76.523 18.527 0 38.68 8.7891 51.445 19.559 3.2344 2.9023 8.2109 2.6367 11.117-0.60156 2.9023-3.2344 2.6367-8.2109-0.60156-11.117-16.324-14.656-37.977-23.582-61.609-23.586z"></path>
  <path d="m528.15 218.93c-29.125 0-52.906 23.781-52.906 52.906s23.781 52.906 52.906 52.906 52.906-23.785 52.906-52.906c0-29.125-23.781-52.906-52.906-52.906zm0 15.742c20.617 0 37.164 16.547 37.164 37.164 0 20.617-16.547 37.16-37.16 37.16-20.617 0-37.16-16.547-37.16-37.16-0.003907-20.617 16.543-37.164 37.156-37.164z"></path>
  <path d="m271.85 431.47c-29.125 0-52.906 23.781-52.906 52.906s23.781 52.906 52.906 52.906 52.906-23.781 52.906-52.906-23.781-52.906-52.906-52.906zm0 15.742c20.617 0 37.16 16.547 37.16 37.16 0 20.617-16.547 37.16-37.16 37.16-20.617 0.003906-37.16-16.539-37.16-37.156 0-20.613 16.543-37.16 37.16-37.16z"></path>
 </g>

      </g>
     <g id="IconSvg_iconCarrier">
      <g xmlns="http://www.w3.org/2000/svg">
  <path d="m528.16 179.57c-56.094 0-92.281 45.285-92.281 92.266 0.003907 39.594 25.613 74.16 62.809 86.824l22.418 44.848c1.2148 2.4336 3.3867 3.7734 5.7031 4.168 18.73 0 36.23 0.18359 54.242 0.18359 13.137 0 23.617 10.48 23.617 23.617 0 13.137-10.48 23.617-23.617 23.617h-133.82c-27.73 0-50.383 20.363-50.383 48.094 0 30.305 26.145 46.34 51.016 46.34 38.621 0.0625 84.02 0.03125 124.94 0.03125 17.375 0 31.266 9.7656 31.609 27.074 0 16.832-17.762 28.027-31.227 28.027h-288.59l16.711-33.441c37.199-12.664 62.809-47.238 62.809-86.84 0-15.48-3.832-30.125-10.594-42.957-2.0234-3.8555-6.7891-5.3359-10.641-3.3047-3.8477 2.0273-5.3203 6.793-3.2891 10.641 5.6055 10.637 8.7812 22.73 8.7773 35.625 0 34.07-22.449 63.969-55.164 73.477-2.1094 0.61328-3.8633 2.0781-4.8438 4.043l-16.512 33.027-16.512-33.039c-0.98047-1.9648-2.7344-3.4297-4.8438-4.043-32.715-9.5078-55.16-39.395-55.164-73.461 0-42.223 33.961-76.336 76.184-76.523h0.32422 0.015624c19.801 0 37.754 7.4727 51.336 19.773 3.2227 2.9141 8.1992 2.668 11.117-0.55469 2.9141-3.2227 2.668-8.1992-0.55469-11.117-16.359-14.809-38.113-23.844-61.883-23.848h-0.38281-0.015625c-50.715 0.21094-91.883 41.551-91.883 92.266 0.003906 39.594 25.613 74.16 62.809 86.824l22.418 44.848c1.543 3.082 4.7617 4.2422 8.3164 4.2422 99.836 0.21875 200.01 0.10938 299.97 0.10938 31.797 0 47.156-24.445 47.156-43.418-0.14062-26.012-21.438-43.172-47.449-43.172h-123.46c-24.93 0-36.684-16.266-36.684-30.965 0.19141-19.055 15.477-32.012 34.578-32.012h133.82c21.645 0 39.359-17.715 39.359-39.359 0-21.645-17.715-39.359-39.359-39.359h-40.16l16.711-33.441c37.199-12.664 62.809-47.238 62.809-86.84 0-15.613-3.8906-30.383-10.762-43.297-2.0469-3.8398-6.8164-5.293-10.656-3.2422-3.832 2.043-5.2812 6.8047-3.2422 10.641 5.6953 10.703 8.918 22.898 8.918 35.902 0 34.07-22.449 63.969-55.164 73.477-2.1094 0.61328-3.8633 2.0781-4.8438 4.043l-16.512 33.027-16.512-33.039c-0.98047-1.9648-2.7344-3.4297-4.8438-4.043-32.715-9.5078-55.16-39.395-55.164-73.461 0-42.223 33.961-76.336 76.184-76.523 18.527 0 38.68 8.7891 51.445 19.559 3.2344 2.9023 8.2109 2.6367 11.117-0.60156 2.9023-3.2344 2.6367-8.2109-0.60156-11.117-16.324-14.656-37.977-23.582-61.609-23.586z"></path>
  <path d="m528.15 218.93c-29.125 0-52.906 23.781-52.906 52.906s23.781 52.906 52.906 52.906 52.906-23.785 52.906-52.906c0-29.125-23.781-52.906-52.906-52.906zm0 15.742c20.617 0 37.164 16.547 37.164 37.164 0 20.617-16.547 37.16-37.16 37.16-20.617 0-37.16-16.547-37.16-37.16-0.003907-20.617 16.543-37.164 37.156-37.164z"></path>
  <path d="m271.85 431.47c-29.125 0-52.906 23.781-52.906 52.906s23.781 52.906 52.906 52.906 52.906-23.781 52.906-52.906-23.781-52.906-52.906-52.906zm0 15.742c20.617 0 37.16 16.547 37.16 37.16 0 20.617-16.547 37.16-37.16 37.16-20.617 0.003906-37.16-16.539-37.16-37.156 0-20.613 16.543-37.16 37.16-37.16z"></path>
 </g>

      </g>
      </svg>