<svg id="svg" fill="#8991ae" stroke="#8991ae" width="391" height="391" version="1.1" viewBox="64 64 672 672" xmlns="http://www.w3.org/2000/svg">
    <g id="IconSvg_bgCarrier" stroke-width="0"></g>
    <g id="IconSvg_tracerCarrier" stroke-linecap="round" stroke-linejoin="round" stroke="#CCCCCC" stroke-width="0">
      <defs xmlns="http://www.w3.org/2000/svg">
  <clipPath id="a">
   <path d="m148.09 148.09h503.81v503.81h-503.81z"></path>
  </clipPath>
 </defs>
<g xmlns="http://www.w3.org/2000/svg" clip-path="url(#a)">
  <path d="m400 148.09c-48.883-0.050781-96.723 14.121-137.69 40.785-40.965 26.664-73.289 64.676-93.027 109.39-19.742 44.719-26.043 94.211-18.145 142.45 7.9023 48.238 29.668 93.137 62.645 129.22 32.973 36.082 75.734 61.789 123.07 73.992 47.336 12.199 97.195 10.367 143.5-5.2773 29.715 15.465 64.621 17.492 95.93 5.5781 31.305-11.914 56.031-36.641 67.945-67.945 11.914-31.309 9.8867-66.215-5.5781-95.93 17.137-50.695 17.664-105.53 1.5117-156.55-16.152-51.02-48.145-95.559-91.332-127.16s-95.32-48.605-148.83-48.559zm0 487.02c-49.238 0.046875-97.25-15.348-137.28-44.023-40.027-28.672-70.051-69.176-85.848-115.81-15.797-46.633-16.566-97.047-2.207-144.14 14.359-47.094 43.133-88.5 82.262-118.39 39.129-29.883 86.648-46.746 135.86-48.203 49.215-1.4609 97.648 12.551 138.48 40.062 40.836 27.512 72.008 67.141 89.137 113.3 17.129 46.164 19.348 96.535 6.3438 144.02-4.1406-5.2539-8.7188-10.148-13.688-14.629 8-35.738 6.8398-72.918-3.3633-108.09s-29.125-67.195-55.012-93.105c-0.13281-0.15234-0.17578-0.33594-0.32031-0.48047-0.14453-0.14453-0.32812-0.18359-0.48047-0.32031l0.003906 0.003907c-40.852-40.746-96.199-63.625-153.89-63.625-57.699 0-113.04 22.879-153.9 63.625-0.15234 0.13281-0.33594 0.17578-0.48047 0.32031-0.14453 0.14453-0.18359 0.32812-0.32031 0.48047l0.003907-0.003907c-40.746 40.855-63.625 96.199-63.625 153.9 0 57.695 22.879 113.04 63.625 153.89 0.13281 0.15234 0.17578 0.33594 0.32031 0.48047s0.32812 0.18359 0.48047 0.32031l-0.003907-0.003906c25.906 25.883 57.934 44.805 93.102 55.008 35.172 10.207 72.348 11.363 108.09 3.3672 4.4844 4.9688 9.3789 9.5469 14.637 13.688-20.18 5.5352-41.004 8.3438-61.926 8.3555zm57.484-189.5-22.496-22.496c5.9219-8.875 8.2031-19.688 6.3828-30.199-1.8242-10.512-7.6172-19.922-16.184-26.285v-67.391c-0.03125-6.6719-2.6953-13.059-7.4141-17.777-4.7148-4.7188-11.105-7.3828-17.773-7.4141-6.6836 0-13.09 2.6523-17.812 7.3789-4.7266 4.7227-7.3789 11.129-7.3789 17.812v67.395-0.003906c-7.0078 5.3086-12.172 12.688-14.754 21.094l-45.258 16.473c-6.2578 2.3125-11.348 7.0039-14.168 13.051-2.8164 6.043-3.1328 12.957-0.87891 19.238 2.2852 6.2734 6.9688 11.387 13.02 14.207 6.0547 2.8242 12.98 3.1289 19.258 0.84766l45.098-16.391c6.832 4.4961 14.836 6.8828 23.016 6.8594 8.1797-0.023437 16.168-2.457 22.973-6.9961l22.496 22.496c-16.758 19.203-26.777 43.355-28.539 68.781-1.7617 25.426 4.8398 50.73 18.793 72.059-9.0781 1.6055-18.258 2.582-27.469 2.9219v-16.539c0-4.6406-3.7578-8.3984-8.3945-8.3984-4.6406 0-8.3984 3.7578-8.3984 8.3984v16.582c-47.602-1.9531-92.957-20.77-127.96-53.086l11.664-11.664v0.003906c1.6211-1.5664 2.543-3.7148 2.5625-5.9688 0.019531-2.2539-0.86328-4.418-2.457-6.0117-1.5938-1.5898-3.7578-2.4766-6.0117-2.457-2.25 0.019532-4.4023 0.94141-5.9648 2.5625l-11.664 11.664c-32.316-35.004-51.133-80.359-53.086-127.96h16.586c4.6367 0 8.3945-3.7578 8.3945-8.3945 0-4.6406-3.7578-8.3984-8.3945-8.3984h-16.586c1.9531-47.602 20.77-92.957 53.086-127.96l11.664 11.664c1.5625 1.6211 3.7148 2.543 5.9648 2.5625 2.2539 0.019531 4.418-0.86328 6.0117-2.457s2.4766-3.7578 2.457-6.0117c-0.019532-2.25-0.94141-4.4023-2.5625-5.9648l-11.664-11.664c35.004-32.316 80.359-51.133 127.96-53.086v16.586c0 4.6367 3.7578 8.3945 8.3984 8.3945 4.6367 0 8.3945-3.7578 8.3945-8.3945v-16.586c47.602 1.9531 92.957 20.77 127.96 53.086l-11.664 11.664c-1.6211 1.5625-2.543 3.7148-2.5625 5.9648-0.019531 2.2539 0.86719 4.418 2.457 6.0117 1.5938 1.5938 3.7578 2.4766 6.0117 2.457 2.2539-0.019532 4.4023-0.94141 5.9688-2.5625l11.664-11.664h-0.003907c32.316 35.004 51.133 80.359 53.086 127.96h-16.582c-4.6406 0-8.3984 3.7578-8.3984 8.3984 0 4.6367 3.7578 8.3945 8.3984 8.3945h16.543-0.003907c-0.34766 9.2148-1.332 18.391-2.9453 27.469-21.328-13.953-46.633-20.555-72.059-18.793-25.426 1.7617-49.578 11.781-68.781 28.539zm-98.848-39.508c0.80469 5.6055 2.75 10.984 5.7188 15.805l-38.062 13.828c-2.0977 0.76562-4.4141 0.66406-6.4336-0.28125-2.0234-0.94531-3.582-2.6562-4.3398-4.7539-0.77344-2.125-0.63672-4.4727 0.375-6.4922 0.90625-1.9961 2.582-3.5352 4.6445-4.2656zm49.758-47.246c-5.5391-1.1328-11.254-1.1328-16.793 0v-59.617c0-4.6406 3.7578-8.3984 8.3984-8.3984 2.2656-0.003906 4.4297 0.92969 5.9844 2.5781 1.5625 1.5312 2.4297 3.6328 2.4102 5.8203zm-33.586 41.145c0-6.6836 2.6523-13.09 7.3789-17.812 4.7227-4.7266 11.129-7.3789 17.812-7.3789 6.6797 0 13.086 2.6523 17.812 7.3789 4.7227 4.7227 7.375 11.129 7.375 17.812 0 6.6797-2.6523 13.086-7.375 17.812-4.7266 4.7227-11.133 7.375-17.812 7.375-6.6836 0-13.09-2.6523-17.812-7.375-4.7266-4.7266-7.3789-11.133-7.3789-17.812zm159.54 235.11c-26.723 0-52.352-10.617-71.25-29.512-18.895-18.898-29.512-44.527-29.512-71.25s10.617-52.352 29.512-71.25c18.898-18.895 44.527-29.512 71.25-29.512s52.352 10.617 71.25 29.512c18.895 18.898 29.512 44.527 29.512 71.25-0.027344 26.715-10.652 52.328-29.543 71.219s-44.504 29.516-71.219 29.543z"></path>
 </g>
<path xmlns="http://www.w3.org/2000/svg" d="m601.52 525.95c0-4.6367-3.7617-8.3945-8.3984-8.3945s-8.3945 3.7578-8.3945 8.3945v8.3984h-15.277l6.7188-40.605c0.60938-4.5-2.4648-8.668-6.9414-9.4102-4.4805-0.74609-8.7383 2.2031-9.6172 6.6562l-8.3984 50.383 0.003906-0.003906c-0.40625 2.4414 0.28516 4.9375 1.8867 6.8203 1.6055 1.8828 3.957 2.9648 6.4336 2.9531h25.191v16.793c0 4.6406 3.7578 8.3984 8.3945 8.3984s8.3984-3.7578 8.3984-8.3984v-16.793h8.3984-0.003906c4.6367 0 8.3984-3.7578 8.3984-8.3945 0-4.6406-3.7617-8.3984-8.3984-8.3984h-8.3945z"></path>
<path xmlns="http://www.w3.org/2000/svg" d="m534.35 559.54h-25.469c16.273-10.395 25.469-21.75 25.469-41.984 0-12-6.4023-23.09-16.793-29.09-10.391-5.9961-23.195-5.9961-33.59 0-10.391 6-16.793 17.09-16.793 29.09 0 4.6367 3.7617 8.3945 8.3984 8.3945 4.6367 0 8.3945-3.7578 8.3945-8.3945 0-6 3.2031-11.543 8.3984-14.543 5.1953-3 11.598-3 16.793 0s8.3984 8.543 8.3984 14.543c0 19.086-10.992 25.492-45.738 42.824-3.5391 1.7109-5.4141 5.6523-4.5156 9.4805 0.90234 3.8281 4.3359 6.5156 8.2695 6.4727h58.777c4.6367 0 8.3984-3.7578 8.3984-8.3984 0-4.6367-3.7617-8.3945-8.3984-8.3945z"></path>

      </g>
     <g id="IconSvg_iconCarrier">
      <defs xmlns="http://www.w3.org/2000/svg">
  <clipPath id="a">
   <path d="m148.09 148.09h503.81v503.81h-503.81z"></path>
  </clipPath>
 </defs>
<g xmlns="http://www.w3.org/2000/svg" clip-path="url(#a)">
  <path d="m400 148.09c-48.883-0.050781-96.723 14.121-137.69 40.785-40.965 26.664-73.289 64.676-93.027 109.39-19.742 44.719-26.043 94.211-18.145 142.45 7.9023 48.238 29.668 93.137 62.645 129.22 32.973 36.082 75.734 61.789 123.07 73.992 47.336 12.199 97.195 10.367 143.5-5.2773 29.715 15.465 64.621 17.492 95.93 5.5781 31.305-11.914 56.031-36.641 67.945-67.945 11.914-31.309 9.8867-66.215-5.5781-95.93 17.137-50.695 17.664-105.53 1.5117-156.55-16.152-51.02-48.145-95.559-91.332-127.16s-95.32-48.605-148.83-48.559zm0 487.02c-49.238 0.046875-97.25-15.348-137.28-44.023-40.027-28.672-70.051-69.176-85.848-115.81-15.797-46.633-16.566-97.047-2.207-144.14 14.359-47.094 43.133-88.5 82.262-118.39 39.129-29.883 86.648-46.746 135.86-48.203 49.215-1.4609 97.648 12.551 138.48 40.062 40.836 27.512 72.008 67.141 89.137 113.3 17.129 46.164 19.348 96.535 6.3438 144.02-4.1406-5.2539-8.7188-10.148-13.688-14.629 8-35.738 6.8398-72.918-3.3633-108.09s-29.125-67.195-55.012-93.105c-0.13281-0.15234-0.17578-0.33594-0.32031-0.48047-0.14453-0.14453-0.32812-0.18359-0.48047-0.32031l0.003906 0.003907c-40.852-40.746-96.199-63.625-153.89-63.625-57.699 0-113.04 22.879-153.9 63.625-0.15234 0.13281-0.33594 0.17578-0.48047 0.32031-0.14453 0.14453-0.18359 0.32812-0.32031 0.48047l0.003907-0.003907c-40.746 40.855-63.625 96.199-63.625 153.9 0 57.695 22.879 113.04 63.625 153.89 0.13281 0.15234 0.17578 0.33594 0.32031 0.48047s0.32812 0.18359 0.48047 0.32031l-0.003907-0.003906c25.906 25.883 57.934 44.805 93.102 55.008 35.172 10.207 72.348 11.363 108.09 3.3672 4.4844 4.9688 9.3789 9.5469 14.637 13.688-20.18 5.5352-41.004 8.3438-61.926 8.3555zm57.484-189.5-22.496-22.496c5.9219-8.875 8.2031-19.688 6.3828-30.199-1.8242-10.512-7.6172-19.922-16.184-26.285v-67.391c-0.03125-6.6719-2.6953-13.059-7.4141-17.777-4.7148-4.7188-11.105-7.3828-17.773-7.4141-6.6836 0-13.09 2.6523-17.812 7.3789-4.7266 4.7227-7.3789 11.129-7.3789 17.812v67.395-0.003906c-7.0078 5.3086-12.172 12.688-14.754 21.094l-45.258 16.473c-6.2578 2.3125-11.348 7.0039-14.168 13.051-2.8164 6.043-3.1328 12.957-0.87891 19.238 2.2852 6.2734 6.9688 11.387 13.02 14.207 6.0547 2.8242 12.98 3.1289 19.258 0.84766l45.098-16.391c6.832 4.4961 14.836 6.8828 23.016 6.8594 8.1797-0.023437 16.168-2.457 22.973-6.9961l22.496 22.496c-16.758 19.203-26.777 43.355-28.539 68.781-1.7617 25.426 4.8398 50.73 18.793 72.059-9.0781 1.6055-18.258 2.582-27.469 2.9219v-16.539c0-4.6406-3.7578-8.3984-8.3945-8.3984-4.6406 0-8.3984 3.7578-8.3984 8.3984v16.582c-47.602-1.9531-92.957-20.77-127.96-53.086l11.664-11.664v0.003906c1.6211-1.5664 2.543-3.7148 2.5625-5.9688 0.019531-2.2539-0.86328-4.418-2.457-6.0117-1.5938-1.5898-3.7578-2.4766-6.0117-2.457-2.25 0.019532-4.4023 0.94141-5.9648 2.5625l-11.664 11.664c-32.316-35.004-51.133-80.359-53.086-127.96h16.586c4.6367 0 8.3945-3.7578 8.3945-8.3945 0-4.6406-3.7578-8.3984-8.3945-8.3984h-16.586c1.9531-47.602 20.77-92.957 53.086-127.96l11.664 11.664c1.5625 1.6211 3.7148 2.543 5.9648 2.5625 2.2539 0.019531 4.418-0.86328 6.0117-2.457s2.4766-3.7578 2.457-6.0117c-0.019532-2.25-0.94141-4.4023-2.5625-5.9648l-11.664-11.664c35.004-32.316 80.359-51.133 127.96-53.086v16.586c0 4.6367 3.7578 8.3945 8.3984 8.3945 4.6367 0 8.3945-3.7578 8.3945-8.3945v-16.586c47.602 1.9531 92.957 20.77 127.96 53.086l-11.664 11.664c-1.6211 1.5625-2.543 3.7148-2.5625 5.9648-0.019531 2.2539 0.86719 4.418 2.457 6.0117 1.5938 1.5938 3.7578 2.4766 6.0117 2.457 2.2539-0.019532 4.4023-0.94141 5.9688-2.5625l11.664-11.664h-0.003907c32.316 35.004 51.133 80.359 53.086 127.96h-16.582c-4.6406 0-8.3984 3.7578-8.3984 8.3984 0 4.6367 3.7578 8.3945 8.3984 8.3945h16.543-0.003907c-0.34766 9.2148-1.332 18.391-2.9453 27.469-21.328-13.953-46.633-20.555-72.059-18.793-25.426 1.7617-49.578 11.781-68.781 28.539zm-98.848-39.508c0.80469 5.6055 2.75 10.984 5.7188 15.805l-38.062 13.828c-2.0977 0.76562-4.4141 0.66406-6.4336-0.28125-2.0234-0.94531-3.582-2.6562-4.3398-4.7539-0.77344-2.125-0.63672-4.4727 0.375-6.4922 0.90625-1.9961 2.582-3.5352 4.6445-4.2656zm49.758-47.246c-5.5391-1.1328-11.254-1.1328-16.793 0v-59.617c0-4.6406 3.7578-8.3984 8.3984-8.3984 2.2656-0.003906 4.4297 0.92969 5.9844 2.5781 1.5625 1.5312 2.4297 3.6328 2.4102 5.8203zm-33.586 41.145c0-6.6836 2.6523-13.09 7.3789-17.812 4.7227-4.7266 11.129-7.3789 17.812-7.3789 6.6797 0 13.086 2.6523 17.812 7.3789 4.7227 4.7227 7.375 11.129 7.375 17.812 0 6.6797-2.6523 13.086-7.375 17.812-4.7266 4.7227-11.133 7.375-17.812 7.375-6.6836 0-13.09-2.6523-17.812-7.375-4.7266-4.7266-7.3789-11.133-7.3789-17.812zm159.54 235.11c-26.723 0-52.352-10.617-71.25-29.512-18.895-18.898-29.512-44.527-29.512-71.25s10.617-52.352 29.512-71.25c18.898-18.895 44.527-29.512 71.25-29.512s52.352 10.617 71.25 29.512c18.895 18.898 29.512 44.527 29.512 71.25-0.027344 26.715-10.652 52.328-29.543 71.219s-44.504 29.516-71.219 29.543z"></path>
 </g>
<path xmlns="http://www.w3.org/2000/svg" d="m601.52 525.95c0-4.6367-3.7617-8.3945-8.3984-8.3945s-8.3945 3.7578-8.3945 8.3945v8.3984h-15.277l6.7188-40.605c0.60938-4.5-2.4648-8.668-6.9414-9.4102-4.4805-0.74609-8.7383 2.2031-9.6172 6.6562l-8.3984 50.383 0.003906-0.003906c-0.40625 2.4414 0.28516 4.9375 1.8867 6.8203 1.6055 1.8828 3.957 2.9648 6.4336 2.9531h25.191v16.793c0 4.6406 3.7578 8.3984 8.3945 8.3984s8.3984-3.7578 8.3984-8.3984v-16.793h8.3984-0.003906c4.6367 0 8.3984-3.7578 8.3984-8.3945 0-4.6406-3.7617-8.3984-8.3984-8.3984h-8.3945z"></path>
<path xmlns="http://www.w3.org/2000/svg" d="m534.35 559.54h-25.469c16.273-10.395 25.469-21.75 25.469-41.984 0-12-6.4023-23.09-16.793-29.09-10.391-5.9961-23.195-5.9961-33.59 0-10.391 6-16.793 17.09-16.793 29.09 0 4.6367 3.7617 8.3945 8.3984 8.3945 4.6367 0 8.3945-3.7578 8.3945-8.3945 0-6 3.2031-11.543 8.3984-14.543 5.1953-3 11.598-3 16.793 0s8.3984 8.543 8.3984 14.543c0 19.086-10.992 25.492-45.738 42.824-3.5391 1.7109-5.4141 5.6523-4.5156 9.4805 0.90234 3.8281 4.3359 6.5156 8.2695 6.4727h58.777c4.6367 0 8.3984-3.7578 8.3984-8.3984 0-4.6367-3.7617-8.3945-8.3984-8.3945z"></path>

      </g>
      </svg>