<svg id="svg" fill="#8991ae" stroke="#8991ae" width="391" height="391" version="1.1" viewBox="64 64 672 672" xmlns="http://www.w3.org/2000/svg">
    <g id="IconSvg_bgCarrier" stroke-width="0"></g>
    <g id="IconSvg_tracerCarrier" stroke-linecap="round" stroke-linejoin="round" stroke="#CCCCCC" stroke-width="0">
      <g xmlns="http://www.w3.org/2000/svg">
  <path d="m475.93 530.71-57.844-34.512c-1.4805-1.0078-9.4688-5.5977-21.852 3.5039-0.48047 0.35547-0.91406 0.75391-1.3008 1.1953 0 0-21.742 25.207-21.75 25.215-1.6289 1.9062-3.8984 1.7539-13.391-4.3516-14.359-9.1953-64.938-59.781-74.469-74.652-5.7695-9.0039-5.9023-11.25-4-12.895l25.191-21.734c0.44141-0.38672 0.84375-0.82031 1.1953-1.2812 9.1172-12.367 4.5273-20.379 3.7773-21.461l-34.77-58.254c-1.1016-1.8359-2.8984-3.1406-4.9766-3.6289-13.926-3.2422-26.582-1.1641-37.59 6.1797-25.316 16.918-32.062 56.238-32.34 57.891-0.046875 0.32422-0.085938 0.64453-0.09375 0.96875-2.793 69.133 67.953 138.71 70.965 141.63 0.039062 0.046874 0.085937 0.085937 0.13281 0.13281 0.023438 0.023438 0.039062 0.046875 0.0625 0.070312 2.875 2.9531 69.832 71.055 137.62 71.047 1.332 0 2.6758-0.03125 4.0156-0.085938 0.32422-0.015625 0.64453-0.046875 0.96875-0.10156 1.6602-0.26953 40.973-7.0234 57.891-32.34 7.3516-10.988 9.4297-23.641 6.1797-37.582-0.48828-2.0625-1.7969-3.8633-3.6289-4.957zm-15.613 33.785c-12.281 18.414-42.918 24.75-46.965 25.504-0.95312 0.039062-1.8984 0.054687-2.8438 0.054687-61.102 0-125.68-65.605-126.34-66.281-0.09375-0.09375-0.1875-0.1875-0.29297-0.27734-0.070313-0.085938-0.14844-0.16406-0.22656-0.22656-0.68359-0.66797-68.328-67.148-66.227-129.18 0.76172-4.0547 7.0938-34.684 25.512-46.965 6.5117-4.3438 13.73-5.8398 22.066-4.5352l32.512 54.434c-0.085937 0.55859-0.44922 1.9297-1.9922 4.1719-4.1016 3.543-24.496 21.137-24.496 21.137-13.074 11.289-3.5352 26.152 1.3789 33.793 10.367 16.191 62.723 68.543 79.391 79.215 7.1484 4.5977 22.027 14.145 33.324 1.0547l21.121-24.48c2.2109-1.5195 3.5742-1.8906 4.1484-1.9844l54.457 32.504c1.3008 8.3008-0.19531 15.543-4.5273 22.062z"></path>
  <path d="m480.3 195.68c-75.359-11.043-145.64 41.25-156.67 116.59-4.6914 32 1.9609 64.504 18.734 91.875l-8.957 61.172c-0.41016 2.7617 0.68359 5.5352 2.8672 7.2812 1.418 1.1406 3.1641 1.7305 4.9219 1.7305 0.94531 0 1.8984-0.16406 2.8086-0.51172l51.406-19.648c13.926 7.4961 29 12.461 44.871 14.785 75.367 11.109 145.58-41.297 156.61-116.66 11.031-75.328-41.27-145.59-116.59-156.61zm101.02 154.32c-9.7773 66.754-72.043 113.15-138.75 103.37-14.934-2.1875-29.062-7.0156-41.996-14.344-1.8281-1.25-4.1641-1.7461-6.4727-1.1641-0.48828 0.125-0.96094 0.28516-1.4102 0.49609l-41.754 15.957 7.4961-51.191c0.39453-2.6836-0.62109-5.25-2.4805-6.9492-14.965-24.277-20.906-53.168-16.734-81.625 9.7773-66.723 72.059-113.05 138.82-103.28 66.715 9.7656 113.05 72.004 103.28 138.73z"></path>
  <path d="m531.03 306.17c0-39.031-31.746-70.777-70.777-70.777s-70.777 31.746-70.777 70.777v16.438c-10.352 0.070313-11.629 0.26953-12.004 0.33203-4.8555 0.65234-8.8555 4.3672-9.9648 9.2734-2.1953 9.9414-6.4648 35.031 1.3711 53.176 2.1328 5.0859 7.0078 8.3281 12.289 8.3281 0.65234 0 1.5195-0.070312 2.1797-0.10156 3.4023-0.16406 6.1094-0.33203 8.3359-0.51953 0.26172 0.68359 0.40234 1.4023 0.68359 2.0781 2.4648 5.9336 8.1406 9.7305 13.863 9.7305 0.33203 0 0.66016-0.015625 1-0.039062h12.926c7.8008 0 14.145-6.3438 14.145-14.145v-64.961c0-7.8008-6.3438-14.145-14.145-14.145h-12.414s-1.0781 0.039062-2.5273 0.14844v-5.5898c0-30.34 24.688-55.035 55.035-55.035s55.035 24.695 55.035 55.035v5.582c-1.4492-0.10937-2.5898-0.14844-2.7148-0.14844h-12.203c-7.8008 0-14.145 6.3438-14.145 14.145v64.961c0 7.8008 6.3438 14.145 14.145 14.145l12.336-0.023437c0.37891 0.03125 0.76172 0.046874 1.1406 0.046874 6.2031 0 11.855-3.793 14.305-9.6914 0.28516-0.68359 0.43359-1.4102 0.69141-2.1016 2.2266 0.1875 4.9375 0.36328 8.3359 0.51953 0.62891 0.03125 1.5273 0.09375 2.1406 0.09375 5.3203 0 10.188-3.2344 12.297-8.25 7.8633-18.207 3.6055-43.305 1.3945-53.285-1.1016-4.8633-5.1016-8.582-9.793-9.2109-0.51953-0.078125-1.8125-0.27734-12.188-0.35547l-0.003907-16.43zm-148.21 71.699c-3.9844-10.699-3.0078-26.742-0.53516-39.422 1.875-0.039063 4.457-0.070313 7.1797-0.09375l-0.22656 39.133c-1.6289 0.12109-3.6836 0.25781-6.418 0.38281zm23.316-50.406c2.9922-0.13281 9.6914 0.15625 12.422-0.11719v61.766h-11.652c-0.78906-1.875-1.4414-3.8008-1.9609-5.7383l0.30859-51.586c0.30859-1.6172 0.60938-3.0703 0.88281-4.3242zm107.16 61.648h-11.328v-61.766c2.0234 0.015625 10.375-0.078125 12.422 0.11719 0.27734 1.2266 0.57422 2.6836 0.89062 4.3281l0.30859 51.578c-0.53125 1.9375-1.2227 3.8672-2.293 5.7422zm24.402-11.242c-2.7227-0.13281-4.7773-0.26172-6.4062-0.38672l-0.22656-39.133c2.7305 0.023438 5.3203 0.054688 7.1797 0.09375 2.4688 12.676 3.4375 28.68-0.54688 39.426z"></path>
 </g>

      </g>
     <g id="IconSvg_iconCarrier">
      <g xmlns="http://www.w3.org/2000/svg">
  <path d="m475.93 530.71-57.844-34.512c-1.4805-1.0078-9.4688-5.5977-21.852 3.5039-0.48047 0.35547-0.91406 0.75391-1.3008 1.1953 0 0-21.742 25.207-21.75 25.215-1.6289 1.9062-3.8984 1.7539-13.391-4.3516-14.359-9.1953-64.938-59.781-74.469-74.652-5.7695-9.0039-5.9023-11.25-4-12.895l25.191-21.734c0.44141-0.38672 0.84375-0.82031 1.1953-1.2812 9.1172-12.367 4.5273-20.379 3.7773-21.461l-34.77-58.254c-1.1016-1.8359-2.8984-3.1406-4.9766-3.6289-13.926-3.2422-26.582-1.1641-37.59 6.1797-25.316 16.918-32.062 56.238-32.34 57.891-0.046875 0.32422-0.085938 0.64453-0.09375 0.96875-2.793 69.133 67.953 138.71 70.965 141.63 0.039062 0.046874 0.085937 0.085937 0.13281 0.13281 0.023438 0.023438 0.039062 0.046875 0.0625 0.070312 2.875 2.9531 69.832 71.055 137.62 71.047 1.332 0 2.6758-0.03125 4.0156-0.085938 0.32422-0.015625 0.64453-0.046875 0.96875-0.10156 1.6602-0.26953 40.973-7.0234 57.891-32.34 7.3516-10.988 9.4297-23.641 6.1797-37.582-0.48828-2.0625-1.7969-3.8633-3.6289-4.957zm-15.613 33.785c-12.281 18.414-42.918 24.75-46.965 25.504-0.95312 0.039062-1.8984 0.054687-2.8438 0.054687-61.102 0-125.68-65.605-126.34-66.281-0.09375-0.09375-0.1875-0.1875-0.29297-0.27734-0.070313-0.085938-0.14844-0.16406-0.22656-0.22656-0.68359-0.66797-68.328-67.148-66.227-129.18 0.76172-4.0547 7.0938-34.684 25.512-46.965 6.5117-4.3438 13.73-5.8398 22.066-4.5352l32.512 54.434c-0.085937 0.55859-0.44922 1.9297-1.9922 4.1719-4.1016 3.543-24.496 21.137-24.496 21.137-13.074 11.289-3.5352 26.152 1.3789 33.793 10.367 16.191 62.723 68.543 79.391 79.215 7.1484 4.5977 22.027 14.145 33.324 1.0547l21.121-24.48c2.2109-1.5195 3.5742-1.8906 4.1484-1.9844l54.457 32.504c1.3008 8.3008-0.19531 15.543-4.5273 22.062z"></path>
  <path d="m480.3 195.68c-75.359-11.043-145.64 41.25-156.67 116.59-4.6914 32 1.9609 64.504 18.734 91.875l-8.957 61.172c-0.41016 2.7617 0.68359 5.5352 2.8672 7.2812 1.418 1.1406 3.1641 1.7305 4.9219 1.7305 0.94531 0 1.8984-0.16406 2.8086-0.51172l51.406-19.648c13.926 7.4961 29 12.461 44.871 14.785 75.367 11.109 145.58-41.297 156.61-116.66 11.031-75.328-41.27-145.59-116.59-156.61zm101.02 154.32c-9.7773 66.754-72.043 113.15-138.75 103.37-14.934-2.1875-29.062-7.0156-41.996-14.344-1.8281-1.25-4.1641-1.7461-6.4727-1.1641-0.48828 0.125-0.96094 0.28516-1.4102 0.49609l-41.754 15.957 7.4961-51.191c0.39453-2.6836-0.62109-5.25-2.4805-6.9492-14.965-24.277-20.906-53.168-16.734-81.625 9.7773-66.723 72.059-113.05 138.82-103.28 66.715 9.7656 113.05 72.004 103.28 138.73z"></path>
  <path d="m531.03 306.17c0-39.031-31.746-70.777-70.777-70.777s-70.777 31.746-70.777 70.777v16.438c-10.352 0.070313-11.629 0.26953-12.004 0.33203-4.8555 0.65234-8.8555 4.3672-9.9648 9.2734-2.1953 9.9414-6.4648 35.031 1.3711 53.176 2.1328 5.0859 7.0078 8.3281 12.289 8.3281 0.65234 0 1.5195-0.070312 2.1797-0.10156 3.4023-0.16406 6.1094-0.33203 8.3359-0.51953 0.26172 0.68359 0.40234 1.4023 0.68359 2.0781 2.4648 5.9336 8.1406 9.7305 13.863 9.7305 0.33203 0 0.66016-0.015625 1-0.039062h12.926c7.8008 0 14.145-6.3438 14.145-14.145v-64.961c0-7.8008-6.3438-14.145-14.145-14.145h-12.414s-1.0781 0.039062-2.5273 0.14844v-5.5898c0-30.34 24.688-55.035 55.035-55.035s55.035 24.695 55.035 55.035v5.582c-1.4492-0.10937-2.5898-0.14844-2.7148-0.14844h-12.203c-7.8008 0-14.145 6.3438-14.145 14.145v64.961c0 7.8008 6.3438 14.145 14.145 14.145l12.336-0.023437c0.37891 0.03125 0.76172 0.046874 1.1406 0.046874 6.2031 0 11.855-3.793 14.305-9.6914 0.28516-0.68359 0.43359-1.4102 0.69141-2.1016 2.2266 0.1875 4.9375 0.36328 8.3359 0.51953 0.62891 0.03125 1.5273 0.09375 2.1406 0.09375 5.3203 0 10.188-3.2344 12.297-8.25 7.8633-18.207 3.6055-43.305 1.3945-53.285-1.1016-4.8633-5.1016-8.582-9.793-9.2109-0.51953-0.078125-1.8125-0.27734-12.188-0.35547l-0.003907-16.43zm-148.21 71.699c-3.9844-10.699-3.0078-26.742-0.53516-39.422 1.875-0.039063 4.457-0.070313 7.1797-0.09375l-0.22656 39.133c-1.6289 0.12109-3.6836 0.25781-6.418 0.38281zm23.316-50.406c2.9922-0.13281 9.6914 0.15625 12.422-0.11719v61.766h-11.652c-0.78906-1.875-1.4414-3.8008-1.9609-5.7383l0.30859-51.586c0.30859-1.6172 0.60938-3.0703 0.88281-4.3242zm107.16 61.648h-11.328v-61.766c2.0234 0.015625 10.375-0.078125 12.422 0.11719 0.27734 1.2266 0.57422 2.6836 0.89062 4.3281l0.30859 51.578c-0.53125 1.9375-1.2227 3.8672-2.293 5.7422zm24.402-11.242c-2.7227-0.13281-4.7773-0.26172-6.4062-0.38672l-0.22656-39.133c2.7305 0.023438 5.3203 0.054688 7.1797 0.09375 2.4688 12.676 3.4375 28.68-0.54688 39.426z"></path>
 </g>

      </g>
      </svg>