<?xml version="1.0" encoding="UTF-8" standalone="no"?>
<svg
   version="1.0"
   width="64px"
   height="64px"
   viewBox="0 0 64 64"
   preserveAspectRatio="xMidYMid meet"
   id="svg3"
   sodipodi:docname="FreeSample-X.svg"
   inkscape:version="1.4 (86a8ad7, 2024-10-11)"
   xmlns:inkscape="http://www.inkscape.org/namespaces/inkscape"
   xmlns:sodipodi="http://sodipodi.sourceforge.net/DTD/sodipodi-0.dtd"
   xmlns="http://www.w3.org/2000/svg"
   xmlns:svg="http://www.w3.org/2000/svg">
  <defs
     id="defs3" />
  <sodipodi:namedview
     id="namedview3"
     pagecolor="#ffffff"
     bordercolor="#000000"
     borderopacity="0.25"
     inkscape:showpageshadow="2"
     inkscape:pageopacity="0.0"
     inkscape:pagecheckerboard="0"
     inkscape:deskcolor="#d1d1d1"
     inkscape:zoom="13.015625"
     inkscape:cx="31.961585"
     inkscape:cy="31.923169"
     inkscape:window-width="1920"
     inkscape:window-height="1051"
     inkscape:window-x="-9"
     inkscape:window-y="-9"
     inkscape:window-maximized="1"
     inkscape:current-layer="svg3" />
  <g
     fill="#000000"
     id="g2"
     style="fill:#666666">
    <path
       d="M18.5 54.8 c-2.7 -0.5 -5.7 -1.6 -6.7 -2.4 -4.8 -4.4 -4.9 -35.2 -0.1 -40.6 4.4 -4.9 36.2 -4.9 40.6 0 4.8 5.4 4.7 36.2 -0.1 40.5 -3.7 3.3 -22.4 4.7 -33.7 2.5z m28.7 -4.7 c2 -0.7 2.9 -2 3.5 -4.8 1.2 -5.5 0.8 -25.3 -0.5 -28.5 -1.4 -3.4 -5.3 -4.3 -18.2 -4.3 -13 0 -16.8 0.9 -18.1 4.3 -2.6 6.7 -1.9 29.6 0.9 32.4 2.7 2.7 26.3 3.3 32.4 0.9z"
       id="path1"
       style="fill:#666666" />
    <path
       d="M20.7 43.3 c-1.3 -1.3 -0.7 -2.2 3.8 -5.4 l4.4 -3.2 -3.3 -4.1 c-4.9 -6 -6.1 -8.6 -4.6 -10 0.9 -0.8 1.7 -0.4 3.4 1.8 1.1 1.6 3.3 4.3 4.9 6 l2.7 3.1 2.8 -3.1 c1.5 -1.7 3.7 -4.4 4.8 -6 1.7 -2.2 2.5 -2.6 3.4 -1.8 1.5 1.4 0.3 4 -4.6 10 l-3.3 4.1 4.5 3.3 c4.2 3 5.1 4.9 2.7 5.7 -0.6 0.2 -3.1 -1.2 -5.7 -3.2 l-4.6 -3.5 -4.6 3.5 c-4.7 3.6 -5.6 4 -6.7 2.8z"
       id="path2"
       style="fill:#666666" />
  </g>
</svg>
