<?xml version="1.0" encoding="UTF-8" standalone="no"?>
<svg
   version="1.0"
   width="64px"
   height="64px"
   viewBox="0 0 64 64"
   preserveAspectRatio="xMidYMid meet"
   id="svg4"
   sodipodi:docname="FreeSample-64.svg"
   inkscape:version="1.4 (86a8ad7, 2024-10-11)"
   xmlns:inkscape="http://www.inkscape.org/namespaces/inkscape"
   xmlns:sodipodi="http://sodipodi.sourceforge.net/DTD/sodipodi-0.dtd"
   xmlns="http://www.w3.org/2000/svg"
   xmlns:svg="http://www.w3.org/2000/svg">
  <defs
     id="defs4" />
  <sodipodi:namedview
     id="namedview4"
     pagecolor="#ffffff"
     bordercolor="#000000"
     borderopacity="0.25"
     inkscape:showpageshadow="2"
     inkscape:pageopacity="0.0"
     inkscape:pagecheckerboard="0"
     inkscape:deskcolor="#d1d1d1"
     inkscape:zoom="13.015625"
     inkscape:cx="31.961585"
     inkscape:cy="31.923169"
     inkscape:window-width="1920"
     inkscape:window-height="1051"
     inkscape:window-x="-9"
     inkscape:window-y="-9"
     inkscape:window-maximized="1"
     inkscape:current-layer="svg4" />
  <g
     fill="#000000"
     id="g3"
     style="fill:#666666">
    <path
       d="M2.9 39.1 c-2 -2 -2.9 -3.9 -2.9 -6.1 0 -4.3 4.7 -9 9 -9 4.3 0 9 4.7 9 9 0 4.3 -4.7 9 -9 9 -2.2 0 -4.1 -0.9 -6.1 -2.9z m9.5 -2.7 c3.1 -3 0.9 -8.4 -3.4 -8.4 -2.4 0 -5 2.6 -5 5 0 2.4 2.6 5 5 5 1 0 2.6 -0.7 3.4 -1.6z"
       id="path1"
       style="fill:#666666" />
    <path
       d="M25.9 39.1 c-2 -2 -2.9 -3.9 -2.9 -6.1 0 -4.3 4.7 -9 9 -9 4.3 0 9 4.7 9 9 0 4.3 -4.7 9 -9 9 -2.2 0 -4.1 -0.9 -6.1 -2.9z m9.5 -2.7 c3.1 -3 0.9 -8.4 -3.4 -8.4 -1 0 -2.6 0.7 -3.4 1.6 -3.1 3 -0.9 8.4 3.4 8.4 1 0 2.6 -0.7 3.4 -1.6z"
       id="path2"
       style="fill:#666666" />
    <path
       d="M48.9 39.1 c-2 -2 -2.9 -3.9 -2.9 -6.1 0 -4.3 4.7 -9 9 -9 4.3 0 9 4.7 9 9 0 4.3 -4.7 9 -9 9 -2.2 0 -4.1 -0.9 -6.1 -2.9z m9.5 -2.7 c3.1 -3 0.9 -8.4 -3.4 -8.4 -1 0 -2.6 0.7 -3.4 1.6 -3.1 3 -0.9 8.4 3.4 8.4 1 0 2.6 -0.7 3.4 -1.6z"
       id="path3"
       style="fill:#666666" />
  </g>
</svg>
